NotoSerifBengali-SemiCondensedMedium.ufo
<glyph name="exclam" format="2">
  <advance width="327.52298850574715"/>
  <unicode hex="0021"/>
  <outline>
    <contour>
      <point x="145.0977011494253" y="206.42988505747124" type="line"/>
      <point x="191.9735632183908" y="206.42988505747124" type="line"/>
      <point x="227.12298850574712" y="714.0" type="line"/>
      <point x="109.94827586206897" y="714.0" type="line"/>
    </contour>
    <contour>
      <point x="168.67816091954023" y="-7.275862068965517" type="curve" smooth="yes"/>
      <point x="200.97816091954024" y="-7.275862068965517"/>
      <point x="229.26781609195405" y="9.185057471264367"/>
      <point x="229.26781609195405" y="60.043678160919534" type="curve" smooth="yes"/>
      <point x="229.26781609195405" y="110.44367816091955"/>
      <point x="200.97816091954024" y="126.72988505747125"/>
      <point x="168.67816091954023" y="126.72988505747125" type="curve" smooth="yes"/>
      <point x="134.73563218390805" y="126.72988505747125"/>
      <point x="107.81264367816092" y="110.44367816091955"/>
      <point x="107.81264367816092" y="60.043678160919534" type="curve" smooth="yes"/>
      <point x="107.81264367816092" y="9.185057471264367"/>
      <point x="134.73563218390805" y="-7.275862068965517"/>
    </contour>
  </outline>
</glyph>
<glyph name="quotedbl" format="2">
  <advance width="396.4747126436782"/>
  <unicode hex="0022"/>
  <outline>
    <contour>
      <point x="265.9666666666667" y="475.78045977011493" type="line"/>
      <point x="311.93103448275866" y="475.78045977011493" type="line"/>
      <point x="341.37586206896555" y="714.0" type="line"/>
      <point x="233.8655172413793" y="714.0" type="line"/>
    </contour>
    <contour>
      <point x="85.05977011494252" y="475.78045977011493" type="line"/>
      <point x="131.55632183908045" y="475.78045977011493" type="line"/>
      <point x="162.15057471264367" y="714.0" type="line"/>
      <point x="54.92413793103449" y="714.0" type="line"/>
    </contour>
  </outline>
</glyph>
<glyph name="numbersign" format="2">
  <advance width="517.7816091954023"/>
  <unicode hex="0023"/>
  <outline>
    <contour>
      <point x="67.6551724137931" y="0.0" type="line"/>
      <point x="126.91034482758621" y="0.0" type="line"/>
      <point x="165.17586206896553" y="204.96896551724137" type="line"/>
      <point x="288.25747126436784" y="204.96896551724137" type="line"/>
      <point x="249.6344827586207" y="0.0" type="line"/>
      <point x="308.88965517241377" y="0.0" type="line"/>
      <point x="347.3379310344827" y="204.96896551724137" type="line"/>
      <point x="465.90344827586205" y="204.96896551724137" type="line"/>
      <point x="465.90344827586205" y="261.4172413793103" type="line"/>
      <point x="358.72528735632187" y="261.4172413793103" type="line"/>
      <point x="395.3379310344827" y="458.04137931034484" type="line"/>
      <point x="498.3620689655172" y="458.04137931034484" type="line"/>
      <point x="498.3620689655172" y="515.755172413793" type="line"/>
      <point x="406.52298850574715" y="515.755172413793" type="line"/>
      <point x="444.348275862069" y="714.0" type="line"/>
      <point x="384.72643678160915" y="714.0" type="line"/>
      <point x="347.26781609195405" y="515.755172413793" type="line"/>
      <point x="224.18620689655174" y="515.755172413793" type="line"/>
      <point x="261.4517241379311" y="714.0" type="line"/>
      <point x="201.65517241379314" y="714.0" type="line"/>
      <point x="165.1057471264368" y="515.755172413793" type="line"/>
      <point x="51.154022988505744" y="515.755172413793" type="line"/>
      <point x="51.154022988505744" y="458.04137931034484" type="line"/>
      <point x="154.1873563218391" y="458.04137931034484" type="line"/>
      <point x="116.47241379310344" y="261.4172413793103" type="line"/>
      <point x="18.52068965517242" y="261.4172413793103" type="line"/>
      <point x="18.52068965517242" y="204.96896551724137" type="line"/>
      <point x="106.09540229885059" y="204.96896551724137" type="line"/>
    </contour>
    <contour>
      <point x="176.81954022988506" y="261.4172413793103" type="line"/>
      <point x="213.6344827586207" y="458.04137931034484" type="line"/>
      <point x="336.9919540229885" y="458.04137931034484" type="line"/>
      <point x="300.10344827586204" y="261.4172413793103" type="line"/>
    </contour>
  </outline>
</glyph>
<glyph name="percent" format="2">
  <advance width="831.5149425287357"/>
  <unicode hex="0025"/>
  <outline>
    <contour>
      <point x="218.30229885057472" y="0.0" type="line"/>
      <point x="280.49425287356325" y="0.0" type="line"/>
      <point x="609.2218390804597" y="714.0" type="line"/>
      <point x="547.4701149425288" y="714.0" type="line"/>
    </contour>
    <contour>
      <point x="194.03448275862067" y="280.0" type="curve" smooth="yes"/>
      <point x="298.5781609195402" y="280.0"/>
      <point x="349.38160919540223" y="369.0"/>
      <point x="349.38160919540223" y="503.0" type="curve"/>
      <point x="349.38160919540223" y="637.0"/>
      <point x="298.11954022988505" y="724.0"/>
      <point x="195.03448275862067" y="724.0" type="curve" smooth="yes"/>
      <point x="85.49080459770114" y="724.0"/>
      <point x="39.302298850574715" y="637.0"/>
      <point x="39.302298850574715" y="503.0" type="curve" smooth="yes"/>
      <point x="39.302298850574715" y="369.0"/>
      <point x="85.03218390804598" y="280.0"/>
    </contour>
    <contour>
      <point x="194.03448275862067" y="320.0333333333333" type="curve" smooth="yes"/>
      <point x="141.9896551724138" y="320.0333333333333"/>
      <point x="122.4655172413793" y="386.8390804597702"/>
      <point x="122.4655172413793" y="503.0" type="curve"/>
      <point x="122.4655172413793" y="616.7022988505748"/>
      <point x="141.35632183908046" y="682.9666666666667"/>
      <point x="194.5758620689655" y="682.9666666666667" type="curve" smooth="yes"/>
      <point x="247.4287356321839" y="682.9666666666667"/>
      <point x="265.0436781609195" y="617.6195402298852"/>
      <point x="265.0436781609195" y="503.0" type="curve" smooth="yes"/>
      <point x="265.0436781609195" y="387.29770114942534"/>
      <point x="247.4287356321839" y="320.0333333333333"/>
    </contour>
    <contour>
      <point x="636.5816091954023" y="-10.0" type="curve" smooth="yes"/>
      <point x="741.0241379310345" y="-10.0"/>
      <point x="791.9287356321839" y="79.0"/>
      <point x="791.9287356321839" y="213.0" type="curve" smooth="yes"/>
      <point x="791.9287356321839" y="347.0"/>
      <point x="740.5655172413793" y="434.0"/>
      <point x="637.5816091954023" y="434.0" type="curve" smooth="yes"/>
      <point x="527.8448275862069" y="434.0"/>
      <point x="481.8494252873563" y="347.0"/>
      <point x="481.8494252873563" y="213.0" type="curve" smooth="yes"/>
      <point x="481.8494252873563" y="79.0"/>
      <point x="527.8448275862069" y="-10.0"/>
    </contour>
    <contour>
      <point x="636.5816091954023" y="30.03333333333333" type="curve" smooth="yes"/>
      <point x="584.5367816091954" y="30.03333333333333"/>
      <point x="565.0126436781609" y="96.8390804597701"/>
      <point x="565.0126436781609" y="213.0" type="curve" smooth="yes"/>
      <point x="565.0126436781609" y="326.70229885057466"/>
      <point x="583.903448275862" y="392.9666666666667"/>
      <point x="637.2149425287356" y="392.9666666666667" type="curve" smooth="yes"/>
      <point x="689.9758620689655" y="392.9666666666667"/>
      <point x="706.9574712643678" y="327.6195402298851"/>
      <point x="706.9574712643678" y="213.0" type="curve" smooth="yes"/>
      <point x="706.9574712643678" y="97.2977011494253"/>
      <point x="689.9758620689655" y="30.03333333333333"/>
    </contour>
  </outline>
</glyph>
<glyph name="quotesingle" format="2">
  <advance width="217.24942528735633"/>
  <unicode hex="0027"/>
  <outline>
    <contour>
      <point x="85.05977011494252" y="475.78045977011493" type="line"/>
      <point x="131.55632183908045" y="475.78045977011493" type="line"/>
      <point x="162.15057471264367" y="714.0" type="line"/>
      <point x="54.92413793103449" y="714.0" type="line"/>
    </contour>
  </outline>
</glyph>
<glyph name="parenleft" format="2">
  <advance width="352.9747126436782"/>
  <unicode hex="0028"/>
  <outline>
    <contour>
      <point x="287.29195402298853" y="-128.67471264367816" type="curve"/>
      <point x="287.29195402298853" y="-81.51954022988505" type="line"/>
      <point x="163.0298850574713" y="0.7459770114942532"/>
      <point x="146.08045977011494" y="158.27586206896552"/>
      <point x="146.08045977011494" y="317.2758620689655" type="curve" smooth="yes"/>
      <point x="146.08045977011494" y="476.0"/>
      <point x="163.0298850574713" y="632.6218390804597"/>
      <point x="287.29195402298853" y="714.3367816091954" type="curve"/>
      <point x="287.29195402298853" y="760.4091954022989" type="line"/>
      <point x="109.57816091954022" y="687.1724137931035"/>
      <point x="39.182758620689654" y="555.1816091954023"/>
      <point x="39.182758620689654" y="317.2758620689655" type="curve" smooth="yes"/>
      <point x="39.182758620689654" y="78.09425287356322"/>
      <point x="109.57816091954022" y="-54.704597701149424"/>
    </contour>
  </outline>
</glyph>
<glyph name="parenright" format="2">
  <advance width="371.34137931034485"/>
  <unicode hex="0029"/>
  <outline>
    <contour>
      <point x="84.41609195402299" y="-128.67471264367816" type="line"/>
      <point x="262.1298850574713" y="-54.704597701149424"/>
      <point x="332.4241379310345" y="78.09425287356322"/>
      <point x="332.4241379310345" y="317.2758620689655" type="curve" smooth="yes"/>
      <point x="332.4241379310345" y="555.1816091954023"/>
      <point x="262.1298850574713" y="687.1724137931035"/>
      <point x="84.41609195402299" y="760.4091954022989" type="curve"/>
      <point x="84.41609195402299" y="714.3367816091954" type="line"/>
      <point x="208.4022988505747" y="632.6218390804597"/>
      <point x="225.8931034482759" y="476.0"/>
      <point x="225.8931034482759" y="317.2758620689655" type="curve" smooth="yes"/>
      <point x="225.8931034482759" y="158.27586206896552"/>
      <point x="208.4022988505747" y="0.7459770114942532"/>
      <point x="84.41609195402299" y="-81.51954022988505" type="curve"/>
    </contour>
  </outline>
</glyph>
<glyph name="asterisk" format="2">
  <advance width="453.0436781609195"/>
  <unicode hex="002A"/>
  <outline>
    <contour>
      <point x="183.81264367816092" y="374.8781609195403" type="line"/>
      <point x="267.332183908046" y="374.8781609195403" type="line"/>
      <point x="240.3183908045977" y="537.316091954023" type="line"/>
      <point x="379.4402298850575" y="441.48735632183906" type="line"/>
      <point x="413.2816091954023" y="518.9298850574712" type="line"/>
      <point x="263.63793103448273" y="567.4390804597701" type="line"/>
      <point x="413.2816091954023" y="616.4068965517242" type="line"/>
      <point x="379.4402298850575" y="693.3908045977012" type="line"/>
      <point x="240.3183908045977" y="597.7264367816092" type="line"/>
      <point x="267.1494252873563" y="760.0" type="line"/>
      <point x="183.81264367816092" y="760.0" type="line"/>
      <point x="208.7528735632184" y="597.1850574712643" type="line"/>
      <point x="70.52988505747126" y="695.8494252873562" type="line"/>
      <point x="36.50574712643678" y="617.4068965517242" type="line"/>
      <point x="186.1494252873563" y="567.4390804597701" type="line"/>
      <point x="36.50574712643678" y="517.9298850574712" type="line"/>
      <point x="70.52988505747126" y="439.48735632183906" type="line"/>
      <point x="208.19310344827588" y="537.4172413793104" type="line"/>
    </contour>
  </outline>
</glyph>
<glyph name="comma" format="2">
  <advance width="283.2620689655173"/>
  <unicode hex="002C"/>
  <outline>
    <contour>
      <point x="70.29885057471266" y="-154.0" type="line"/>
      <point x="179.12068965517244" y="-120.45747126436781"/>
      <point x="220.483908045977" y="-46.98735632183909"/>
      <point x="220.483908045977" y="34.657471264367814" type="curve" smooth="yes"/>
      <point x="220.483908045977" y="93.59770114942529"/>
      <point x="189.86666666666667" y="126.72988505747125"/>
      <point x="149.10689655172416" y="126.72988505747125" type="curve" smooth="yes"/>
      <point x="115.17471264367818" y="126.72988505747125"/>
      <point x="89.35287356321841" y="105.44367816091955"/>
      <point x="89.35287356321841" y="68.78735632183908" type="curve" smooth="yes"/>
      <point x="89.35287356321841" y="8.795402298850574"/>
      <point x="153.9758620689655" y="14.450574712643677"/>
      <point x="153.9758620689655" y="-24.173563218390804" type="curve" smooth="yes"/>
      <point x="153.9758620689655" y="-61.0"/>
      <point x="127.34022988505747" y="-92.23218390804598"/>
      <point x="70.29885057471266" y="-112.60000000000001" type="curve"/>
    </contour>
  </outline>
</glyph>
<glyph name="hyphen" format="2">
  <advance width="287.3425287356322"/>
  <unicode hex="002D"/>
  <outline>
    <contour>
      <point x="22.80919540229885" y="233.67241379310343" type="line"/>
      <point x="264.0747126436782" y="233.67241379310343" type="line"/>
      <point x="264.0747126436782" y="311.32758620689657" type="line"/>
      <point x="22.80919540229885" y="311.32758620689657" type="line"/>
    </contour>
  </outline>
</glyph>
<glyph name="period" format="2">
  <advance width="274.87586206896555"/>
  <unicode hex="002E"/>
  <outline>
    <contour>
      <point x="155.47471264367817" y="-7.275862068965517" type="curve" smooth="yes"/>
      <point x="187.77471264367819" y="-7.275862068965517"/>
      <point x="215.53218390804597" y="9.185057471264367"/>
      <point x="215.53218390804597" y="60.043678160919534" type="curve" smooth="yes"/>
      <point x="215.53218390804597" y="110.44367816091955"/>
      <point x="187.77471264367819" y="126.72988505747125"/>
      <point x="155.47471264367817" y="126.72988505747125" type="curve" smooth="yes"/>
      <point x="121.532183908046" y="126.72988505747125"/>
      <point x="94.41724137931035" y="110.44367816091955"/>
      <point x="94.41724137931035" y="60.043678160919534" type="curve" smooth="yes"/>
      <point x="94.41724137931035" y="9.185057471264367"/>
      <point x="121.532183908046" y="-7.275862068965517"/>
    </contour>
  </outline>
</glyph>
<glyph name="slash" format="2">
  <advance width="266.7080459770115"/>
  <unicode hex="002F"/>
  <outline>
    <contour>
      <point x="0.0" y="-121.0" type="line"/>
      <point x="56.659770114942525" y="-120.7344827586207" type="line"/>
      <point x="266.7080459770115" y="760.0" type="line"/>
      <point x="211.69080459770115" y="760.0" type="line"/>
    </contour>
  </outline>
</glyph>
<glyph name="zero" format="2">
  <advance width="517.5160919540231"/>
  <unicode hex="0030"/>
  <outline>
    <contour>
      <point x="259.0747126436782" y="-10.0" type="curve" smooth="yes"/>
      <point x="409.7045977011494" y="-10.0"/>
      <point x="478.3057471264368" y="133.10574712643677"/>
      <point x="478.3057471264368" y="358.0" type="curve" smooth="yes"/>
      <point x="478.3057471264368" y="584.5264367816092"/>
      <point x="410.70344827586206" y="724.0"/>
      <point x="260.0747126436782" y="724.0" type="curve" smooth="yes"/>
      <point x="100.17931034482758" y="724.0"/>
      <point x="38.843678160919545" y="582.6298850574713"/>
      <point x="38.843678160919545" y="359.0" type="curve" smooth="yes"/>
      <point x="38.843678160919545" y="131.84137931034482"/>
      <point x="101.07701149425287" y="-10.0"/>
    </contour>
    <contour>
      <point x="259.0747126436782" y="44.59310344827586" type="curve" smooth="yes"/>
      <point x="174.29655172413794" y="44.59310344827586"/>
      <point x="147.29080459770114" y="160.2057471264368"/>
      <point x="147.29080459770114" y="358.0" type="curve" smooth="yes"/>
      <point x="147.29080459770114" y="555.7942528735632"/>
      <point x="174.29655172413794" y="669.4068965517241"/>
      <point x="260.0747126436782" y="669.4068965517241" type="curve" smooth="yes"/>
      <point x="343.75172413793103" y="669.4068965517241"/>
      <point x="370.4908045977011" y="555.7942528735632"/>
      <point x="370.4908045977011" y="358.0" type="curve" smooth="yes"/>
      <point x="370.4908045977011" y="160.2057471264368"/>
      <point x="343.75172413793103" y="44.59310344827586"/>
    </contour>
  </outline>
</glyph>
<glyph name="one" format="2">
  <advance width="517.5160919540231"/>
  <unicode hex="0031"/>
  <outline>
    <contour>
      <point x="89.03103448275863" y="0.0" type="line"/>
      <point x="446.8264367816092" y="0.0" type="line"/>
      <point x="446.8264367816092" y="43.5919540229885" type="line"/>
      <point x="399.06896551724134" y="43.5919540229885" type="line" smooth="yes"/>
      <point x="356.5827586206897" y="43.5919540229885"/>
      <point x="326.8264367816092" y="55.340229885057475"/>
      <point x="326.8264367816092" y="114.28620689655173" type="curve" smooth="yes"/>
      <point x="326.8264367816092" y="718.0" type="line"/>
      <point x="257.18850574712644" y="718.0" type="line"/>
      <point x="192.48620689655175" y="666.5689655172414" type="line" smooth="yes"/>
      <point x="131.05057471264368" y="617.9356321839081"/>
      <point x="92.1367816091954" y="600.0367816091954"/>
      <point x="54.96896551724138" y="590.0367816091954" type="curve"/>
      <point x="54.96896551724138" y="555.8931034482758"/>
      <point x="75.4310344827586" y="533.6873563218392"/>
      <point x="103.25057471264368" y="533.6873563218392" type="curve" smooth="yes"/>
      <point x="140.1528735632184" y="533.6873563218392"/>
      <point x="176.05402298850578" y="575.080459770115"/>
      <point x="222.7551724137931" y="635.2471264367816" type="curve"/>
      <point x="222.7551724137931" y="114.28620689655173" type="line" smooth="yes"/>
      <point x="222.7551724137931" y="52.96206896551724"/>
      <point x="191.7206896551724" y="43.5919540229885"/>
      <point x="150.41149425287358" y="43.5919540229885" type="curve" smooth="yes"/>
      <point x="89.03103448275863" y="43.5919540229885" type="line"/>
    </contour>
  </outline>
</glyph>
<glyph name="two" format="2">
  <advance width="517.5160919540231"/>
  <unicode hex="0032"/>
  <outline>
    <contour>
      <point x="48.66896551724138" y="0.0" type="line"/>
      <point x="460.1770114942529" y="0.0" type="line"/>
      <point x="464.5448275862069" y="178.50229885057473" type="line"/>
      <point x="420.68390804597703" y="178.50229885057473" type="line"/>
      <point x="416.0310344827586" y="158.0022988505747" type="line" smooth="yes"/>
      <point x="406.4793103448276" y="115.54482758620689"/>
      <point x="389.0597701149425" y="84.2977011494253"/>
      <point x="338.16321839080456" y="84.2977011494253" type="curve" smooth="yes"/>
      <point x="124.79080459770115" y="84.2977011494253" type="line"/>
      <point x="273.2862068965517" y="256.05747126436785" type="line" smooth="yes"/>
      <point x="381.34597701149426" y="375.6379310344828"/>
      <point x="442.0103448275862" y="457.3977011494253"/>
      <point x="442.0103448275862" y="555.8724137931034" type="curve" smooth="yes"/>
      <point x="442.0103448275862" y="657.148275862069"/>
      <point x="369.12413793103445" y="724.0"/>
      <point x="245.89770114942533" y="724.0" type="curve" smooth="yes"/>
      <point x="121.16896551724138" y="724.0"/>
      <point x="57.46551724137932" y="665.1988505747127"/>
      <point x="57.46551724137932" y="590.8494252873564" type="curve" smooth="yes"/>
      <point x="57.46551724137932" y="536.7034482758621"/>
      <point x="97.91264367816092" y="520.9114942528736"/>
      <point x="146.65977011494252" y="520.9114942528736" type="curve"/>
      <point x="146.65977011494252" y="605.0367816091954"/>
      <point x="165.8551724137931" y="672.4080459770115"/>
      <point x="245.89770114942533" y="672.4080459770115" type="curve" smooth="yes"/>
      <point x="306.14137931034486" y="672.4080459770115"/>
      <point x="335.66551724137935" y="624.2954022988505"/>
      <point x="335.66551724137935" y="546.9931034482759" type="curve" smooth="yes"/>
      <point x="335.66551724137935" y="454.07126436781607"/>
      <point x="303.2873563218391" y="384.1183908045977"/>
      <point x="201.3942528735632" y="261.26206896551724" type="curve" smooth="yes"/>
      <point x="48.66896551724138" y="75.89425287356322" type="line"/>
    </contour>
  </outline>
</glyph>
<glyph name="three" format="2">
  <advance width="517.5160919540231"/>
  <unicode hex="0033"/>
  <outline>
    <contour>
      <point x="231.41494252873562" y="-10.0" type="curve" smooth="yes"/>
      <point x="343.37586206896555" y="-10.0"/>
      <point x="467.983908045977" y="43.0"/>
      <point x="467.983908045977" y="201.7471264367816" type="curve" smooth="yes"/>
      <point x="467.983908045977" y="329.0540229885058"/>
      <point x="372.31494252873557" y="370.16436781609195"/>
      <point x="299.9804597701149" y="380.00114942528734" type="curve"/>
      <point x="383.0229885057471" y="402.94022988505753"/>
      <point x="444.81724137931036" y="472.3494252873563"/>
      <point x="444.81724137931036" y="562.3494252873562" type="curve" smooth="yes"/>
      <point x="444.81724137931036" y="665.3574712643679"/>
      <point x="365.91954022988506" y="724.0"/>
      <point x="247.05862068965519" y="724.0" type="curve" smooth="yes"/>
      <point x="122.43103448275862" y="724.0"/>
      <point x="58.28735632183908" y="665.6701149425287"/>
      <point x="58.28735632183908" y="590.964367816092" type="curve" smooth="yes"/>
      <point x="58.28735632183908" y="540.3701149425286"/>
      <point x="96.31149425287356" y="524.2011494252874"/>
      <point x="146.16206896551725" y="524.2011494252874" type="curve"/>
      <point x="146.16206896551725" y="603.2011494252874"/>
      <point x="165.80114942528735" y="672.4080459770115"/>
      <point x="243.96781609195403" y="672.4080459770115" type="curve" smooth="yes"/>
      <point x="309.0494252873563" y="672.4080459770115"/>
      <point x="337.4712643678161" y="626.6839080459771"/>
      <point x="337.4712643678161" y="549.448275862069" type="curve" smooth="yes"/>
      <point x="337.4712643678161" y="455.28620689655173"/>
      <point x="283.58160919540234" y="395.92873563218393"/>
      <point x="202.35632183908046" y="395.92873563218393" type="curve"/>
      <point x="162.75057471264367" y="395.92873563218393" type="line"/>
      <point x="162.75057471264367" y="344.335632183908" type="line"/>
      <point x="201.33678160919538" y="344.335632183908" type="line" smooth="yes"/>
      <point x="302.60574712643677" y="344.335632183908"/>
      <point x="360.00459770114946" y="288.70344827586206"/>
      <point x="360.00459770114946" y="202.7471264367816" type="curve" smooth="yes"/>
      <point x="360.00459770114946" y="86.20459770114942"/>
      <point x="299.4333333333334" y="46.15402298850575"/>
      <point x="230.5045977011494" y="46.15402298850575" type="curve" smooth="yes"/>
      <point x="156.58620689655172" y="46.15402298850575"/>
      <point x="113.22298850574713" y="97.25172413793103"/>
      <point x="113.22298850574713" y="169.39540229885057" type="curve"/>
      <point x="74.22068965517242" y="169.39540229885057"/>
      <point x="45.91379310344827" y="145.11954022988508"/>
      <point x="45.91379310344827" y="103.35287356321838" type="curve" smooth="yes"/>
      <point x="45.91379310344827" y="42.46091954022989"/>
      <point x="100.78045977011493" y="-10.0"/>
    </contour>
  </outline>
</glyph>
<glyph name="four" format="2">
  <advance width="517.5160919540231"/>
  <unicode hex="0034"/>
  <outline>
    <contour>
      <point x="191.04827586206895" y="0.0" type="line"/>
      <point x="481.7655172413793" y="0.0" type="line"/>
      <point x="481.7655172413793" y="43.5919540229885" type="line"/>
      <point x="469.86551724137934" y="43.5919540229885" type="line" smooth="yes"/>
      <point x="427.7988505747126" y="43.5919540229885"/>
      <point x="393.52988505747123" y="52.5919540229885"/>
      <point x="393.52988505747123" y="115.59195402298852" type="curve" smooth="yes"/>
      <point x="393.52988505747123" y="194.50919540229884" type="line"/>
      <point x="502.9540229885058" y="194.50919540229884" type="line"/>
      <point x="502.9540229885058" y="252.0" type="line"/>
      <point x="393.52988505747123" y="252.0" type="line"/>
      <point x="393.52988505747123" y="714.0" type="line"/>
      <point x="293.64597701149427" y="714.0" type="line"/>
      <point x="14.981609195402298" y="238.49080459770116" type="line"/>
      <point x="14.981609195402298" y="194.50919540229884" type="line"/>
      <point x="292.81724137931036" y="194.50919540229884" type="line"/>
      <point x="292.81724137931036" y="115.59195402298852" type="line" smooth="yes"/>
      <point x="292.81724137931036" y="52.5919540229885"/>
      <point x="259.016091954023" y="43.5919540229885"/>
      <point x="216.58275862068965" y="43.5919540229885" type="curve" smooth="yes"/>
      <point x="191.04827586206895" y="43.5919540229885" type="line"/>
    </contour>
    <contour>
      <point x="82.28045977011494" y="252.0" type="line"/>
      <point x="217.64252873563217" y="484.83678160919544" type="line" smooth="yes"/>
      <point x="239.03563218390806" y="522.6586206896552"/>
      <point x="286.24827586206897" y="609.3896551724138"/>
      <point x="299.1850574712644" y="639.7586206896552" type="curve"/>
      <point x="294.4505747126437" y="577.7586206896552"/>
      <point x="292.81724137931036" y="495.11494252873564"/>
      <point x="292.81724137931036" y="437.11494252873564" type="curve" smooth="yes"/>
      <point x="292.81724137931036" y="252.0" type="line"/>
    </contour>
  </outline>
</glyph>
<glyph name="five" format="2">
  <advance width="517.5160919540231"/>
  <unicode hex="0035"/>
  <outline>
    <contour>
      <point x="226.18275862068967" y="-10.0" type="curve" smooth="yes"/>
      <point x="359.64137931034486" y="-10.0"/>
      <point x="454.89425287356323" y="76.77356321839079"/>
      <point x="454.89425287356323" y="218.27586206896552" type="curve" smooth="yes"/>
      <point x="454.89425287356323" y="359.28620689655173"/>
      <point x="362.7390804597701" y="429.92873563218393"/>
      <point x="235.6954022988506" y="429.92873563218393" type="curve" smooth="yes"/>
      <point x="188.49195402298852" y="429.92873563218393"/>
      <point x="149.83563218390805" y="421.20459770114945"/>
      <point x="129.76206896551722" y="413.29655172413794" type="curve"/>
      <point x="147.75287356321837" y="629.803448275862" type="line"/>
      <point x="329.9" y="629.803448275862" type="line" smooth="yes"/>
      <point x="366.5781609195402" y="629.803448275862"/>
      <point x="371.94827586206895" y="616.8942528735632"/>
      <point x="377.85517241379307" y="586.2850574712644" type="curve" smooth="yes"/>
      <point x="382.87471264367815" y="558.5275862068966" type="line"/>
      <point x="426.3586206896552" y="558.5275862068966" type="line"/>
      <point x="421.9908045977011" y="714.0" type="line"/>
      <point x="103.22068965517241" y="714.0" type="line"/>
      <point x="72.85172413793103" y="361.21379310344827" type="line"/>
      <point x="98.22758620689655" y="351.3574712643678" type="line"/>
      <point x="122.79080459770117" y="362.3471264367816"/>
      <point x="153.29310344827584" y="374.335632183908"/>
      <point x="210.76206896551727" y="374.335632183908" type="curve" smooth="yes"/>
      <point x="293.70344827586206" y="374.335632183908"/>
      <point x="346.64942528735634" y="322.44827586206895"/>
      <point x="346.64942528735634" y="218.27586206896552" type="curve" smooth="yes"/>
      <point x="346.64942528735634" y="90.03218390804598"/>
      <point x="291.40804597701145" y="48.328735632183914"/>
      <point x="218.95862068965516" y="48.328735632183914" type="curve" smooth="yes"/>
      <point x="143.81494252873563" y="48.328735632183914"/>
      <point x="109.51379310344828" y="98.82758620689656"/>
      <point x="109.51379310344828" y="156.8264367816092" type="curve"/>
      <point x="69.31494252873563" y="156.8264367816092"/>
      <point x="47.01724137931034" y="133.8275862068965"/>
      <point x="47.01724137931034" y="95.61264367816091" type="curve" smooth="yes"/>
      <point x="47.01724137931034" y="48.182758620689654"/>
      <point x="88.32758620689654" y="-10.0"/>
    </contour>
  </outline>
</glyph>
<glyph name="six" format="2">
  <advance width="517.5160919540231"/>
  <unicode hex="0036"/>
  <outline>
    <contour>
      <point x="271.34137931034485" y="-10.0" type="curve" smooth="yes"/>
      <point x="400.99885057471266" y="-10.0"/>
      <point x="474.23333333333335" y="88.0"/>
      <point x="474.23333333333335" y="229.27586206896552" type="curve" smooth="yes"/>
      <point x="474.23333333333335" y="357.28620689655173"/>
      <point x="400.99885057471266" y="434.28620689655173"/>
      <point x="289.30114942528735" y="434.28620689655173" type="curve" smooth="yes"/>
      <point x="227.416091954023" y="434.28620689655173"/>
      <point x="186.3965517241379" y="409.4919540229885"/>
      <point x="157.5977011494253" y="384.3390804597701" type="curve"/>
      <point x="163.43448275862067" y="573.9701149425288"/>
      <point x="208.7850574712644" y="674.4080459770115"/>
      <point x="295.4" y="674.4080459770115" type="curve" smooth="yes"/>
      <point x="353.0413793103449" y="674.4080459770115"/>
      <point x="375.15862068965515" y="622.0517241379312"/>
      <point x="375.15862068965515" y="555.9068965517241" type="curve"/>
      <point x="428.8632183908046" y="555.9068965517241"/>
      <point x="455.2241379310345" y="579.216091954023"/>
      <point x="455.2241379310345" y="618.0712643678162" type="curve" smooth="yes"/>
      <point x="455.2241379310345" y="672.7241379310345"/>
      <point x="404.68160919540225" y="724.0"/>
      <point x="297.64942528735634" y="724.0" type="curve" smooth="yes"/>
      <point x="130.82528735632184" y="724.0"/>
      <point x="52.54942528735632" y="561.8344827586207"/>
      <point x="52.54942528735632" y="349.1908045977012" type="curve" smooth="yes"/>
      <point x="52.54942528735632" y="97.0"/>
      <point x="144.51954022988508" y="-10.0"/>
    </contour>
    <contour>
      <point x="273.77241379310345" y="45.226436781609195" type="curve" smooth="yes"/>
      <point x="203.16666666666669" y="45.226436781609195"/>
      <point x="158.69885057471262" y="130.16781609195402"/>
      <point x="156.69885057471262" y="326.89195402298856" type="curve"/>
      <point x="179.58850574712642" y="352.5597701149425"/>
      <point x="219.02298850574712" y="382.4"/>
      <point x="266.9724137931035" y="382.4" type="curve" smooth="yes"/>
      <point x="333.22758620689655" y="382.4"/>
      <point x="369.8252873563219" y="332.71379310344827"/>
      <point x="369.8252873563219" y="219.27586206896552" type="curve" smooth="yes"/>
      <point x="369.8252873563219" y="98.58275862068966"/>
      <point x="335.3298850574713" y="45.226436781609195"/>
    </contour>
  </outline>
</glyph>
<glyph name="seven" format="2">
  <advance width="517.5160919540231"/>
  <unicode hex="0037"/>
  <outline>
    <contour>
      <point x="166.37586206896552" y="0.0" type="line"/>
      <point x="239.30344827586208" y="0.0" type="line"/>
      <point x="474.8942528735632" y="682.0183908045977" type="line"/>
      <point x="474.8942528735632" y="714.0" type="line"/>
      <point x="55.42298850574712" y="714.0" type="line"/>
      <point x="50.42298850574712" y="528.803448275862" type="line"/>
      <point x="95.45747126436783" y="528.803448275862" type="line"/>
      <point x="99.8344827586207" y="577.8045977011494" type="line" smooth="yes"/>
      <point x="102.8344827586207" y="612.4356321839081"/>
      <point x="119.36896551724138" y="629.803448275862"/>
      <point x="152.90344827586208" y="629.803448275862" type="curve" smooth="yes"/>
      <point x="395.49655172413793" y="629.803448275862" type="line"/>
    </contour>
  </outline>
</glyph>
<glyph name="eight" format="2">
  <advance width="517.5160919540231"/>
  <unicode hex="0038"/>
  <outline>
    <contour>
      <point x="253.44022988505748" y="-10.0" type="curve" smooth="yes"/>
      <point x="392.1620689655172" y="-10.0"/>
      <point x="478.8666666666667" y="62.864367816091956"/>
      <point x="478.8666666666667" y="186.46321839080457" type="curve" smooth="yes"/>
      <point x="478.8666666666667" y="279.0609195402299"/>
      <point x="420.84137931034485" y="334.9344827586207"/>
      <point x="326.69885057471265" y="382.48965517241385" type="curve"/>
      <point x="401.94367816091955" y="421.3724137931035"/>
      <point x="451.00229885057473" y="465.5609195402299"/>
      <point x="451.00229885057473" y="553.951724137931" type="curve" smooth="yes"/>
      <point x="451.00229885057473" y="652.7229885057473"/>
      <point x="383.832183908046" y="724.0"/>
      <point x="263.5436781609195" y="724.0" type="curve" smooth="yes"/>
      <point x="119.17586206896551" y="724.0"/>
      <point x="60.18275862068966" y="639.9229885057472"/>
      <point x="60.18275862068966" y="545.4471264367817" type="curve" smooth="yes"/>
      <point x="60.18275862068966" y="460.21149425287354"/>
      <point x="108.54137931034482" y="405.9712643678161"/>
      <point x="179.32758620689654" y="363.35517241379307" type="curve"/>
      <point x="99.54942528735631" y="323.5827586206897"/>
      <point x="39.18045977011494" y="274.50344827586207"/>
      <point x="39.18045977011494" y="177.2505747126437" type="curve" smooth="yes"/>
      <point x="39.18045977011494" y="73.01149425287356"/>
      <point x="109.97471264367816" y="-10.0"/>
    </contour>
    <contour>
      <point x="257.44137931034487" y="38.95747126436782" type="curve" smooth="yes"/>
      <point x="180.28620689655173" y="38.95747126436782"/>
      <point x="137.76091954022988" y="92.07701149425289"/>
      <point x="137.76091954022988" y="176.12068965517244" type="curve" smooth="yes"/>
      <point x="137.76091954022988" y="249.9896551724138"/>
      <point x="171.6885057471264" y="303.06781609195406"/>
      <point x="226.22758620689655" y="336.70804597701147" type="curve"/>
      <point x="338.0540229885058" y="281.9229885057472"/>
      <point x="381.33103448275864" y="236.69655172413792"/>
      <point x="381.33103448275864" y="168.51494252873565" type="curve" smooth="yes"/>
      <point x="381.33103448275864" y="90.63793103448276"/>
      <point x="332.03793103448277" y="38.95747126436782"/>
    </contour>
    <contour>
      <point x="278.72643678160927" y="407.0540229885058" type="curve"/>
      <point x="200.9287356321839" y="446.29770114942534"/>
      <point x="158.87471264367815" y="484.1402298850575"/>
      <point x="158.87471264367815" y="557.851724137931" type="curve" smooth="yes"/>
      <point x="158.87471264367815" y="625.9229885057472"/>
      <point x="194.18620689655174" y="674.4091954022988"/>
      <point x="258.90919540229885" y="674.4091954022988" type="curve" smooth="yes"/>
      <point x="330.88965517241377" y="674.4091954022988"/>
      <point x="359.39540229885057" y="615.3"/>
      <point x="359.39540229885057" y="554.383908045977" type="curve" smooth="yes"/>
      <point x="359.39540229885057" y="484.6425287356322"/>
      <point x="339.95402298850576" y="442.196551724138"/>
    </contour>
  </outline>
</glyph>
<glyph name="nine" format="2">
  <advance width="517.5160919540231"/>
  <unicode hex="0039"/>
  <outline>
    <contour>
      <point x="210.27241379310345" y="-10.724137931034482" type="curve"/>
      <point x="392.43678160919535" y="-10.724137931034482"/>
      <point x="465.3333333333333" y="168.08850574712645"/>
      <point x="465.3333333333333" y="388.0" type="curve" smooth="yes"/>
      <point x="465.3333333333333" y="624.5045977011495"/>
      <point x="371.5275862068965" y="724.0"/>
      <point x="244.26666666666668" y="724.0" type="curve" smooth="yes"/>
      <point x="117.64942528735632" y="724.0"/>
      <point x="43.282758620689656" y="623.2850574712644"/>
      <point x="43.282758620689656" y="480.6505747126437" type="curve" smooth="yes"/>
      <point x="43.282758620689656" y="346.548275862069"/>
      <point x="118.51724137931035" y="276.99770114942527"/>
      <point x="225.37816091954025" y="276.99770114942527" type="curve" smooth="yes"/>
      <point x="289.62988505747126" y="276.99770114942527"/>
      <point x="334.8126436781609" y="309.93908045977014"/>
      <point x="360.55057471264365" y="343.7586206896551" type="curve"/>
      <point x="354.283908045977" y="143.21494252873563"/>
      <point x="310.2356321839081" y="45.31609195402299"/>
      <point x="213.8218390804598" y="45.31609195402299" type="curve" smooth="yes"/>
      <point x="152.57126436781607" y="45.31609195402299"/>
      <point x="121.71609195402299" y="84.27471264367817"/>
      <point x="104.80574712643678" y="129.07126436781613" type="curve"/>
      <point x="84.63448275862068" y="123.1632183908046"/>
      <point x="71.16436781609194" y="103.81264367816092"/>
      <point x="71.16436781609194" y="77.98505747126437" type="curve" smooth="yes"/>
      <point x="71.16436781609194" y="34.106896551724134"/>
      <point x="104.81954022988505" y="-10.724137931034482"/>
    </contour>
    <contour>
      <point x="250.89080459770116" y="335.14482758620693" type="curve" smooth="yes"/>
      <point x="182.27816091954026" y="336.0425287356322"/>
      <point x="148.41494252873565" y="383.0597701149425"/>
      <point x="148.41494252873565" y="488.0" type="curve" smooth="yes"/>
      <point x="148.41494252873565" y="604.7034482758621"/>
      <point x="183.73678160919542" y="668.4977011494253"/>
      <point x="246.73563218390805" y="668.4977011494253" type="curve" smooth="yes"/>
      <point x="315.44942528735635" y="668.4977011494253"/>
      <point x="358.9172413793103" y="591.9241379310345"/>
      <point x="361.81609195402297" y="409.0597701149425" type="curve"/>
      <point x="344.17241379310343" y="371.97241379310344"/>
      <point x="308.31724137931036" y="336.0425287356322"/>
    </contour>
  </outline>
</glyph>
<glyph name="colon" format="2">
  <advance width="274.5091954022989"/>
  <unicode hex="003A"/>
  <outline>
    <contour>
      <point x="155.1080459770115" y="404.2011494252873" type="curve" smooth="yes"/>
      <point x="187.4080459770115" y="404.2011494252873"/>
      <point x="215.1655172413793" y="420.22183908045974"/>
      <point x="215.1655172413793" y="470.5206896551724" type="curve" smooth="yes"/>
      <point x="215.1655172413793" y="521.5540229885057"/>
      <point x="187.4080459770115" y="536.9413793103448"/>
      <point x="155.1080459770115" y="536.9413793103448" type="curve" smooth="yes"/>
      <point x="121.26666666666668" y="536.9413793103448"/>
      <point x="94.41724137931035" y="521.5540229885057"/>
      <point x="94.41724137931035" y="470.5206896551724" type="curve" smooth="yes"/>
      <point x="94.41724137931035" y="420.22183908045974"/>
      <point x="121.26666666666668" y="404.2011494252873"/>
    </contour>
    <contour>
      <point x="155.1080459770115" y="-7.275862068965517" type="curve" smooth="yes"/>
      <point x="187.4080459770115" y="-7.275862068965517"/>
      <point x="215.1655172413793" y="9.185057471264367"/>
      <point x="215.1655172413793" y="60.043678160919534" type="curve" smooth="yes"/>
      <point x="215.1655172413793" y="110.44367816091955"/>
      <point x="187.4080459770115" y="126.72988505747125"/>
      <point x="155.1080459770115" y="126.72988505747125" type="curve" smooth="yes"/>
      <point x="121.26666666666668" y="126.72988505747125"/>
      <point x="94.41724137931035" y="110.44367816091955"/>
      <point x="94.41724137931035" y="60.043678160919534" type="curve" smooth="yes"/>
      <point x="94.41724137931035" y="9.185057471264367"/>
      <point x="121.26666666666668" y="-7.275862068965517"/>
    </contour>
  </outline>
</glyph>
<glyph name="semicolon" format="2">
  <advance width="290.9206896551724"/>
  <unicode hex="003B"/>
  <outline>
    <contour>
      <point x="70.29885057471266" y="-154.0" type="line"/>
      <point x="179.4873563218391" y="-120.45747126436781"/>
      <point x="220.85057471264366" y="-46.98735632183909"/>
      <point x="220.85057471264366" y="34.657471264367814" type="curve" smooth="yes"/>
      <point x="220.85057471264366" y="93.59770114942529"/>
      <point x="190.05862068965516" y="126.72988505747125"/>
      <point x="148.4735632183908" y="126.72988505747125" type="curve" smooth="yes"/>
      <point x="115.54137931034485" y="126.72988505747125"/>
      <point x="89.71954022988507" y="105.44367816091955"/>
      <point x="89.71954022988507" y="68.78735632183908" type="curve" smooth="yes"/>
      <point x="89.71954022988507" y="8.795402298850574"/>
      <point x="154.6080459770115" y="14.450574712643677"/>
      <point x="154.6080459770115" y="-24.173563218390804" type="curve"/>
      <point x="154.6080459770115" y="-61.64252873563218"/>
      <point x="127.44022988505746" y="-92.23218390804598"/>
      <point x="70.29885057471266" y="-112.60000000000001" type="curve"/>
    </contour>
    <contour>
      <point x="156.63908045977013" y="404.2011494252873" type="curve" smooth="yes"/>
      <point x="189.13103448275862" y="404.2011494252873"/>
      <point x="217.32988505747124" y="420.22183908045974"/>
      <point x="217.32988505747124" y="470.5206896551724" type="curve" smooth="yes"/>
      <point x="217.32988505747124" y="521.5540229885057"/>
      <point x="189.13103448275862" y="536.9413793103448"/>
      <point x="156.63908045977013" y="536.9413793103448" type="curve" smooth="yes"/>
      <point x="122.62298850574714" y="536.9413793103448"/>
      <point x="96.40689655172416" y="521.5540229885057"/>
      <point x="96.40689655172416" y="470.5206896551724" type="curve" smooth="yes"/>
      <point x="96.40689655172416" y="420.22183908045974"/>
      <point x="122.62298850574714" y="404.2011494252873"/>
    </contour>
  </outline>
</glyph>
<glyph name="less" format="2">
  <advance width="509.8666666666667"/>
  <unicode hex="003C"/>
  <outline>
    <contour>
      <point x="453.43908045977014" y="109.79540229885058" type="line"/>
      <point x="453.43908045977014" y="176.47931034482758" type="line"/>
      <point x="142.70459770114945" y="357.0" type="line"/>
      <point x="453.43908045977014" y="539.7862068965518" type="line"/>
      <point x="453.43908045977014" y="606.2045977011494" type="line"/>
      <point x="56.42758620689656" y="375.55172413793105" type="line"/>
      <point x="56.42758620689656" y="339.44827586206895" type="line"/>
    </contour>
  </outline>
</glyph>
<glyph name="equal" format="2">
  <advance width="509.8666666666667"/>
  <unicode hex="003D"/>
  <outline>
    <contour>
      <point x="56.05057471264367" y="424.3827586206897" type="line"/>
      <point x="453.9908045977012" y="424.3827586206897" type="line"/>
      <point x="453.9908045977012" y="483.42413793103447" type="line"/>
      <point x="56.05057471264367" y="483.42413793103447" type="line"/>
    </contour>
    <contour>
      <point x="56.05057471264367" y="230.11724137931034" type="line"/>
      <point x="453.9908045977012" y="230.11724137931034" type="line"/>
      <point x="453.9908045977012" y="289.6172413793103" type="line"/>
      <point x="56.05057471264367" y="289.6172413793103" type="line"/>
    </contour>
  </outline>
</glyph>
<glyph name="greater" format="2">
  <advance width="509.8666666666667"/>
  <unicode hex="003E"/>
  <outline>
    <contour>
      <point x="56.42758620689656" y="109.79540229885058" type="line"/>
      <point x="453.43908045977014" y="339.44827586206895" type="line"/>
      <point x="453.43908045977014" y="375.55172413793105" type="line"/>
      <point x="56.42758620689656" y="606.2045977011494" type="line"/>
      <point x="56.42758620689656" y="539.7862068965518" type="line"/>
      <point x="366.7954022988506" y="357.0" type="line"/>
      <point x="56.42758620689656" y="176.47931034482758" type="line"/>
    </contour>
  </outline>
</glyph>
<glyph name="question" format="2">
  <advance width="465.14827586206894"/>
  <unicode hex="003F"/>
  <outline>
    <contour>
      <point x="181.1264367816092" y="208.91724137931035" type="line"/>
      <point x="239.1862068965517" y="208.91724137931035" type="line"/>
      <point x="245.83218390804598" y="318.17356321839077" type="line"/>
      <point x="363.616091954023" y="369.8091954022988"/>
      <point x="424.8045977011494" y="433.99885057471266"/>
      <point x="424.8045977011494" y="543.5379310344829" type="curve" smooth="yes"/>
      <point x="424.8045977011494" y="657.7229885057473"/>
      <point x="339.5264367816092" y="724.0"/>
      <point x="215.64597701149424" y="724.0" type="curve" smooth="yes"/>
      <point x="91.4793103448276" y="724.0"/>
      <point x="32.71379310344828" y="672.7379310344827"/>
      <point x="32.71379310344828" y="609.2229885057471" type="curve" smooth="yes"/>
      <point x="32.71379310344828" y="562.9402298850574"/>
      <point x="69.26436781609196" y="543.3885057471265"/>
      <point x="124.7344827586207" y="543.3885057471265" type="curve"/>
      <point x="124.7344827586207" y="618.7735632183908"/>
      <point x="150.1758620689655" y="672.5344827586207"/>
      <point x="219.74827586206897" y="672.5344827586207" type="curve" smooth="yes"/>
      <point x="283.78850574712646" y="672.5344827586207"/>
      <point x="313.11724137931037" y="624.3482758620689"/>
      <point x="313.11724137931037" y="555.1034482758621" type="curve" smooth="yes"/>
      <point x="313.11724137931037" y="472.4172413793104"/>
      <point x="281.25747126436784" y="398.2505747126437"/>
      <point x="174.74597701149426" y="350.28620689655173" type="curve"/>
    </contour>
    <contour>
      <point x="208.7471264367816" y="-7.275862068965517" type="curve" smooth="yes"/>
      <point x="243.4701149425287" y="-7.275862068965517"/>
      <point x="272.8436781609196" y="9.818390804597701"/>
      <point x="272.8436781609196" y="62.18390804597701" type="curve" smooth="yes"/>
      <point x="272.8436781609196" y="115.0080459770115"/>
      <point x="243.4701149425287" y="131.64367816091954"/>
      <point x="208.7471264367816" y="131.64367816091954" type="curve" smooth="yes"/>
      <point x="173.72988505747128" y="131.64367816091954"/>
      <point x="145.8241379310345" y="115.0080459770115"/>
      <point x="145.8241379310345" y="62.18390804597701" type="curve" smooth="yes"/>
      <point x="145.8241379310345" y="9.818390804597701"/>
      <point x="173.72988505747128" y="-7.275862068965517"/>
    </contour>
  </outline>
</glyph>
<glyph name="bracketleft" format="2">
  <advance width="347.45977011494256"/>
  <unicode hex="005B"/>
  <outline>
    <contour>
      <point x="70.11724137931034" y="-128.0" type="line"/>
      <point x="287.3252873563219" y="-128.0" type="line"/>
      <point x="287.3252873563219" y="-85.32528735632184" type="line"/>
      <point x="245.51494252873565" y="-85.32528735632184" type="line" smooth="yes"/>
      <point x="204.08045977011494" y="-85.32528735632184"/>
      <point x="171.55517241379312" y="-76.32528735632184"/>
      <point x="171.55517241379312" y="-12.866666666666667" type="curve" smooth="yes"/>
      <point x="171.55517241379312" y="644.4080459770115" type="line" smooth="yes"/>
      <point x="171.55517241379312" y="708.3252873563218"/>
      <point x="204.08045977011494" y="717.3252873563218"/>
      <point x="245.51494252873565" y="717.3252873563218" type="curve" smooth="yes"/>
      <point x="287.3252873563219" y="717.3252873563218" type="line"/>
      <point x="287.3252873563219" y="760.0" type="line"/>
      <point x="70.11724137931034" y="760.0" type="line"/>
    </contour>
  </outline>
</glyph>
<glyph name="bracketright" format="2">
  <advance width="370.39080459770116"/>
  <unicode hex="005D"/>
  <outline>
    <contour>
      <point x="83.60689655172413" y="-128.0" type="line"/>
      <point x="299.8149425287356" y="-128.0" type="line"/>
      <point x="299.8149425287356" y="760.0" type="line"/>
      <point x="83.60689655172413" y="760.0" type="line"/>
      <point x="83.60689655172413" y="717.3252873563218" type="line"/>
      <point x="124.59195402298852" y="717.3252873563218" type="line" smooth="yes"/>
      <point x="166.85172413793103" y="717.3252873563218"/>
      <point x="199.0103448275862" y="708.3252873563218"/>
      <point x="199.0103448275862" y="644.4080459770115" type="curve" smooth="yes"/>
      <point x="199.0103448275862" y="-12.866666666666667" type="line" smooth="yes"/>
      <point x="199.0103448275862" y="-76.32528735632184"/>
      <point x="166.85172413793103" y="-85.32528735632184"/>
      <point x="124.59195402298852" y="-85.32528735632184" type="curve" smooth="yes"/>
      <point x="83.60689655172413" y="-85.32528735632184" type="line"/>
    </contour>
  </outline>
</glyph>
<glyph name="asciicircum" format="2">
  <advance width="509.5"/>
  <unicode hex="005E"/>
  <outline>
    <contour>
      <point x="41.8655172413793" y="266.17241379310343" type="line"/>
      <point x="104.97471264367816" y="266.17241379310343" type="line"/>
      <point x="253.43333333333334" y="622.6712643678161" type="line"/>
      <point x="403.5252873563219" y="266.17241379310343" type="line"/>
      <point x="466.36781609195407" y="266.17241379310343" type="line"/>
      <point x="270.52758620689656" y="714.0" type="line"/>
      <point x="237.3390804597701" y="714.0" type="line"/>
    </contour>
  </outline>
</glyph>
<glyph name="underscore" format="2">
  <advance width="424.6471264367816"/>
  <unicode hex="005F"/>
  <outline>
    <contour>
      <point x="-4.73448275862069" y="-140.44942528735632" type="line"/>
      <point x="429.28045977011493" y="-140.44942528735632" type="line"/>
      <point x="429.28045977011493" y="-83.0" type="line"/>
      <point x="-4.73448275862069" y="-83.0" type="line"/>
    </contour>
  </outline>
</glyph>
<glyph name="braceleft" format="2">
  <advance width="402.3816091954023"/>
  <unicode hex="007B"/>
  <outline>
    <contour>
      <point x="273.11379310344824" y="-127.44827586206897" type="curve" smooth="yes"/>
      <point x="339.46781609195403" y="-127.44827586206897" type="line"/>
      <point x="339.46781609195403" y="-84.04942528735633" type="line"/>
      <point x="309.44367816091955" y="-84.04942528735633" type="line" smooth="yes"/>
      <point x="255.55977011494252" y="-84.04942528735633"/>
      <point x="236.2402298850575" y="-47.325287356321844"/>
      <point x="236.2402298850575" y="20.204597701149424" type="curve" smooth="yes"/>
      <point x="236.2402298850575" y="192.82758620689654" type="line" smooth="yes"/>
      <point x="236.2402298850575" y="258.7241379310345"/>
      <point x="203.98160919540229" y="303.5195402298851"/>
      <point x="135.10459770114943" y="316.7241379310345" type="curve"/>
      <point x="135.10459770114943" y="318.92873563218393" type="line"/>
      <point x="203.26666666666668" y="331.5919540229885"/>
      <point x="236.2402298850575" y="375.82758620689657"/>
      <point x="236.2402298850575" y="440.7241379310345" type="curve" smooth="yes"/>
      <point x="236.2402298850575" y="612.1827586206896" type="line" smooth="yes"/>
      <point x="236.2402298850575" y="680.9781609195402"/>
      <point x="255.55977011494252" y="716.6011494252874"/>
      <point x="310.0770114942529" y="716.6011494252874" type="curve" smooth="yes"/>
      <point x="339.46781609195403" y="716.6011494252874" type="line"/>
      <point x="339.46781609195403" y="760.0" type="line"/>
      <point x="273.11379310344824" y="760.0" type="line" smooth="yes"/>
      <point x="182.532183908046" y="760.0"/>
      <point x="134.34252873563221" y="707.7241379310345"/>
      <point x="134.34252873563221" y="617.0816091954023" type="curve" smooth="yes"/>
      <point x="134.34252873563221" y="442.7241379310345" type="line" smooth="yes"/>
      <point x="134.34252873563221" y="362.2954022988506"/>
      <point x="86.816091954023" y="340.67471264367816"/>
      <point x="25.582758620689656" y="338.67471264367816" type="curve"/>
      <point x="25.582758620689656" y="295.5195402298851" type="line"/>
      <point x="86.816091954023" y="292.5195402298851"/>
      <point x="134.34252873563221" y="271.7241379310345"/>
      <point x="134.34252873563221" y="189.82758620689654" type="curve" smooth="yes"/>
      <point x="134.34252873563221" y="16.745977011494254" type="line" smooth="yes"/>
      <point x="134.34252873563221" y="-71.71379310344827"/>
      <point x="182.532183908046" y="-127.44827586206897"/>
    </contour>
  </outline>
</glyph>
<glyph name="bar" format="2">
  <advance width="517.0574712643678"/>
  <unicode hex="007C"/>
  <outline>
    <contour>
      <point x="229.3367816091954" y="-240.0" type="line"/>
      <point x="287.17931034482757" y="-240.0" type="line"/>
      <point x="287.17931034482757" y="760.0" type="line"/>
      <point x="229.3367816091954" y="760.0" type="line"/>
    </contour>
  </outline>
</glyph>
<glyph name="braceright" format="2">
  <advance width="423.3908045977011"/>
  <unicode hex="007D"/>
  <outline>
    <contour>
      <point x="84.02413793103447" y="-127.44827586206897" type="line"/>
      <point x="151.10229885057473" y="-127.44827586206897" type="line" smooth="yes"/>
      <point x="241.68390804597703" y="-127.44827586206897"/>
      <point x="288.8735632183908" y="-71.71379310344827"/>
      <point x="288.8735632183908" y="16.745977011494254" type="curve" smooth="yes"/>
      <point x="288.8735632183908" y="189.82758620689654" type="line" smooth="yes"/>
      <point x="288.8735632183908" y="271.7241379310345"/>
      <point x="337.84022988505745" y="292.5195402298851"/>
      <point x="398.367816091954" y="295.5195402298851" type="curve"/>
      <point x="398.367816091954" y="338.67471264367816" type="line"/>
      <point x="337.84022988505745" y="340.67471264367816"/>
      <point x="288.8735632183908" y="362.2954022988506"/>
      <point x="288.8735632183908" y="442.7241379310345" type="curve" smooth="yes"/>
      <point x="288.8735632183908" y="617.0816091954023" type="line" smooth="yes"/>
      <point x="288.8735632183908" y="707.7241379310345"/>
      <point x="241.68390804597703" y="760.0"/>
      <point x="151.10229885057473" y="760.0" type="curve" smooth="yes"/>
      <point x="84.02413793103447" y="760.0" type="line"/>
      <point x="84.02413793103447" y="716.6011494252874" type="line"/>
      <point x="114.31379310344828" y="716.6011494252874" type="line" smooth="yes"/>
      <point x="169.09655172413792" y="716.6011494252874"/>
      <point x="187.60919540229887" y="680.9781609195402"/>
      <point x="187.60919540229887" y="612.1827586206896" type="curve" smooth="yes"/>
      <point x="187.60919540229887" y="440.7241379310345" type="line" smooth="yes"/>
      <point x="187.60919540229887" y="375.82758620689657"/>
      <point x="221.12413793103448" y="331.5919540229885"/>
      <point x="289.65287356321835" y="318.92873563218393" type="curve"/>
      <point x="289.65287356321835" y="316.7241379310345" type="line"/>
      <point x="219.04252873563217" y="303.5195402298851"/>
      <point x="187.60919540229887" y="258.7241379310345"/>
      <point x="187.60919540229887" y="192.82758620689654" type="curve" smooth="yes"/>
      <point x="187.60919540229887" y="20.204597701149424" type="line" smooth="yes"/>
      <point x="187.60919540229887" y="-47.325287356321844"/>
      <point x="169.09655172413792" y="-84.04942528735633"/>
      <point x="114.77241379310345" y="-84.04942528735633" type="curve" smooth="yes"/>
      <point x="84.02413793103447" y="-84.04942528735633" type="line"/>
    </contour>
  </outline>
</glyph>
<glyph name="asciitilde" format="2">
  <advance width="509.8666666666667"/>
  <unicode hex="007E"/>
  <outline>
    <contour>
      <point x="43.745977011494254" y="268.5195402298851" type="curve"/>
      <point x="101.60689655172413" y="268.5195402298851" type="line"/>
      <point x="108.31149425287356" y="348.9793103448276"/>
      <point x="124.22183908045976" y="386.0505747126437"/>
      <point x="159.83793103448278" y="386.0505747126437" type="curve" smooth="yes"/>
      <point x="187.71149425287354" y="386.0505747126437"/>
      <point x="207.79425287356324" y="364.28045977011493"/>
      <point x="238.98965517241382" y="332.6022988505747" type="curve" smooth="yes"/>
      <point x="280.80574712643676" y="288.5885057471265"/>
      <point x="310.98275862068965" y="268.5195402298851"/>
      <point x="351.7413793103448" y="268.5195402298851" type="curve" smooth="yes"/>
      <point x="438.4862068965517" y="268.5195402298851"/>
      <point x="459.8724137931035" y="366.17816091954023"/>
      <point x="466.38505747126436" y="444.74597701149423" type="curve"/>
      <point x="407.6252873563219" y="444.74597701149423" type="line"/>
      <point x="400.1954022988506" y="367.8103448275862"/>
      <point x="386.55172413793105" y="327.2149425287356"/>
      <point x="351.37586206896555" y="327.2149425287356" type="curve" smooth="yes"/>
      <point x="326.0264367816092" y="327.2149425287356"/>
      <point x="305.2540229885057" y="348.92068965517245"/>
      <point x="275.6287356321839" y="378.47011494252877" type="curve" smooth="yes"/>
      <point x="231.17241379310346" y="421.3183908045977"/>
      <point x="202.51149425287358" y="444.74597701149423"/>
      <point x="159.08735632183908" y="444.74597701149423" type="curve" smooth="yes"/>
      <point x="71.10574712643678" y="444.74597701149423"/>
      <point x="50.0103448275862" y="351.73793103448276"/>
    </contour>
  </outline>
</glyph>
<glyph name="multiply" format="2">
  <advance width="509.40804597701145"/>
  <unicode hex="00D7"/>
  <outline>
    <contour>
      <point x="104.04022988505747" y="151.4896551724138" type="line"/>
      <point x="255.3310344827586" y="314.8781609195403" type="line"/>
      <point x="406.41954022988506" y="151.6919540229885" type="line"/>
      <point x="449.1747126436782" y="191.61494252873564" type="line"/>
      <point x="295.519540229885" y="358.10114942528736" type="line"/>
      <point x="449.1747126436782" y="524.1471264367816" type="line"/>
      <point x="406.3183908045977" y="564.1436781609195" type="line"/>
      <point x="255.3310344827586" y="401.30574712643676" type="line"/>
      <point x="104.40689655172415" y="563.9781609195402" type="line"/>
      <point x="61.11034482758622" y="524.6149425287356" type="line"/>
      <point x="215.40804597701148" y="358.7344827586207" type="line"/>
      <point x="61.11034482758622" y="191.78045977011496" type="line"/>
    </contour>
  </outline>
</glyph>
<glyph name="divide" format="2">
  <advance width="509.8666666666667"/>
  <unicode hex="00F7"/>
  <outline>
    <contour>
      <point x="56.42758620689656" y="328.25402298850577" type="line"/>
      <point x="453.43908045977014" y="328.25402298850577" type="line"/>
      <point x="453.43908045977014" y="387.20459770114945" type="line"/>
      <point x="56.42758620689656" y="387.20459770114945" type="line"/>
    </contour>
    <contour>
      <point x="255.43333333333334" y="113.88735632183908" type="curve" smooth="yes"/>
      <point x="282.51839080459774" y="113.88735632183908"/>
      <point x="303.89655172413796" y="128.26436781609198"/>
      <point x="303.89655172413796" y="169.09195402298852" type="curve" smooth="yes"/>
      <point x="303.89655172413796" y="210.9195402298851"/>
      <point x="282.51839080459774" y="224.29655172413794"/>
      <point x="255.43333333333334" y="224.29655172413794" type="curve" smooth="yes"/>
      <point x="227.2471264367816" y="224.29655172413794"/>
      <point x="206.60344827586206" y="210.9195402298851"/>
      <point x="206.60344827586206" y="169.09195402298852" type="curve" smooth="yes"/>
      <point x="206.60344827586206" y="128.26436781609198"/>
      <point x="227.2471264367816" y="113.88735632183908"/>
    </contour>
    <contour>
      <point x="255.43333333333334" y="491.3367816091954" type="curve" smooth="yes"/>
      <point x="282.51839080459774" y="491.3367816091954"/>
      <point x="303.89655172413796" y="505.08045977011494"/>
      <point x="303.89655172413796" y="545.9080459770115" type="curve" smooth="yes"/>
      <point x="303.89655172413796" y="587.7356321839081"/>
      <point x="282.51839080459774" y="601.1126436781609"/>
      <point x="255.43333333333334" y="601.1126436781609" type="curve" smooth="yes"/>
      <point x="227.2471264367816" y="601.1126436781609"/>
      <point x="206.60344827586206" y="587.7356321839081"/>
      <point x="206.60344827586206" y="545.9080459770115" type="curve" smooth="yes"/>
      <point x="206.60344827586206" y="505.08045977011494"/>
      <point x="227.2471264367816" y="491.3367816091954"/>
    </contour>
  </outline>
</glyph>
<glyph name="anudatta-deva" format="2">
  <unicode hex="0952"/>
  <anchor x="-299.0" y="386.448275862069" name="_vedic"/>
  <outline>
    <contour>
      <point x="-500.46091954022984" y="-146.75862068965517" type="line"/>
      <point x="-96.71379310344828" y="-146.75862068965517" type="line"/>
      <point x="-96.71379310344828" y="-89.24137931034483" type="line"/>
      <point x="-500.46091954022984" y="-89.24137931034483" type="line"/>
    </contour>
  </outline>
</glyph>
<glyph name="danda-deva" format="2">
  <advance width="419.9471264367816"/>
  <unicode hex="0964"/>
  <outline>
    <contour>
      <point x="339.8781609195402" y="-26.310344827586206" type="line"/>
      <point x="344.25747126436784" y="-24.758620689655174" type="line"/>
      <point x="344.25747126436784" y="585.8275862068965" type="line"/>
      <point x="283.3264367816092" y="622.8275862068965" type="line"/>
      <point x="280.3264367816092" y="622.8275862068965" type="line"/>
      <point x="280.3264367816092" y="4.172413793103448" type="line"/>
    </contour>
  </outline>
</glyph>
<glyph name="dbldanda-deva" format="2">
  <advance width="574.9068965517242"/>
  <unicode hex="0965"/>
  <outline>
    <contour>
      <point x="495.11379310344824" y="-26.310344827586206" type="line"/>
      <point x="499.21724137931034" y="-24.758620689655174" type="line"/>
      <point x="499.21724137931034" y="585.8275862068965" type="line"/>
      <point x="438.56206896551726" y="622.8275862068965" type="line"/>
      <point x="435.56206896551726" y="622.8275862068965" type="line"/>
      <point x="435.56206896551726" y="4.172413793103448" type="line"/>
    </contour>
    <contour>
      <point x="339.8781609195402" y="-26.310344827586206" type="line"/>
      <point x="344.25747126436784" y="-24.758620689655174" type="line"/>
      <point x="344.25747126436784" y="585.8275862068965" type="line"/>
      <point x="283.3264367816092" y="622.8275862068965" type="line"/>
      <point x="280.3264367816092" y="622.8275862068965" type="line"/>
      <point x="280.3264367816092" y="4.172413793103448" type="line"/>
    </contour>
  </outline>
</glyph>
<glyph name="anji-beng" format="2">
  <advance width="510.8712643678161"/>
  <unicode hex="0980"/>
  <anchor x="275.364367816092" y="573.5862068965517" name="top"/>
  <outline>
    <contour>
      <point x="419.0310344827586" y="-9.452873563218393" type="curve" smooth="yes"/>
      <point x="462.68275862068964" y="-9.452873563218393"/>
      <point x="484.7252873563218" y="18.467816091954024"/>
      <point x="484.7252873563218" y="57.77816091954023" type="curve" smooth="yes"/>
      <point x="484.7252873563218" y="97.71264367816092"/>
      <point x="458.25172413793103" y="125.55057471264368"/>
      <point x="421.41149425287364" y="125.55057471264368" type="curve" smooth="yes"/>
      <point x="385.3011494252874" y="125.55057471264368"/>
      <point x="371.8402298850575" y="101.96436781609195"/>
      <point x="369.0241379310345" y="73.51379310344828" type="curve"/>
      <point x="397.9908045977012" y="72.13448275862069" type="line"/>
      <point x="397.9908045977012" y="478.8620689655172" type="line" smooth="yes"/>
      <point x="397.9908045977012" y="558.1850574712645"/>
      <point x="349.0206896551724" y="624.4827586206897"/>
      <point x="254.00344827586204" y="624.4827586206897" type="curve" smooth="yes"/>
      <point x="140.62413793103448" y="624.4827586206897"/>
      <point x="53.59770114942529" y="537.4781609195402"/>
      <point x="53.59770114942529" y="420.35402298850573" type="curve" smooth="yes"/>
      <point x="53.59770114942529" y="300.48390804597705"/>
      <point x="133.17471264367813" y="238.37126436781608"/>
      <point x="210.0126436781609" y="238.37126436781608" type="curve" smooth="yes"/>
      <point x="268.3632183908046" y="238.37126436781608"/>
      <point x="299.08505747126435" y="271.8448275862069"/>
      <point x="299.08505747126435" y="321.7793103448276" type="curve" smooth="yes"/>
      <point x="299.08505747126435" y="373.88505747126436"/>
      <point x="268.1919540229885" y="401.61609195402303"/>
      <point x="225.1080459770115" y="401.61609195402303" type="curve" smooth="yes"/>
      <point x="185.46781609195403" y="401.61609195402303"/>
      <point x="156.47241379310344" y="374.0793103448276"/>
      <point x="156.47241379310344" y="330.0655172413793" type="curve" smooth="yes"/>
      <point x="156.47241379310344" y="317.3091954022989"/>
      <point x="159.01379310344828" y="301.5827586206897"/>
      <point x="162.92298850574713" y="293.48850574712645" type="curve"/>
      <point x="205.12528735632182" y="314.5827586206897" type="line"/>
      <point x="195.30689655172415" y="310.8586206896552"/>
      <point x="185.2126436781609" y="309.8586206896552"/>
      <point x="175.3942528735632" y="309.8586206896552" type="curve" smooth="yes"/>
      <point x="142.88620689655173" y="309.8586206896552"/>
      <point x="122.74712643678161" y="343.12298850574706"/>
      <point x="122.74712643678161" y="395.04597701149424" type="curve" smooth="yes"/>
      <point x="122.74712643678161" y="483.8080459770115"/>
      <point x="216.92988505747127" y="553.5632183908046"/>
      <point x="279.36781609195407" y="553.5632183908046" type="curve" smooth="yes"/>
      <point x="319.9862068965517" y="553.5632183908046"/>
      <point x="335.26091954022985" y="532.0425287356322"/>
      <point x="335.26091954022985" y="490.151724137931" type="curve" smooth="yes"/>
      <point x="335.26091954022985" y="97.78505747126438" type="line" smooth="yes"/>
      <point x="335.26091954022985" y="35.29885057471264"/>
      <point x="367.19310344827585" y="-9.452873563218393"/>
    </contour>
  </outline>
</glyph>
<glyph name="anusvara-beng" format="2">
  <advance width="350.4034482758621"/>
  <unicode hex="0982"/>
  <anchor x="-192.37586206896552" y="0.0" name="vedic"/>
  <outline>
    <contour>
      <point x="169.5183908045977" y="356.7241379310345" type="curve" smooth="yes"/>
      <point x="243.70459770114945" y="356.7241379310345"/>
      <point x="297.07126436781607" y="412.74597701149423"/>
      <point x="297.07126436781607" y="492.58620689655174" type="curve" smooth="yes"/>
      <point x="297.07126436781607" y="564.7931034482758"/>
      <point x="251.9425287356322" y="622.7241379310345"/>
      <point x="178.1344827586207" y="622.7241379310345" type="curve" smooth="yes"/>
      <point x="105.11264367816092" y="622.7241379310345"/>
      <point x="52.81954022988505" y="565.7931034482758"/>
      <point x="52.81954022988505" y="487.58620689655174" type="curve" smooth="yes"/>
      <point x="52.81954022988505" y="416.6563218390804"/>
      <point x="96.60689655172413" y="356.7241379310345"/>
    </contour>
    <contour>
      <point x="145.55747126436782" y="412.0689655172414" type="curve" smooth="yes"/>
      <point x="126.6770114942529" y="412.0689655172414"/>
      <point x="110.60344827586206" y="426.9655172413793"/>
      <point x="110.60344827586206" y="451.732183908046" type="curve" smooth="yes"/>
      <point x="110.60344827586206" y="504.84022988505745"/>
      <point x="160.1103448275862" y="563.2068965517242"/>
      <point x="207.616091954023" y="563.2068965517242" type="curve" smooth="yes"/>
      <point x="229.13103448275862" y="563.2068965517242"/>
      <point x="240.8471264367816" y="546.2195402298851"/>
      <point x="240.8471264367816" y="527.1379310344828" type="curve" smooth="yes"/>
      <point x="240.8471264367816" y="478.15977011494255"/>
      <point x="191.62528735632185" y="412.0689655172414"/>
    </contour>
    <contour>
      <point x="300.3931034482759" y="-46.0" type="curve"/>
      <point x="333.71724137931034" y="-30.17241379310345" type="line"/>
      <point x="280.05517241379306" y="99.51839080459769"/>
      <point x="200.51264367816094" y="236.8954022988506"/>
      <point x="110.68275862068965" y="313.483908045977" type="curve"/>
      <point x="51.094252873563214" y="218.3793103448276" type="line"/>
      <point x="141.37126436781608" y="158.24137931034483"/>
      <point x="210.61724137931034" y="96.11494252873563"/>
    </contour>
  </outline>
</glyph>
<glyph name="visarga-beng" format="2">
  <advance width="352.3367816091954"/>
  <unicode hex="0983"/>
  <anchor x="-192.37586206896552" y="0.0" name="vedic"/>
  <outline>
    <contour>
      <point x="170.74137931034483" y="356.37471264367815" type="curve" smooth="yes"/>
      <point x="245.80114942528738" y="356.37471264367815"/>
      <point x="299.69195402298845" y="412.5712643678161"/>
      <point x="299.69195402298845" y="492.58620689655174" type="curve" smooth="yes"/>
      <point x="299.69195402298845" y="565.1425287356321"/>
      <point x="254.21379310344827" y="623.0735632183907"/>
      <point x="179.35747126436783" y="623.0735632183907" type="curve" smooth="yes"/>
      <point x="105.6367816091954" y="623.0735632183907"/>
      <point x="52.81954022988505" y="566.1425287356321"/>
      <point x="52.81954022988505" y="487.58620689655174" type="curve" smooth="yes"/>
      <point x="52.81954022988505" y="416.48160919540226"/>
      <point x="97.13103448275862" y="356.37471264367815"/>
    </contour>
    <contour>
      <point x="146.9551724137931" y="411.71954022988507" type="curve" smooth="yes"/>
      <point x="128.07471264367817" y="411.71954022988507"/>
      <point x="111.82643678160919" y="426.616091954023"/>
      <point x="111.82643678160919" y="451.20804597701147" type="curve" smooth="yes"/>
      <point x="111.82643678160919" y="504.4908045977011"/>
      <point x="161.15862068965518" y="563.5563218390804"/>
      <point x="208.83908045977012" y="563.5563218390804" type="curve" smooth="yes"/>
      <point x="230.5287356321839" y="563.5563218390804"/>
      <point x="242.24482758620687" y="546.5689655172414"/>
      <point x="242.24482758620687" y="527.4873563218391" type="curve" smooth="yes"/>
      <point x="242.24482758620687" y="478.5091954022989"/>
      <point x="193.5471264367816" y="411.71954022988507"/>
    </contour>
    <contour>
      <point x="170.916091954023" y="1.762068965517239" type="curve" smooth="yes"/>
      <point x="245.62643678160921" y="1.762068965517239"/>
      <point x="299.167816091954" y="57.682758620689654"/>
      <point x="299.167816091954" y="137.16551724137932" type="curve" smooth="yes"/>
      <point x="299.167816091954" y="209.8310344827586"/>
      <point x="253.864367816092" y="267.02758620689656"/>
      <point x="179.35747126436783" y="267.02758620689656" type="curve" smooth="yes"/>
      <point x="105.98620689655172" y="267.02758620689656"/>
      <point x="53.16896551724138" y="210.72988505747128"/>
      <point x="53.16896551724138" y="132.06436781609196" type="curve" smooth="yes"/>
      <point x="53.16896551724138" y="61.59310344827586"/>
      <point x="97.30574712643677" y="1.762068965517239"/>
    </contour>
    <contour>
      <point x="147.12988505747126" y="56.298850574712645" type="curve" smooth="yes"/>
      <point x="128.07471264367817" y="56.298850574712645"/>
      <point x="112.00114942528735" y="71.09425287356322"/>
      <point x="112.00114942528735" y="95.78735632183908" type="curve" smooth="yes"/>
      <point x="112.00114942528735" y="149.52873563218392"/>
      <point x="161.15862068965518" y="207.9609195402299"/>
      <point x="208.83908045977012" y="207.9609195402299" type="curve" smooth="yes"/>
      <point x="230.35402298850573" y="207.9609195402299"/>
      <point x="242.0701149425287" y="190.9735632183908"/>
      <point x="242.0701149425287" y="172.52528735632183" type="curve" smooth="yes"/>
      <point x="242.0701149425287" y="123.5471264367816"/>
      <point x="193.5471264367816" y="56.298850574712645"/>
    </contour>
  </outline>
</glyph>
<glyph name="a-beng" format="2">
  <advance width="709.0540229885057"/>
  <unicode hex="0985"/>
  <anchor x="635.8689655172413" y="0.0" name="bottom"/>
  <anchor x="635.9701149425287" y="74.6896551724138" name="bottom.rakaar"/>
  <anchor x="635.8689655172413" y="11.724137931034482" name="bottom.rvocalic"/>
  <anchor x="617.8666666666667" y="8.206896551724139" name="bottom.virama"/>
  <anchor x="635.8689655172413" y="564.4827586206897" name="top"/>
  <anchor x="635.8689655172413" y="564.4827586206897" name="topright"/>
  <anchor x="354.3436781609196" y="0.0" name="vedic"/>
  <outline>
    <contour>
      <point x="628.9413793103449" y="-16.03448275862069" type="line"/>
      <point x="635.135632183908" y="-14.758620689655173" type="line"/>
      <point x="635.135632183908" y="564.4827586206897" type="line"/>
      <point x="738.2425287356323" y="564.4827586206897" type="line"/>
      <point x="704.0333333333333" y="622.0" type="line"/>
      <point x="-29.188505747126438" y="622.0" type="line"/>
      <point x="4.12183908045977" y="564.4827586206897" type="line"/>
      <point x="572.5804597701149" y="564.4827586206897" type="line"/>
      <point x="572.5804597701149" y="76.15977011494253" type="line"/>
      <point x="583.5091954022989" y="85.30459770114943" type="line"/>
      <point x="549.722988505747" y="163.9183908045977"/>
      <point x="505.0252873563218" y="212.61724137931034"/>
      <point x="455.98390804597705" y="246.63793103448276" type="curve"/>
      <point x="431.1080459770115" y="180.1551724137931" type="line"/>
      <point x="491.9172413793103" y="144.80114942528735"/>
      <point x="540.6080459770114" y="93.83563218390806"/>
      <point x="579.3643678160919" y="20.0816091954023" type="curve"/>
    </contour>
    <contour>
      <point x="310.7931034482758" y="82.07011494252872" type="curve" smooth="yes"/>
      <point x="431.4862068965517" y="82.07011494252872"/>
      <point x="491.28735632183907" y="176.05862068965519"/>
      <point x="491.28735632183907" y="295.82758620689657" type="curve" smooth="yes"/>
      <point x="491.28735632183907" y="408.9540229885057"/>
      <point x="425.5425287356322" y="507.2413793103448"/>
      <point x="301.4206896551724" y="507.2413793103448" type="curve" smooth="yes"/>
      <point x="230.74597701149426" y="507.2413793103448"/>
      <point x="179.93448275862067" y="469.6655172413793"/>
      <point x="179.93448275862067" y="399.55172413793105" type="curve" smooth="yes"/>
      <point x="179.93448275862067" y="338.17241379310343"/>
      <point x="221.2241379310345" y="300.13793103448273"/>
      <point x="275.6206896551724" y="300.13793103448273" type="curve" smooth="yes"/>
      <point x="332.98735632183906" y="300.13793103448273"/>
      <point x="363.65402298850574" y="344.50689655172414"/>
      <point x="363.65402298850574" y="403.62068965517244" type="curve" smooth="yes"/>
      <point x="363.65402298850574" y="477.20919540229886"/>
      <point x="320.1540229885058" y="540.4137931034483"/>
      <point x="283.50574712643675" y="573.1379310344828" type="curve"/>
      <point x="162.42413793103447" y="571.4137931034483" type="line"/>
      <point x="265.9022988505747" y="540.4137931034483"/>
      <point x="300.0321839080459" y="486.0689655172414"/>
      <point x="309.767816091954" y="403.6896551724138" type="curve"/>
      <point x="325.7586206896552" y="412.41379310344826"/>
      <point x="338.2310344827586" y="416.7931034482759"/>
      <point x="356.61149425287357" y="416.7931034482759" type="curve" smooth="yes"/>
      <point x="392.6908045977012" y="416.7931034482759"/>
      <point x="433.21839080459773" y="385.2540229885057"/>
      <point x="435.86091954022993" y="309.2068965517241" type="curve" smooth="yes"/>
      <point x="438.50344827586207" y="226.86206896551724"/>
      <point x="386.4850574712644" y="185.04942528735634"/>
      <point x="305.3310344827586" y="185.04942528735634" type="curve" smooth="yes"/>
      <point x="196.40689655172415" y="185.04942528735634"/>
      <point x="114.65057471264369" y="261.2298850574712"/>
      <point x="57.51494252873563" y="490.94252873563215" type="curve"/>
      <point x="12.990804597701148" y="479.19655172413786" type="line"/>
      <point x="77.28390804597701" y="182.32758620689654"/>
      <point x="181.0448275862069" y="82.07011494252872"/>
    </contour>
  </outline>
</glyph>
<glyph name="aa-beng" format="2">
  <advance width="908.3850574712644"/>
  <unicode hex="0986"/>
  <anchor x="635.6666666666666" y="0.0" name="bottom"/>
  <anchor x="635.5655172413792" y="74.6896551724138" name="bottom.rakaar"/>
  <anchor x="635.5655172413792" y="11.724137931034482" name="bottom.rvocalic"/>
  <anchor x="617.5632183908046" y="8.206896551724139" name="bottom.virama"/>
  <anchor x="835.6402298850575" y="564.4827586206897" name="top"/>
  <anchor x="835.6402298850575" y="538.9655172413793" name="topright"/>
  <anchor x="453.9126436781609" y="0.0" name="vedic"/>
  <outline>
    <contour>
      <point x="628.9413793103449" y="-16.03448275862069" type="line"/>
      <point x="635.135632183908" y="-14.758620689655173" type="line"/>
      <point x="635.135632183908" y="564.4827586206897" type="line"/>
      <point x="698.2482758620689" y="564.4827586206897" type="line"/>
      <point x="664.1126436781609" y="622.0" type="line"/>
      <point x="-29.188505747126438" y="622.0" type="line"/>
      <point x="4.12183908045977" y="564.4827586206897" type="line"/>
      <point x="572.5804597701149" y="564.4827586206897" type="line"/>
      <point x="572.5804597701149" y="76.15977011494253" type="line"/>
      <point x="583.5091954022989" y="85.30459770114943" type="line"/>
      <point x="549.722988505747" y="163.9183908045977"/>
      <point x="505.0252873563218" y="212.61724137931034"/>
      <point x="455.98390804597705" y="246.63793103448276" type="curve"/>
      <point x="431.1080459770115" y="180.1551724137931" type="line"/>
      <point x="491.9172413793103" y="144.80114942528735"/>
      <point x="540.6080459770114" y="93.83563218390806"/>
      <point x="579.3643678160919" y="20.0816091954023" type="curve"/>
    </contour>
    <contour>
      <point x="310.7931034482758" y="82.07011494252872" type="curve" smooth="yes"/>
      <point x="431.4862068965517" y="82.07011494252872"/>
      <point x="491.28735632183907" y="176.05862068965519"/>
      <point x="491.28735632183907" y="295.82758620689657" type="curve" smooth="yes"/>
      <point x="491.28735632183907" y="408.9540229885057"/>
      <point x="425.5425287356322" y="507.2413793103448"/>
      <point x="301.4206896551724" y="507.2413793103448" type="curve" smooth="yes"/>
      <point x="230.74597701149426" y="507.2413793103448"/>
      <point x="179.93448275862067" y="469.6655172413793"/>
      <point x="179.93448275862067" y="399.55172413793105" type="curve" smooth="yes"/>
      <point x="179.93448275862067" y="338.17241379310343"/>
      <point x="221.2241379310345" y="300.13793103448273"/>
      <point x="275.6206896551724" y="300.13793103448273" type="curve" smooth="yes"/>
      <point x="332.98735632183906" y="300.13793103448273"/>
      <point x="363.65402298850574" y="344.50689655172414"/>
      <point x="363.65402298850574" y="403.62068965517244" type="curve" smooth="yes"/>
      <point x="363.65402298850574" y="477.20919540229886"/>
      <point x="320.1540229885058" y="540.4137931034483"/>
      <point x="283.50574712643675" y="573.1379310344828" type="curve"/>
      <point x="162.42413793103447" y="571.4137931034483" type="line"/>
      <point x="265.9022988505747" y="540.4137931034483"/>
      <point x="300.0321839080459" y="486.0689655172414"/>
      <point x="309.767816091954" y="403.6896551724138" type="curve"/>
      <point x="325.7586206896552" y="412.41379310344826"/>
      <point x="338.2310344827586" y="416.7931034482759"/>
      <point x="356.61149425287357" y="416.7931034482759" type="curve" smooth="yes"/>
      <point x="392.6908045977012" y="416.7931034482759"/>
      <point x="435.86091954022993" y="385.2540229885057"/>
      <point x="435.86091954022993" y="309.2068965517241" type="curve" smooth="yes"/>
      <point x="435.86091954022993" y="226.40344827586208"/>
      <point x="386.0264367816092" y="185.04942528735634"/>
      <point x="305.3310344827586" y="185.04942528735634" type="curve" smooth="yes"/>
      <point x="196.40689655172415" y="185.04942528735634"/>
      <point x="114.65057471264369" y="261.2298850574712"/>
      <point x="57.51494252873563" y="490.94252873563215" type="curve"/>
      <point x="12.990804597701148" y="479.19655172413786" type="line"/>
      <point x="77.28390804597701" y="182.32758620689654"/>
      <point x="181.0448275862069" y="82.07011494252872"/>
    </contour>
    <contour>
      <point x="829.8954022988506" y="-27.758620689655174" type="line"/>
      <point x="834.5402298850576" y="-26.482758620689655" type="line"/>
      <point x="834.5402298850576" y="564.4827586206897" type="line"/>
      <point x="937.573563218391" y="564.4827586206897" type="line"/>
      <point x="902.8045977011494" y="622.0" type="line"/>
      <point x="831.6103448275862" y="622.0" type="line"/>
      <point x="826.2413793103449" y="668.3103448275862" type="line"/>
      <point x="776.8402298850574" y="702.1379310344828" type="line"/>
      <point x="772.1137931034482" y="700.5862068965517" type="line"/>
      <point x="772.1137931034482" y="625.5908045977012" type="line" smooth="yes"/>
      <point x="772.1137931034482" y="604.4597701149426"/>
      <point x="775.5724137931035" y="553.3563218390805"/>
      <point x="780.0126436781609" y="510.0988505747126" type="curve"/>
      <point x="786.1804597701149" y="512.3655172413794" type="line"/>
      <point x="775.3712643678161" y="589.8310344827586"/>
      <point x="738.4413793103448" y="622.0"/>
      <point x="702.6873563218392" y="622.0" type="curve" smooth="yes"/>
      <point x="653.8942528735632" y="622.0" type="line"/>
      <point x="687.7459770114942" y="564.4827586206897" type="line"/>
      <point x="708.9402298850574" y="564.4827586206897" type="line" smooth="yes"/>
      <point x="742.448275862069" y="564.4827586206897"/>
      <point x="763.2689655172413" y="522.0275862068966"/>
      <point x="771.8103448275862" y="470.54712643678164" type="curve"/>
      <point x="771.8103448275862" y="2.4482758620689653" type="line"/>
    </contour>
  </outline>
</glyph>
<glyph name="i-beng" format="2">
  <advance width="439.64252873563225"/>
  <unicode hex="0987"/>
  <anchor x="257.28850574712646" y="79.25172413793105" name="bottom"/>
  <anchor x="369.40804597701145" y="-66.25287356321839" name="bottom.rakaar"/>
  <anchor x="316.4609195402299" y="78.41379310344827" name="bottom.rvocalic"/>
  <anchor x="241.28965517241377" y="80.34482758620689" name="bottom.virama"/>
  <anchor x="271.96666666666664" y="615.0689655172414" name="top"/>
  <anchor x="218.00689655172414" y="619.5068965517243" name="topright"/>
  <anchor x="219.6379310344828" y="0.0" name="vedic"/>
  <outline>
    <contour>
      <point x="331.32298850574716" y="608.1379310344828" type="curve"/>
      <point x="377.60919540229884" y="608.1379310344828" type="line"/>
      <point x="372.85632183908046" y="739.4701149425288"/>
      <point x="328.65402298850574" y="806.8367816091954"/>
      <point x="240.27471264367816" y="806.8367816091954" type="curve" smooth="yes"/>
      <point x="199.56896551724137" y="806.8367816091954"/>
      <point x="166.36091954022987" y="796.6436781609195"/>
      <point x="116.60919540229887" y="796.6436781609195" type="curve" smooth="yes"/>
      <point x="56.40459770114943" y="796.6436781609195"/>
      <point x="24.568965517241377" y="812.6747126436782"/>
      <point x="24.568965517241377" y="882.5057471264367" type="curve" smooth="yes"/>
      <point x="24.568965517241377" y="894.2206896551725"/>
      <point x="25.568965517241377" y="907.935632183908"/>
      <point x="26.935632183908044" y="916.6701149425288" type="curve"/>
      <point x="-15.54942528735632" y="921.0471264367816" type="line"/>
      <point x="-18.467816091954024" y="901.2103448275861"/>
      <point x="-19.918390804597703" y="879.3816091954022"/>
      <point x="-19.918390804597703" y="859.7505747126436" type="curve" smooth="yes"/>
      <point x="-19.918390804597703" y="762.7678160919542"/>
      <point x="22.989655172413794" y="705.2275862068966"/>
      <point x="115.07816091954024" y="705.2275862068966" type="curve" smooth="yes"/>
      <point x="176.04252873563217" y="705.2275862068966"/>
      <point x="215.71494252873563" y="716.4942528735633"/>
      <point x="253.32298850574716" y="716.4942528735633" type="curve" smooth="yes"/>
      <point x="300.42873563218393" y="716.4942528735633"/>
      <point x="329.10229885057475" y="685.7114942528735"/>
    </contour>
    <component base="ha-beng"/>
  </outline>
</glyph>
<glyph name="ii-beng" format="2">
  <advance width="589.3344827586207"/>
  <unicode hex="0988"/>
  <anchor x="517.735632183908" y="-14.758620689655173" name="bottom"/>
  <anchor x="519.2873563218392" y="63.6551724137931" name="bottom.rakaar"/>
  <anchor x="499.76551724137937" y="5.137931034482756" name="bottom.rvocalic"/>
  <anchor x="501.28620689655173" y="-10.482758620689657" name="bottom.virama"/>
  <anchor x="357.1689655172414" y="615.0689655172414" name="top"/>
  <anchor x="311.6218390804598" y="619.2413793103449" name="topright"/>
  <anchor x="294.4379310344828" y="0.0" name="vedic"/>
  <outline>
    <contour>
      <point x="479.01264367816094" y="-27.698850574712647" type="curve"/>
      <point x="520.5057471264367" y="-10.84137931034483" type="line"/>
      <point x="499.1183908045977" y="51.07126436781609"/>
      <point x="489.22873563218394" y="106.93678160919539"/>
      <point x="489.22873563218394" y="167.31379310344826" type="curve" smooth="yes"/>
      <point x="489.22873563218394" y="251.0804597701149"/>
      <point x="510.8942528735632" y="335.15402298850574"/>
      <point x="553.8528735632184" y="410.55172413793105" type="curve"/>
      <point x="460.49195402298847" y="490.0206896551724" type="line"/>
      <point x="372.2287356321839" y="418.80804597701155"/>
      <point x="331.6770114942529" y="350.0172413793103"/>
      <point x="288.37586206896555" y="273.6275862068966" type="curve"/>
      <point x="330.7551724137931" y="286.3574712643678" type="line"/>
      <point x="333.848275862069" y="300.3712643678161"/>
      <point x="334.94942528735635" y="320.1080459770115"/>
      <point x="334.94942528735635" y="333.4264367816092" type="curve" smooth="yes"/>
      <point x="334.94942528735635" y="423.37011494252874"/>
      <point x="288.65977011494255" y="505.2413793103448"/>
      <point x="164.08505747126438" y="505.2413793103448" type="curve" smooth="yes"/>
      <point x="87.16551724137932" y="505.2413793103448"/>
      <point x="46.41379310344827" y="470.3103448275862"/>
      <point x="46.41379310344827" y="413.2758620689655" type="curve" smooth="yes"/>
      <point x="46.41379310344827" y="361.58620689655174"/>
      <point x="79.01149425287356" y="328.7586206896552"/>
      <point x="128.57931034482758" y="328.7586206896552" type="curve" smooth="yes"/>
      <point x="179.49540229885056" y="328.7586206896552"/>
      <point x="209.8977011494253" y="365.4045977011494"/>
      <point x="209.79655172413794" y="425.81609195402297" type="curve" smooth="yes"/>
      <point x="209.59425287356322" y="474.88505747126436"/>
      <point x="177.2183908045977" y="541.5172413793103"/>
      <point x="144.50919540229884" y="571.4827586206897" type="curve"/>
      <point x="39.536781609195394" y="571.4827586206897" type="line"/>
      <point x="85.03793103448275" y="554.3103448275862"/>
      <point x="131.68045977011494" y="517.864367816092"/>
      <point x="152.10459770114943" y="465.7931034482759" type="curve"/>
      <point x="112.77701149425287" y="400.7241379310345" type="line"/>
      <point x="142.02298850574712" y="419.7241379310345"/>
      <point x="167.32183908045977" y="430.7724137931034"/>
      <point x="200.48850574712645" y="430.7724137931034" type="curve" smooth="yes"/>
      <point x="260.648275862069" y="430.7724137931034"/>
      <point x="282.0091954022988" y="390.8206896551724"/>
      <point x="282.0091954022988" y="339.8310344827586" type="curve" smooth="yes"/>
      <point x="282.0091954022988" y="305.9022988505747"/>
      <point x="271.79655172413794" y="267.4114942528735"/>
      <point x="253.05977011494255" y="236.75057471264367" type="curve" smooth="yes"/>
      <point x="229.4241379310345" y="198.29195402298853"/>
      <point x="203.60459770114943" y="183.44597701149428"/>
      <point x="170.7816091954023" y="183.44597701149428" type="curve" smooth="yes"/>
      <point x="140.64827586206897" y="183.44597701149428"/>
      <point x="112.74827586206897" y="203.8597701149425"/>
      <point x="87.8367816091954" y="255.23563218390805" type="curve"/>
      <point x="49.06436781609195" y="237.2206896551724" type="line"/>
      <point x="89.87586206896552" y="132.84367816091955"/>
      <point x="138.3425287356322" y="89.46436781609195"/>
      <point x="196.61149425287357" y="89.46436781609195" type="curve" smooth="yes"/>
      <point x="256.0091954022989" y="89.46436781609195"/>
      <point x="294.5873563218391" y="134.50114942528737"/>
      <point x="338.33103448275864" y="203.416091954023" type="curve" smooth="yes"/>
      <point x="384.45402298850576" y="274.58965517241376"/>
      <point x="419.79770114942534" y="332.4678160919541"/>
      <point x="490.50804597701153" y="403.9505747126437" type="curve"/>
      <point x="467.50344827586207" y="410.90344827586205" type="line"/>
      <point x="440.21494252873566" y="345.5011494252874"/>
      <point x="426.16551724137935" y="277.6287356321839"/>
      <point x="426.16551724137935" y="209.33908045977012" type="curve" smooth="yes"/>
      <point x="426.16551724137935" y="125.02758620689654"/>
      <point x="446.99885057471266" y="46.48275862068965"/>
    </contour>
    <contour>
      <point x="4.12183908045977" y="564.4827586206897" type="line"/>
      <point x="618.5229885057471" y="564.4827586206897" type="line"/>
      <point x="584.8551724137931" y="622.0" type="line"/>
      <point x="-29.188505747126438" y="622.0" type="line"/>
    </contour>
    <contour>
      <point x="460.3436781609196" y="608.1379310344828" type="curve"/>
      <point x="507.0252873563219" y="608.1379310344828" type="line"/>
      <point x="495.2816091954023" y="738.7241379310345"/>
      <point x="454.06206896551726" y="809.7356321839081"/>
      <point x="346.2436781609195" y="809.7356321839081" type="curve" smooth="yes"/>
      <point x="295.52413793103455" y="809.7356321839081"/>
      <point x="257.632183908046" y="799.5310344827586"/>
      <point x="198.1494252873563" y="799.5310344827586" type="curve" smooth="yes"/>
      <point x="120.53563218390806" y="799.5310344827586"/>
      <point x="86.27701149425287" y="814.7655172413794"/>
      <point x="86.27701149425287" y="889.2781609195403" type="curve" smooth="yes"/>
      <point x="86.27701149425287" y="896.648275862069"/>
      <point x="86.37816091954024" y="906.7517241379311"/>
      <point x="87.91954022988506" y="916.9356321839081" type="curve"/>
      <point x="46.52528735632183" y="921.312643678161" type="line"/>
      <point x="42.9735632183908" y="902.1080459770114"/>
      <point x="41.33103448275862" y="883.9919540229885"/>
      <point x="41.33103448275862" y="865.6206896551724" type="curve" smooth="yes"/>
      <point x="41.33103448275862" y="763.8862068965518"/>
      <point x="95.24597701149426" y="705.687356321839"/>
      <point x="202.76896551724138" y="705.687356321839" type="curve" smooth="yes"/>
      <point x="270.2126436781609" y="705.687356321839"/>
      <point x="324.88620689655176" y="717.167816091954"/>
      <point x="370.4850574712644" y="717.167816091954" type="curve" smooth="yes"/>
      <point x="428.80689655172415" y="717.167816091954"/>
      <point x="451.6" y="685.3448275862069"/>
    </contour>
  </outline>
</glyph>
<glyph name="u-beng" format="2">
  <advance width="562.6379310344828"/>
  <unicode hex="0989"/>
  <anchor x="429.3034482758621" y="24.54712643678161" name="bottom"/>
  <anchor x="477.2402298850575" y="-7.093103448275862" name="bottom.rakaar"/>
  <anchor x="410.5241379310345" y="49.640229885057465" name="bottom.rvocalic"/>
  <anchor x="355.5885057471264" y="10.329885057471264" name="bottom.virama"/>
  <anchor x="336.07701149425293" y="613.7908045977011" name="top"/>
  <anchor x="280.49770114942527" y="619.6080459770116" name="topright"/>
  <anchor x="281.1862068965517" y="0.0" name="vedic"/>
  <anchor x="302.85057471264366" y="-74.6896551724138" name="nukta"/>
  <outline>
    <contour>
      <point x="444.53103448275857" y="608.1379310344828" type="curve"/>
      <point x="491.11149425287357" y="608.1379310344828" type="line"/>
      <point x="479.9436781609196" y="738.9287356321839"/>
      <point x="436.39540229885057" y="807.4689655172414"/>
      <point x="333.2586206896552" y="807.4689655172414" type="curve" smooth="yes"/>
      <point x="285.083908045977" y="807.4689655172414"/>
      <point x="248.77011494252875" y="798.3678160919541"/>
      <point x="195.29540229885058" y="798.3678160919541" type="curve" smooth="yes"/>
      <point x="117.35632183908045" y="798.3678160919541"/>
      <point x="84.09655172413794" y="816.1206896551724"/>
      <point x="84.09655172413794" y="883.6896551724137" type="curve" smooth="yes"/>
      <point x="84.09655172413794" y="892.5160919540231"/>
      <point x="84.63793103448276" y="904.6804597701149"/>
      <point x="86.00459770114944" y="916.4954022988505" type="curve"/>
      <point x="43.345977011494256" y="921.0471264367816" type="line"/>
      <point x="39.794252873563224" y="900.7701149425287"/>
      <point x="38.5183908045977" y="882.5528735632183"/>
      <point x="38.5183908045977" y="862.56091954023" type="curve" smooth="yes"/>
      <point x="38.5183908045977" y="763.4459770114942"/>
      <point x="92.16781609195402" y="706.1448275862068"/>
      <point x="199.51724137931035" y="706.1448275862068" type="curve" smooth="yes"/>
      <point x="263.2597701149425" y="706.1448275862068"/>
      <point x="312.38505747126436" y="716.4206896551724"/>
      <point x="353.15862068965515" y="716.4206896551724" type="curve" smooth="yes"/>
      <point x="411.167816091954" y="716.4206896551724"/>
      <point x="435.1724137931035" y="685.2712643678161"/>
    </contour>
    <component base="dda-beng"/>
  </outline>
</glyph>
<glyph name="uu-beng" format="2">
  <advance width="630.3793103448277"/>
  <unicode hex="098A"/>
  <anchor x="493.3080459770115" y="22.689655172413794" name="bottom"/>
  <anchor x="541.2448275862068" y="-8.482758620689655" name="bottom.rakaar"/>
  <anchor x="474.4275862068966" y="47.51724137931034" name="bottom.rvocalic"/>
  <anchor x="418.85977011494253" y="8.482758620689655" name="bottom.virama"/>
  <anchor x="379.59999999999997" y="614.5172413793103" name="top"/>
  <anchor x="355.148275862069" y="619.2413793103449" name="topright"/>
  <anchor x="315.1390804597701" y="0.0" name="vedic"/>
  <outline>
    <contour>
      <point x="393.851724137931" y="36.88735632183908" type="curve" smooth="yes"/>
      <point x="530.3770114942529" y="36.88735632183908"/>
      <point x="598.232183908046" y="131.30689655172415"/>
      <point x="598.232183908046" y="257.1816091954023" type="curve" smooth="yes"/>
      <point x="598.232183908046" y="356.5"/>
      <point x="562.3287356321838" y="425.86436781609194"/>
      <point x="508.41494252873565" y="475.2436781609195" type="curve"/>
      <point x="471.0252873563218" y="408.5402298850575"/>
      <point x="418.90344827586205" y="354.9022988505747"/>
      <point x="372.24252873563216" y="354.9022988505747" type="curve" smooth="yes"/>
      <point x="354.6264367816092" y="354.9022988505747"/>
      <point x="343.1551724137931" y="364.1758620689655"/>
      <point x="343.1551724137931" y="383.45402298850576" type="curve" smooth="yes"/>
      <point x="343.1551724137931" y="564.4827586206897" type="line"/>
      <point x="659.567816091954" y="564.4827586206897" type="line"/>
      <point x="624.716091954023" y="622.0" type="line"/>
      <point x="-29.188505747126438" y="622.0" type="line"/>
      <point x="5.296551724137931" y="564.4827586206897" type="line"/>
      <point x="280.59999999999997" y="564.4827586206897" type="line"/>
      <point x="280.59999999999997" y="380.9241379310345" type="line" smooth="yes"/>
      <point x="280.59999999999997" y="344.51149425287355"/>
      <point x="290.9528735632184" y="317.56206896551726"/>
      <point x="312.88275862068963" y="296.44827586206895" type="curve" smooth="yes"/>
      <point x="332.44712643678156" y="277.416091954023"/>
      <point x="358.71034482758625" y="265.49540229885054"/>
      <point x="389.59080459770115" y="265.49540229885054" type="curve" smooth="yes"/>
      <point x="446.6149425287357" y="265.49540229885054"/>
      <point x="509.95517241379315" y="312.57931034482755"/>
      <point x="550.5298850574712" y="381.23448275862063" type="curve"/>
      <point x="508.37471264367815" y="372.67241379310343" type="line"/>
      <point x="531.5505747126438" y="353.52298850574715"/>
      <point x="544.8724137931034" y="326.60459770114943"/>
      <point x="544.8724137931034" y="278.6620689655173" type="curve" smooth="yes"/>
      <point x="544.8724137931034" y="194.53563218390806"/>
      <point x="493.0011494252874" y="137.7126436781609"/>
      <point x="406.3022988505747" y="136.16206896551725" type="curve" smooth="yes"/>
      <point x="263.7816091954023" y="133.51954022988505"/>
      <point x="217.3448275862069" y="288.3126436781609"/>
      <point x="163.33793103448275" y="499.6919540229885" type="curve"/>
      <point x="120.02528735632184" y="487.0390804597701" type="line"/>
      <point x="156.9977011494253" y="307.17471264367816"/>
      <point x="192.6448275862069" y="194.716091954023"/>
      <point x="260.74712643678157" y="125.58850574712643" type="curve"/>
      <point x="291.3425287356322" y="125.79540229885058" type="line"/>
      <point x="193.54252873563217" y="157.3471264367816"/>
      <point x="123.03218390804598" y="277.62068965517244"/>
      <point x="62.29080459770115" y="498.0367816091954" type="curve"/>
      <point x="18.978160919540233" y="485.4850574712644" type="line"/>
      <point x="84.96551724137932" y="179.72643678160918"/>
      <point x="208.44137931034484" y="36.88735632183908"/>
    </contour>
    <contour>
      <point x="512.2712643678161" y="608.1379310344828" type="curve"/>
      <point x="558.687356321839" y="608.1379310344828" type="line"/>
      <point x="546.5942528735632" y="738.7241379310345"/>
      <point x="496.7574712643678" y="812.8344827586208"/>
      <point x="387.89195402298856" y="812.8344827586208" type="curve" smooth="yes"/>
      <point x="322.81494252873557" y="812.8344827586208"/>
      <point x="278.40804597701145" y="794.7425287356322"/>
      <point x="195.5390804597701" y="794.7425287356322" type="curve" smooth="yes"/>
      <point x="118.50919540229884" y="794.7425287356322"/>
      <point x="89.33333333333333" y="816.2954022988506"/>
      <point x="89.33333333333333" y="883.6896551724137" type="curve" smooth="yes"/>
      <point x="89.33333333333333" y="892.6908045977011"/>
      <point x="89.87471264367817" y="904.8551724137932"/>
      <point x="91.24137931034484" y="916.6701149425288" type="curve"/>
      <point x="48.12413793103448" y="921.0471264367816" type="line"/>
      <point x="45.20574712643679" y="900.9448275862068"/>
      <point x="43.654022988505744" y="882.7275862068965"/>
      <point x="43.654022988505744" y="862.56091954023" type="curve" smooth="yes"/>
      <point x="43.654022988505744" y="760.344827586207"/>
      <point x="93.04482758620689" y="702.8689655172413"/>
      <point x="201.94022988505748" y="702.8689655172413" type="curve" smooth="yes"/>
      <point x="291.1241379310345" y="702.8689655172413"/>
      <point x="336.61149425287357" y="722.2367816091955"/>
      <point x="405.25287356321843" y="722.2367816091955" type="curve" smooth="yes"/>
      <point x="472.335632183908" y="722.2367816091955"/>
      <point x="502.54597701149424" y="685.3448275862069"/>
    </contour>
  </outline>
</glyph>
<glyph name="rVocalic-beng" format="2">
  <advance width="690.2183908045977"/>
  <unicode hex="098B"/>
  <anchor x="467.8942528735633" y="0.0" name="bottom"/>
  <anchor x="467.8942528735633" y="74.6896551724138" name="bottom.rakaar"/>
  <anchor x="397.22298850574714" y="126.70919540229883" name="bottom.rvocalic"/>
  <anchor x="449.5252873563218" y="8.206896551724139" name="bottom.virama"/>
  <anchor x="467.8942528735633" y="564.4827586206897" name="top"/>
  <anchor x="470.5275862068966" y="564.4827586206897" name="topright"/>
  <anchor x="345.0586206896552" y="0.0" name="vedic"/>
  <outline>
    <contour>
      <point x="461.5252873563219" y="-17.432183908045978" type="line"/>
      <point x="467.8942528735633" y="-15.9816091954023" type="line"/>
      <point x="467.8942528735633" y="642.6206896551724" type="line"/>
      <point x="409.8908045977012" y="680.4827586206897" type="line"/>
      <point x="405.16436781609195" y="679.2068965517242" type="line"/>
      <point x="405.16436781609195" y="459.82988505747124" type="line"/>
      <point x="412.0655172413793" y="489.3781609195402" type="line"/>
      <point x="292.1091954022989" y="447.2816091954023"/>
      <point x="185.87586206896552" y="395.07586206896553"/>
      <point x="80.75862068965517" y="325.74252873563216" type="curve"/>
      <point x="130.21264367816093" y="206.89655172413794" type="line"/>
      <point x="253.3310344827586" y="190.90574712643678"/>
      <point x="349.14137931034486" y="134.30114942528738"/>
      <point x="411.94827586206895" y="18.858620689655172" type="curve"/>
    </contour>
    <contour>
      <point x="405.16436781609195" y="74.9367816091954" type="line"/>
      <point x="416.0931034482759" y="83.90689655172415" type="line"/>
      <point x="355.1908045977012" y="220.17471264367816"/>
      <point x="248.8896551724138" y="264.7609195402299"/>
      <point x="158.48620689655175" y="289.01149425287355" type="curve"/>
      <point x="169.5367816091954" y="261.74712643678157" type="line"/>
      <point x="239.14482758620693" y="316.02298850574715"/>
      <point x="334.77701149425286" y="359.6666666666667"/>
      <point x="417.2793103448276" y="387.2597701149425" type="curve"/>
      <point x="405.16436781609195" y="408.6528735632184" type="line"/>
    </contour>
    <contour>
      <point x="131.6632183908046" y="431.3080459770115" type="curve" smooth="yes"/>
      <point x="201.1781609195402" y="431.3080459770115"/>
      <point x="280.3724137931034" y="466.0770114942529"/>
      <point x="329.06666666666666" y="545.1114942528735" type="curve"/>
      <point x="294.2632183908046" y="542.9655172413793" type="line"/>
      <point x="321.97011494252877" y="517.8942528735631"/>
      <point x="336.2287356321839" y="493.4551724137931"/>
      <point x="365.72528735632187" y="443.44827586206895" type="curve"/>
      <point x="403.48735632183906" y="453.2758620689655" type="line"/>
      <point x="371.19425287356324" y="533.5275862068964"/>
      <point x="335.2701149425288" y="588.8505747126436"/>
      <point x="290.4563218390805" y="626.5747126436781" type="curve"/>
      <point x="240.3609195402299" y="543.4172413793104"/>
      <point x="175.88275862068966" y="514.0505747126437"/>
      <point x="135.59425287356322" y="514.0505747126437" type="curve" smooth="yes"/>
      <point x="124.34482758620689" y="514.0505747126437"/>
      <point x="110.80344827586208" y="517.1241379310344"/>
      <point x="103.91149425287357" y="520.1057471264368" type="curve"/>
      <point x="135.09425287356325" y="482.38850574712643" type="line"/>
      <point x="152.28045977011496" y="498.66436781609195"/>
      <point x="158.1896551724138" y="513.4816091954023"/>
      <point x="158.1896551724138" y="539.767816091954" type="curve" smooth="yes"/>
      <point x="158.1896551724138" y="575.0436781609196"/>
      <point x="135.38045977011495" y="601.9747126436782"/>
      <point x="93.82298850574712" y="601.9747126436782" type="curve" smooth="yes"/>
      <point x="50.147126436781605" y="601.9747126436782"/>
      <point x="24.4183908045977" y="573.9620689655173"/>
      <point x="24.4183908045977" y="527.1241379310345" type="curve" smooth="yes"/>
      <point x="24.4183908045977" y="461.7793103448276"/>
      <point x="77.37471264367815" y="431.3080459770115"/>
    </contour>
    <contour>
      <point x="611.1977011494254" y="77.55057471264367" type="line"/>
      <point x="616.3" y="78.82643678160919" type="line"/>
      <point x="616.3" y="564.4827586206897" type="line"/>
      <point x="719.4068965517241" y="564.4827586206897" type="line"/>
      <point x="684.5643678160919" y="622.0" type="line"/>
      <point x="613.3701149425287" y="622.0" type="line"/>
      <point x="608.1758620689656" y="668.3103448275862" type="line"/>
      <point x="558.7747126436782" y="702.1379310344828" type="line"/>
      <point x="553.9471264367817" y="700.5862068965517" type="line"/>
      <point x="553.9471264367817" y="170.71954022988504" type="line"/>
      <point x="564.8758620689655" y="179.7632183908046" type="line"/>
      <point x="533.1896551724138" y="253.58505747126432"/>
      <point x="490.7942528735632" y="302.7137931034483"/>
      <point x="441.76206896551724" y="339.32528735632184" type="curve"/>
      <point x="434.99655172413793" y="257.4850574712643" type="line"/>
      <point x="487.4827586206897" y="225.80919540229888"/>
      <point x="526.9091954022988" y="177.52183908045976"/>
      <point x="560.7310344827587" y="113.84137931034483" type="curve"/>
    </contour>
  </outline>
</glyph>
<glyph name="lVocalic-beng" format="2">
  <advance width="484.4264367816092"/>
  <unicode hex="098C"/>
  <anchor x="354.84137931034485" y="564.4827586206897" name="top"/>
  <anchor x="241.9425287356322" y="0.0" name="vedic"/>
  <outline>
    <contour>
      <point x="278.5965517241379" y="10.551724137931032" type="line"/>
      <point x="369.6908045977011" y="30.620689655172413"/>
      <point x="462.6287356321839" y="131.81839080459773"/>
      <point x="462.6287356321839" y="280.3126436781609" type="curve" smooth="yes"/>
      <point x="462.6287356321839" y="423.519540229885"/>
      <point x="397.0229885057471" y="472.39540229885057"/>
      <point x="258.2229885057471" y="506.7977011494253" type="curve" smooth="yes"/>
      <point x="177.22988505747128" y="527.2103448275863"/>
      <point x="120.59999999999998" y="543.8241379310344"/>
      <point x="120.59999999999998" y="618.183908045977" type="curve" smooth="yes"/>
      <point x="120.59999999999998" y="646.0103448275861"/>
      <point x="127.39655172413791" y="671.7241379310345"/>
      <point x="137.67241379310343" y="698.2758620689655" type="curve"/>
      <point x="95.90344827586208" y="712.8275862068965" type="line"/>
      <point x="78.85747126436782" y="676.9413793103448"/>
      <point x="65.98850574712642" y="631.1816091954023"/>
      <point x="65.98850574712642" y="588.6034482758621" type="curve" smooth="yes"/>
      <point x="65.98850574712642" y="475.4229885057471"/>
      <point x="129.1712643678161" y="438.3195402298851"/>
      <point x="248.00229885057473" y="411.44827586206895" type="curve" smooth="yes"/>
      <point x="348.5574712643678" y="388.1275862068965"/>
      <point x="409.0183908045977" y="368.5183908045977"/>
      <point x="409.0183908045977" y="258.02183908045976" type="curve" smooth="yes"/>
      <point x="409.0183908045977" y="186.6425287356322"/>
      <point x="372.04137931034484" y="116.24252873563218"/>
      <point x="320.9425287356322" y="103.80689655172415" type="curve"/>
      <point x="352.7344827586207" y="83.24137931034483" type="line"/>
      <point x="353.6333333333333" y="202.0344827586207"/>
      <point x="306.583908045977" y="317.7586206896552"/>
      <point x="189.7137931034483" y="317.7586206896552" type="curve" smooth="yes"/>
      <point x="96.05057471264368" y="317.7586206896552"/>
      <point x="47.57816091954024" y="249.2712643678161"/>
      <point x="47.57816091954024" y="167.8896551724138" type="curve" smooth="yes"/>
      <point x="47.57816091954024" y="75.56091954022989"/>
      <point x="94.59425287356322" y="27.72413793103448"/>
      <point x="154.2471264367816" y="27.72413793103448" type="curve" smooth="yes"/>
      <point x="201.82413793103447" y="27.72413793103448"/>
      <point x="223.28620689655173" y="62.8"/>
      <point x="223.28620689655173" y="100.58620689655173" type="curve" smooth="yes"/>
      <point x="223.28620689655173" y="140.89425287356323"/>
      <point x="195.55747126436782" y="167.44827586206895"/>
      <point x="159.10114942528736" y="167.44827586206895" type="curve" smooth="yes"/>
      <point x="126.70919540229886" y="167.44827586206895"/>
      <point x="98.01609195402298" y="143.3448275862069"/>
      <point x="97.65862068965518" y="113.41379310344827" type="curve"/>
      <point x="140.1379310344828" y="113.39195402298851" type="line"/>
      <point x="120.04367816091953" y="121.48275862068965"/>
      <point x="104.32758620689656" y="141.03218390804597"/>
      <point x="104.32758620689656" y="175.3793103448276" type="curve" smooth="yes"/>
      <point x="104.32758620689656" y="212.83793103448275"/>
      <point x="130.49540229885056" y="243.55172413793105"/>
      <point x="174.57241379310344" y="243.55172413793105" type="curve" smooth="yes"/>
      <point x="249.03333333333333" y="243.55172413793105"/>
      <point x="275.13793103448273" y="150.97816091954022"/>
      <point x="275.13793103448273" y="64.44827586206897" type="curve" smooth="yes"/>
      <point x="275.13793103448273" y="47.10114942528735"/>
      <point x="274.40344827586205" y="30.65287356321839"/>
      <point x="272.2287356321839" y="14.827586206896552" type="curve"/>
    </contour>
  </outline>
</glyph>
<glyph name="e-beng" format="2">
  <advance width="599.9252873563219"/>
  <unicode hex="098F"/>
  <anchor x="534.5586206896552" y="0.0" name="bottom"/>
  <anchor x="534.5586206896552" y="0.7931034482758617" name="bottom.rvocalic"/>
  <anchor x="516.5563218390805" y="6.551724137931035" name="bottom.virama"/>
  <anchor x="447.6908045977012" y="564.4827586206897" name="top"/>
  <anchor x="450.6908045977012" y="564.4827586206897" name="topright"/>
  <anchor x="299.59540229885056" y="0.0" name="vedic"/>
  <outline>
    <contour>
      <point x="527.0264367816093" y="-17.413793103448278" type="line"/>
      <point x="533.3954022988506" y="-16.13793103448276" type="line"/>
      <point x="533.3954022988506" y="503.1965517241379" type="line" smooth="yes"/>
      <point x="533.3954022988506" y="581.5885057471264"/>
      <point x="493.7252873563218" y="632.2758620689655"/>
      <point x="417.54942528735626" y="632.2758620689655" type="curve" smooth="yes"/>
      <point x="298.37011494252874" y="632.2758620689655"/>
      <point x="194.00574712643677" y="501.41379310344826"/>
      <point x="194.00574712643677" y="387.44827586206895" type="curve" smooth="yes"/>
      <point x="194.00574712643677" y="309.7931034482759"/>
      <point x="239.0770114942529" y="268.41379310344826"/>
      <point x="297.74827586206897" y="266.6896551724138" type="curve" smooth="yes"/>
      <point x="359.6448275862069" y="264.9655172413793"/>
      <point x="390.4045977011494" y="303.07011494252873"/>
      <point x="390.4045977011494" y="351.82758620689657" type="curve" smooth="yes"/>
      <point x="390.4045977011494" y="394.3103448275862"/>
      <point x="365.5735632183908" y="430.7586206896552"/>
      <point x="318.14827586206894" y="430.7586206896552" type="curve" smooth="yes"/>
      <point x="299.58505747126435" y="430.7586206896552"/>
      <point x="276.867816091954" y="422.2068965517241"/>
      <point x="265.5908045977011" y="400.7586206896552" type="curve"/>
      <point x="295.28965517241375" y="398.6551724137931" type="line"/>
      <point x="294.57471264367814" y="469.46896551724143"/>
      <point x="363.2977011494253" y="570.7471264367815"/>
      <point x="422.25287356321843" y="570.7471264367815" type="curve" smooth="yes"/>
      <point x="461.1954022988506" y="570.7471264367815"/>
      <point x="470.66551724137935" y="540.7816091954022"/>
      <point x="470.66551724137935" y="499.71264367816093" type="curve" smooth="yes"/>
      <point x="470.66551724137935" y="198.79310344827587" type="line" smooth="yes"/>
      <point x="470.66551724137935" y="162.2045977011494"/>
      <point x="472.85977011494253" y="120.47356321839081"/>
      <point x="477.228735632184" y="85.02298850574714" type="curve"/>
      <point x="442.1091954022989" y="153.71494252873563"/>
      <point x="403.6390804597701" y="173.73333333333332"/>
      <point x="348.7390804597701" y="173.73333333333332" type="curve" smooth="yes"/>
      <point x="299.416091954023" y="173.73333333333332"/>
      <point x="272.17011494252876" y="165.5390804597701"/>
      <point x="208.24137931034483" y="165.5390804597701" type="curve" smooth="yes"/>
      <point x="141.93103448275863" y="165.5390804597701"/>
      <point x="91.73333333333335" y="198.61724137931034"/>
      <point x="91.73333333333335" y="284.43448275862073" type="curve" smooth="yes"/>
      <point x="91.73333333333335" y="318.7011494252874"/>
      <point x="95.82413793103449" y="346.44367816091955"/>
      <point x="101.8344827586207" y="370.83333333333337" type="curve"/>
      <point x="56.148275862068964" y="379.56896551724134" type="line"/>
      <point x="47.76896551724138" y="345.9022988505747"/>
      <point x="41.49310344827586" y="304.2643678160919"/>
      <point x="41.49310344827586" y="262.21494252873566" type="curve" smooth="yes"/>
      <point x="41.49310344827586" y="113.1896551724138"/>
      <point x="123.64827586206896" y="65.68390804597702"/>
      <point x="212.86436781609197" y="65.68390804597702" type="curve" smooth="yes"/>
      <point x="278.8091954022988" y="65.68390804597702"/>
      <point x="317.0977011494253" y="79.43218390804597"/>
      <point x="377.9114942528736" y="79.43218390804597" type="curve" smooth="yes"/>
      <point x="423.84482758620686" y="79.43218390804597"/>
      <point x="450.2183908045977" y="65.69885057471264"/>
      <point x="481.04022988505756" y="16.526436781609195" type="curve"/>
    </contour>
  </outline>
</glyph>
<glyph name="ai-beng" format="2">
  <advance width="700.3241379310346"/>
  <unicode hex="0990"/>
  <anchor x="470.5689655172414" y="600.8275862068965" name="top"/>
  <anchor x="433.90919540229885" y="601.1724137931035" name="topright"/>
  <anchor x="350.0241379310345" y="0.0" name="vedic"/>
  <anchor x="534.5586206896552" y="0.0" name="bottom"/>
  <anchor x="534.5586206896552" y="0.7931034482758617" name="bottom.rvocalic"/>
  <anchor x="516.5563218390805" y="6.551724137931035" name="bottom.virama"/>
  <outline>
    <contour>
      <point x="523.6471264367817" y="325.95402298850576" type="line"/>
      <point x="580.2827586206897" y="379.8896551724138"/>
      <point x="635.4896551724138" y="454.7103448275862"/>
      <point x="635.4896551724138" y="566.9045977011496" type="curve" smooth="yes"/>
      <point x="635.4896551724138" y="735.8666666666668"/>
      <point x="509.40000000000003" y="760.1390804597701"/>
      <point x="389.37011494252874" y="778.4528735632183" type="curve" smooth="yes"/>
      <point x="289.5068965517241" y="793.7310344827587"/>
      <point x="212.03448275862067" y="807.0091954022988"/>
      <point x="212.03448275862067" y="894.1367816091954" type="curve" smooth="yes"/>
      <point x="212.03448275862067" y="922.4114942528736"/>
      <point x="218.5758620689655" y="951.871264367816"/>
      <point x="228.93563218390807" y="976.4965517241379" type="curve"/>
      <point x="186.47471264367817" y="991.6735632183908" type="line"/>
      <point x="168.83793103448278" y="953.1816091954023"/>
      <point x="158.93793103448277" y="910.6390804597702"/>
      <point x="158.93793103448277" y="871.4689655172414" type="curve" smooth="yes"/>
      <point x="158.93793103448277" y="735.7781609195401"/>
      <point x="268.09770114942535" y="713.2252873563218"/>
      <point x="382.0586206896552" y="697.3425287356322" type="curve" smooth="yes"/>
      <point x="493.344827586207" y="682.3126436781608"/>
      <point x="588.183908045977" y="668.3931034482758"/>
      <point x="588.183908045977" y="555.8229885057472" type="curve" smooth="yes"/>
      <point x="588.183908045977" y="485.03908045977016"/>
      <point x="554.7448275862068" y="437.22298850574714"/>
      <point x="501.9183908045977" y="394.02758620689656" type="curve"/>
    </contour>
    <component base="e-beng"/>
  </outline>
</glyph>
<glyph name="o-beng" format="2">
  <advance width="639.3666666666667"/>
  <unicode hex="0993"/>
  <anchor x="481.73563218390797" y="29.648275862068967" name="bottom"/>
  <anchor x="529.1206896551723" y="-0.7241379310344827" name="bottom.rakaar"/>
  <anchor x="463.6724137931035" y="53.82298850574713" name="bottom.rvocalic"/>
  <anchor x="409.0229885057471" y="15.413793103448276" name="bottom.virama"/>
  <anchor x="412.5609195402299" y="557.8896551724138" name="top"/>
  <anchor x="415.19425287356324" y="557.8896551724138" name="topright"/>
  <anchor x="319.40344827586205" y="0.0" name="vedic"/>
  <outline>
    <contour>
      <point x="394.23908045977015" y="48.37931034482759" type="curve" smooth="yes"/>
      <point x="528.4" y="48.37931034482759"/>
      <point x="596.2620689655172" y="131.69310344827585"/>
      <point x="596.2620689655172" y="235.98620689655175" type="curve" smooth="yes"/>
      <point x="596.2620689655172" y="341.74712643678157"/>
      <point x="514.2206896551725" y="418.6022988505747"/>
      <point x="439.316091954023" y="418.6022988505747" type="curve" smooth="yes"/>
      <point x="396.9896551724138" y="418.6022988505747"/>
      <point x="368.5609195402299" y="391.6091954022989"/>
      <point x="368.5609195402299" y="346.7218390804598" type="curve" smooth="yes"/>
      <point x="368.5609195402299" y="302.41379310344826"/>
      <point x="395.1264367816092" y="272.85977011494253"/>
      <point x="441.051724137931" y="272.85977011494253" type="curve" smooth="yes"/>
      <point x="514.6229885057471" y="272.85977011494253"/>
      <point x="575.0735632183909" y="384.74367816091956"/>
      <point x="575.0735632183909" y="481.13563218390806" type="curve" smooth="yes"/>
      <point x="575.0735632183909" y="570.7908045977011"/>
      <point x="518.6045977011494" y="630.7241379310345"/>
      <point x="416.9436781609195" y="630.7241379310345" type="curve" smooth="yes"/>
      <point x="285.6908045977011" y="630.7241379310345"/>
      <point x="172.88275862068966" y="529.7724137931034"/>
      <point x="172.88275862068966" y="419.6505747126437" type="curve" smooth="yes"/>
      <point x="172.88275862068966" y="352.43563218390807"/>
      <point x="212.25517241379313" y="318.78045977011493"/>
      <point x="258.6218390804598" y="318.78045977011493" type="curve" smooth="yes"/>
      <point x="304.54137931034484" y="318.78045977011493"/>
      <point x="334.53563218390804" y="346.08045977011494"/>
      <point x="334.53563218390804" y="396.9816091954023" type="curve" smooth="yes"/>
      <point x="334.53563218390804" y="436.74827586206897"/>
      <point x="311.0735632183908" y="464.9229885057471"/>
      <point x="276.2793103448276" y="464.9229885057471" type="curve" smooth="yes"/>
      <point x="257.90574712643684" y="464.9229885057471"/>
      <point x="236.92298850574713" y="457.716091954023"/>
      <point x="225.84137931034482" y="441.6229885057471" type="curve"/>
      <point x="275.27241379310345" y="425.935632183908" type="line"/>
      <point x="283.3735632183908" y="508.01839080459774"/>
      <point x="355.7045977011494" y="572.5448275862069"/>
      <point x="436.83218390804603" y="572.5448275862069" type="curve" smooth="yes"/>
      <point x="486.632183908046" y="572.5448275862069"/>
      <point x="510.11839080459765" y="545.2390804597701"/>
      <point x="510.11839080459765" y="502.8712643678161" type="curve" smooth="yes"/>
      <point x="510.11839080459765" y="455.3528735632184"/>
      <point x="482.6471264367816" y="419.5770114942529"/>
      <point x="441.37586206896555" y="392.70344827586206" type="curve"/>
      <point x="457.1862068965517" y="346.20229885057466" type="line"/>
      <point x="491.01839080459774" y="346.65287356321835"/>
      <point x="539.393103448276" y="319.29655172413794"/>
      <point x="539.393103448276" y="258.1252873563218" type="curve" smooth="yes"/>
      <point x="539.393103448276" y="194.49080459770113"/>
      <point x="490.9229885057472" y="146.68735632183908"/>
      <point x="396.49310344827586" y="146.68735632183908" type="curve" smooth="yes"/>
      <point x="257.66091954022994" y="146.68735632183908"/>
      <point x="139.99655172413793" y="244.33103448275864"/>
      <point x="62.178160919540225" y="546.2333333333332" type="curve"/>
      <point x="17.581609195402297" y="534.4045977011494" type="line"/>
      <point x="88.44137931034483" y="192.07816091954024"/>
      <point x="232.31724137931036" y="48.37931034482759"/>
    </contour>
  </outline>
</glyph>
<glyph name="au-beng" format="2">
  <advance width="715.0206896551724"/>
  <unicode hex="0994"/>
  <anchor x="526.2758620689655" y="30.172413793103445" name="bottom"/>
  <anchor x="577.3103448275862" y="-1.0" name="bottom.rakaar"/>
  <anchor x="504.2068965517241" y="54.72413793103448" name="bottom.rvocalic"/>
  <anchor x="443.3793103448276" y="15.689655172413794" name="bottom.virama"/>
  <anchor x="548.2068965517242" y="600.8275862068965" name="top"/>
  <anchor x="490.82758620689657" y="601.1724137931035" name="topright"/>
  <anchor x="357.5103448275862" y="0.0" name="vedic"/>
  <outline>
    <contour>
      <point x="538.3436781609196" y="327.8758620689655" type="line"/>
      <point x="595.0804597701149" y="381.8114942528736"/>
      <point x="650.1862068965518" y="455.7586206896551"/>
      <point x="650.1862068965518" y="567.7126436781609" type="curve" smooth="yes"/>
      <point x="650.1862068965518" y="736.4241379310346"/>
      <point x="521.9045977011493" y="760.5977011494253"/>
      <point x="403.99310344827586" y="778.4528735632183" type="curve" smooth="yes"/>
      <point x="308.4977011494253" y="793.032183908046"/>
      <point x="226.83218390804598" y="805.6114942528735"/>
      <point x="226.83218390804598" y="894.1367816091954" type="curve" smooth="yes"/>
      <point x="226.83218390804598" y="922.4114942528736"/>
      <point x="233.3735632183908" y="951.871264367816"/>
      <point x="243.632183908046" y="976.4965517241379" type="curve"/>
      <point x="201.1712643678161" y="991.6735632183908" type="line"/>
      <point x="183.63563218390806" y="953.1816091954023"/>
      <point x="173.73563218390805" y="910.6390804597702"/>
      <point x="173.73563218390805" y="871.4689655172414" type="curve" smooth="yes"/>
      <point x="173.73563218390805" y="735.7781609195401"/>
      <point x="282.89540229885057" y="713.2252873563218"/>
      <point x="396.3977011494253" y="697.3425287356322" type="curve" smooth="yes"/>
      <point x="504.1241379310345" y="682.2034482758621"/>
      <point x="602.9816091954024" y="669.616091954023"/>
      <point x="602.9816091954024" y="555.4735632183908" type="curve" smooth="yes"/>
      <point x="602.9816091954024" y="479.2298850574713"/>
      <point x="568.9091954022989" y="433.02988505747123"/>
      <point x="516.2574712643677" y="389.65977011494255" type="curve"/>
    </contour>
    <component base="o-beng"/>
  </outline>
</glyph>
<glyph name="ka-beng" format="2">
  <advance width="655.8735632183908"/>
  <unicode hex="0995"/>
  <anchor x="400.5252873563218" y="31.103448275862068" name="bottom"/>
  <anchor x="403.78620689655173" y="60.01379310344827" name="bottom.rakaar"/>
  <anchor x="405.68275862068964" y="10.560919540229884" name="bottom.rvocalic"/>
  <anchor x="390.92988505747127" y="1.678160919540229" name="bottom.virama"/>
  <anchor x="187.70114942528735" y="63.88735632183907" name="nukta"/>
  <anchor x="396.5264367816092" y="573.5862068965517" name="top"/>
  <anchor x="398.883908045977" y="570.2758620689655" name="topright"/>
  <anchor x="327.4367816091954" y="0.0" name="vedic"/>
  <outline>
    <contour>
      <point x="399.3137931034483" y="-16.03448275862069" type="line"/>
      <point x="405.68275862068964" y="-14.758620689655173" type="line"/>
      <point x="405.68275862068964" y="441.9436781609195" type="line"/>
      <point x="390.7632183908046" y="418.21839080459773" type="line"/>
      <point x="395.67241379310343" y="419.9528735632184"/>
      <point x="401.77471264367813" y="420.9528735632184"/>
      <point x="406.41839080459766" y="420.9528735632184" type="curve" smooth="yes"/>
      <point x="515.8206896551724" y="420.9528735632184"/>
      <point x="582.1816091954023" y="351.0632183908046"/>
      <point x="582.1816091954023" y="280.6344827586207" type="curve" smooth="yes"/>
      <point x="582.1816091954023" y="265.26781609195405"/>
      <point x="578.8241379310344" y="255.99195402298852"/>
      <point x="570.7218390804597" y="243.98160919540229" type="curve"/>
      <point x="590.2080459770115" y="242.88275862068966" type="line"/>
      <point x="582.2183908045978" y="284.26206896551724"/>
      <point x="559.480459770115" y="303.73333333333335"/>
      <point x="525.2804597701149" y="303.73333333333335" type="curve" smooth="yes"/>
      <point x="483.7436781609195" y="303.73333333333335"/>
      <point x="459.5540229885057" y="272.36551724137934"/>
      <point x="459.5540229885057" y="231.7816091954023" type="curve" smooth="yes"/>
      <point x="459.5540229885057" y="193.02068965517242"/>
      <point x="482.9264367816092" y="154.64367816091954"/>
      <point x="535.0057471264367" y="154.64367816091954" type="curve" smooth="yes"/>
      <point x="594.4011494252874" y="154.64367816091954"/>
      <point x="626.9609195402298" y="208.3873563218391"/>
      <point x="626.9609195402298" y="284.71264367816093" type="curve" smooth="yes"/>
      <point x="626.9609195402298" y="402.12643678160924"/>
      <point x="534.9402298850574" y="509.8034482758621"/>
      <point x="392.4057471264367" y="519.9977011494252" type="curve"/>
      <point x="405.68275862068964" y="497.51724137931035" type="line"/>
      <point x="405.68275862068964" y="564.4827586206897" type="line"/>
      <point x="684.9609195402298" y="564.4827586206897" type="line"/>
      <point x="650.9264367816091" y="622.0" type="line"/>
      <point x="-29.188505747126438" y="622.0" type="line"/>
      <point x="5.020689655172414" y="564.4827586206897" type="line"/>
      <point x="342.95287356321836" y="564.4827586206897" type="line"/>
      <point x="342.95287356321836" y="491.44827586206895" type="line"/>
      <point x="350.05632183908045" y="521.1816091954022" type="line"/>
      <point x="228.4264367816092" y="476.5356321839081"/>
      <point x="125.41379310344826" y="422.50574712643675"/>
      <point x="18.050574712643677" y="346.8298850574713" type="curve"/>
      <point x="67.47701149425288" y="226.24597701149423" type="line"/>
      <point x="191.99310344827586" y="204.2712643678161"/>
      <point x="286.12988505747126" y="136.22298850574714"/>
      <point x="349.9114942528735" y="20.25632183908046" type="curve"/>
    </contour>
    <contour>
      <point x="342.95287356321836" y="77.03333333333333" type="line"/>
      <point x="353.78045977011493" y="86.87701149425288" type="line"/>
      <point x="295.42528735632186" y="217.55402298850575"/>
      <point x="192.77471264367816" y="282.1229885057472"/>
      <point x="103.41954022988506" y="307.31264367816095" type="curve"/>
      <point x="112.31839080459771" y="286.3827586206897" type="line"/>
      <point x="183.15402298850574" y="342.6218390804598"/>
      <point x="274.39655172413796" y="387.2988505747127"/>
      <point x="355.06781609195406" y="418.73333333333335" type="curve"/>
      <point x="342.95287356321836" y="443.7241379310345" type="line"/>
    </contour>
  </outline>
</glyph>
<glyph name="kha-beng" format="2">
  <advance width="567.919540229885"/>
  <unicode hex="0996"/>
  <anchor x="488.30229885057474" y="31.103448275862068" name="bottom"/>
  <anchor x="493.8999999999999" y="74.6896551724138" name="bottom.rakaar"/>
  <anchor x="493.8999999999999" y="11.52183908045977" name="bottom.rvocalic"/>
  <anchor x="475.6954022988505" y="7.094252873563219" name="bottom.virama"/>
  <anchor x="483.3195402298851" y="563.5862068965517" name="top"/>
  <anchor x="461.14597701149427" y="555.3103448275862" name="topright"/>
  <anchor x="265.7977011494253" y="0.0" name="vedic"/>
  <outline>
    <contour>
      <point x="487.8977011494253" y="-16.03448275862069" type="line"/>
      <point x="493.8999999999999" y="-14.758620689655173" type="line"/>
      <point x="493.8999999999999" y="564.4827586206897" type="line"/>
      <point x="597.1080459770114" y="564.4827586206897" type="line"/>
      <point x="562.2655172413794" y="622.0" type="line"/>
      <point x="491.071264367816" y="622.0" type="line"/>
      <point x="485.7022988505748" y="668.3103448275862" type="line"/>
      <point x="436.0988505747126" y="702.1379310344828" type="line"/>
      <point x="431.2712643678161" y="700.5862068965517" type="line"/>
      <point x="431.2712643678161" y="77.15862068965518" type="line"/>
      <point x="441.2011494252873" y="89.26206896551724" type="line"/>
      <point x="390.9747126436782" y="198.9586206896552"/>
      <point x="311.60344827586204" y="263.8597701149425"/>
      <point x="217.25172413793106" y="297.76666666666665" type="curve"/>
      <point x="226.1080459770115" y="270.5" type="line"/>
      <point x="323.8977011494253" y="291.78620689655173"/>
      <point x="375.3022988505747" y="343.9183908045977"/>
      <point x="375.3022988505747" y="442.9459770114943" type="curve" smooth="yes"/>
      <point x="375.3022988505747" y="531.4505747126437"/>
      <point x="322.664367816092" y="589.2068965517242"/>
      <point x="278.280459770115" y="626.2988505747126" type="curve"/>
      <point x="229.73218390804598" y="542.6172413793104"/>
      <point x="177.083908045977" y="500.0781609195402"/>
      <point x="134.9609195402299" y="500.0781609195402" type="curve" smooth="yes"/>
      <point x="123.6022988505747" y="500.0781609195402"/>
      <point x="112.07011494252875" y="502.7011494252873"/>
      <point x="106.16091954022988" y="506.7011494252873" type="curve"/>
      <point x="135.09425287356325" y="475.44827586206895" type="line"/>
      <point x="152.28045977011496" y="491.7241379310345"/>
      <point x="158.1896551724138" y="506.54137931034484"/>
      <point x="158.1896551724138" y="532.8275862068965" type="curve" smooth="yes"/>
      <point x="158.1896551724138" y="568.1034482758621"/>
      <point x="135.38045977011495" y="595.0344827586207"/>
      <point x="93.82298850574712" y="595.0344827586207" type="curve" smooth="yes"/>
      <point x="50.147126436781605" y="595.0344827586207"/>
      <point x="24.4183908045977" y="566.9206896551725"/>
      <point x="24.4183908045977" y="520.1839080459771" type="curve" smooth="yes"/>
      <point x="24.4183908045977" y="449.24942528735636"/>
      <point x="76.6977011494253" y="416.6758620689655"/>
      <point x="129.9022988505747" y="416.6758620689655" type="curve" smooth="yes"/>
      <point x="201.14482758620693" y="416.6758620689655"/>
      <point x="269.2586206896551" y="462.1229885057472"/>
      <point x="318.2011494252873" y="544.3298850574712" type="curve"/>
      <point x="279.9919540229885" y="542.271264367816" type="line"/>
      <point x="300.5264367816092" y="521.6758620689654"/>
      <point x="313.7942528735632" y="498.0425287356322"/>
      <point x="313.7942528735632" y="462.75172413793103" type="curve" smooth="yes"/>
      <point x="313.7942528735632" y="376.0310344827586"/>
      <point x="214.46896551724137" y="343.02758620689656"/>
      <point x="111.06321839080461" y="341.4977011494253" type="curve"/>
      <point x="151.55862068965519" y="225.85287356321837" type="line"/>
      <point x="281.7919540229885" y="209.4505747126437"/>
      <point x="373.81034482758616" y="138.56666666666666"/>
      <point x="437.5977011494253" y="22.24367816091954" type="curve"/>
    </contour>
  </outline>
</glyph>
<glyph name="ga-beng" format="2">
  <advance width="559.1264367816093"/>
  <unicode hex="0997"/>
  <anchor x="473.14942528735634" y="55.27816091954023" name="bottom"/>
  <anchor x="485.2080459770115" y="-6.310344827586207" name="bottom.rakaar"/>
  <anchor x="485.2080459770115" y="-2.2758620689655173" name="bottom.rvocalic"/>
  <anchor x="461.55632183908045" y="6.551724137931035" name="bottom.virama"/>
  <anchor x="474.82988505747136" y="563.5862068965517" name="top"/>
  <anchor x="452.6563218390805" y="555.3103448275862" name="topright"/>
  <anchor x="279.1505747126436" y="0.0" name="vedic"/>
  <outline>
    <contour>
      <point x="480.56321839080465" y="-27.758620689655174" type="line"/>
      <point x="485.2080459770115" y="-26.482758620689655" type="line"/>
      <point x="485.2080459770115" y="564.4827586206897" type="line"/>
      <point x="588.3149425287357" y="564.4827586206897" type="line"/>
      <point x="553.4724137931034" y="622.0" type="line"/>
      <point x="482.2781609195403" y="622.0" type="line"/>
      <point x="477.083908045977" y="668.3103448275862" type="line"/>
      <point x="427.68275862068964" y="702.1379310344828" type="line"/>
      <point x="422.85517241379307" y="700.5862068965517" type="line"/>
      <point x="422.85517241379307" y="575.235632183908" type="line" smooth="yes"/>
      <point x="422.85517241379307" y="526.5264367816092"/>
      <point x="426.1494252873563" y="472.0310344827586"/>
      <point x="430.3057471264368" y="432.57241379310346" type="curve"/>
      <point x="440.41839080459766" y="432.2413793103448" type="line"/>
      <point x="377.1758620689655" y="572.3471264367817"/>
      <point x="303.7057471264368" y="630.3793103448276"/>
      <point x="219.27241379310345" y="630.3793103448276" type="curve" smooth="yes"/>
      <point x="141.91724137931035" y="630.3793103448276"/>
      <point x="63.61379310344827" y="578.335632183908"/>
      <point x="6.813793103448276" y="445.82643678160923" type="curve"/>
      <point x="87.2551724137931" y="377.1540229885058" type="line"/>
      <point x="120.15287356321838" y="408.916091954023"/>
      <point x="156.8114942528736" y="427.0942528735632"/>
      <point x="193.34827586206896" y="427.0942528735632" type="curve" smooth="yes"/>
      <point x="228.82643678160917" y="427.0942528735632"/>
      <point x="246.62528735632185" y="406.28045977011493"/>
      <point x="246.62528735632185" y="375.7574712643678" type="curve" smooth="yes"/>
      <point x="246.62528735632185" y="329.30229885057474"/>
      <point x="195.99080459770116" y="292.1103448275862"/>
      <point x="114.23448275862069" y="260.1862068965517" type="curve"/>
      <point x="174.9183908045977" y="162.3103448275862" type="line"/>
      <point x="278.45402298850576" y="222.67701149425287"/>
      <point x="317.03563218390804" y="283.9816091954023"/>
      <point x="317.03563218390804" y="359.583908045977" type="curve" smooth="yes"/>
      <point x="317.03563218390804" y="429.148275862069"/>
      <point x="274.4712643678161" y="483.61954022988505"/>
      <point x="202.47931034482758" y="483.61954022988505" type="curve" smooth="yes"/>
      <point x="158.37126436781608" y="483.61954022988505"/>
      <point x="126.11149425287356" y="468.6183908045977"/>
      <point x="105.72988505747126" y="453.04942528735637" type="curve"/>
      <point x="123.8425287356322" y="440.60919540229884" type="line"/>
      <point x="152.3505747126437" y="519.3666666666668"/>
      <point x="198.00574712643677" y="547.4701149425289"/>
      <point x="240.57471264367817" y="547.4701149425289" type="curve" smooth="yes"/>
      <point x="304.95632183908043" y="547.4701149425289"/>
      <point x="366.0448275862069" y="504.0471264367816"/>
      <point x="434.48160919540226" y="351.81724137931036" type="curve"/>
      <point x="422.6528735632184" y="414.8873563218391" type="line"/>
      <point x="422.6528735632184" y="2.4482758620689653" type="line"/>
    </contour>
  </outline>
</glyph>
<glyph name="gha-beng" format="2">
  <advance width="491.98850574712645"/>
  <unicode hex="0998"/>
  <anchor x="412.9862068965518" y="31.103448275862068" name="bottom"/>
  <anchor x="416.24712643678157" y="74.6896551724138" name="bottom.rakaar"/>
  <anchor x="418.14367816091954" y="10.257471264367815" name="bottom.rvocalic"/>
  <anchor x="401.4689655172414" y="7.094252873563219" name="bottom.virama"/>
  <anchor x="408.9873563218391" y="573.5862068965517" name="top"/>
  <anchor x="411.3448275862069" y="570.2758620689655" name="topright"/>
  <anchor x="245.94367816091955" y="0.0" name="vedic"/>
  <outline>
    <contour>
      <point x="411.7747126436782" y="-16.03448275862069" type="line"/>
      <point x="418.14367816091954" y="-14.758620689655173" type="line"/>
      <point x="418.14367816091954" y="564.4827586206897" type="line"/>
      <point x="521.0758620689655" y="564.4827586206897" type="line"/>
      <point x="486.8666666666667" y="622.0" type="line"/>
      <point x="-29.188505747126438" y="622.0" type="line"/>
      <point x="5.020689655172414" y="564.4827586206897" type="line"/>
      <point x="355.41379310344826" y="564.4827586206897" type="line"/>
      <point x="355.41379310344826" y="76.15977011494253" type="line"/>
      <point x="366.34252873563213" y="85.30459770114943" type="line"/>
      <point x="314.2850574712644" y="203.00919540229887"/>
      <point x="229.3816091954023" y="260.8494252873563"/>
      <point x="108.71724137931035" y="302.2298850574712" type="curve"/>
      <point x="119.35057471264369" y="273.5747126436782" type="line"/>
      <point x="180.0344827586207" y="319.4126436781609"/>
      <point x="247.97701149425288" y="353.6137931034483"/>
      <point x="315.3436781609196" y="386.28275862068966" type="curve"/>
      <point x="271.57241379310346" y="469.17241379310343" type="line"/>
      <point x="243.14137931034483" y="448.4057471264368"/>
      <point x="213.99425287356323" y="438.68045977011496"/>
      <point x="188.20114942528738" y="438.68045977011496" type="curve" smooth="yes"/>
      <point x="150.6770114942529" y="438.68045977011496"/>
      <point x="127.61379310344829" y="462.49540229885065"/>
      <point x="127.61379310344829" y="496.18045977011496" type="curve" smooth="yes"/>
      <point x="127.61379310344829" y="541.0643678160918"/>
      <point x="159.6" y="564.4827586206897"/>
      <point x="205.2770114942529" y="574.7586206896551" type="curve"/>
      <point x="125.69885057471264" y="613.6068965517242" type="line"/>
      <point x="84.08275862068965" y="605.3264367816092"/>
      <point x="31.836781609195405" y="573.235632183908"/>
      <point x="31.836781609195405" y="508.74137931034477" type="curve" smooth="yes"/>
      <point x="31.836781609195405" y="439.183908045977"/>
      <point x="92.6919540229885" y="401.3149425287356"/>
      <point x="163.29310344827584" y="392.2344827586207" type="curve"/>
      <point x="152.65862068965518" y="409.1494252873563" type="line"/>
      <point x="114.48850574712644" y="388.4252873563218"/>
      <point x="72.94597701149426" y="365.76321839080464"/>
      <point x="33.214942528735634" y="338.02758620689656" type="curve"/>
      <point x="80.6367816091954" y="220.46436781609194" type="line"/>
      <point x="201.4977011494253" y="199.9965517241379"/>
      <point x="300.0241379310345" y="135.69885057471265"/>
      <point x="362.3724137931035" y="20.0816091954023" type="curve"/>
    </contour>
  </outline>
</glyph>
<glyph name="nga-beng" format="2">
  <advance width="560.2459770114942"/>
  <unicode hex="0999"/>
  <anchor x="378.0045977011494" y="18.308045977011492" name="bottom"/>
  <anchor x="477.9505747126437" y="-16.79080459770115" name="bottom.rakaar"/>
  <anchor x="396.9252873563218" y="9.995402298850571" name="bottom.rvocalic"/>
  <anchor x="355.6666666666667" y="0.0" name="bottom.virama"/>
  <anchor x="326.95287356321836" y="573.4850574712644" name="top"/>
  <anchor x="309.5988505747126" y="570.2758620689655" name="topright"/>
  <anchor x="279.6229885057471" y="0.0" name="vedic"/>
  <outline>
    <contour>
      <point x="334.2436781609196" y="27.2735632183908" type="curve" smooth="yes"/>
      <point x="462.31609195402297" y="27.2735632183908"/>
      <point x="530.0885057471264" y="119.56896551724138"/>
      <point x="530.0885057471264" y="248.92298850574713" type="curve" smooth="yes"/>
      <point x="530.0885057471264" y="329.3137931034483"/>
      <point x="499.1632183908047" y="395.7942528735632"/>
      <point x="455.7517241379311" y="444.5873563218391" type="curve"/>
      <point x="411.04942528735637" y="374.4919540229885"/>
      <point x="348.4080459770115" y="316.1379310344828"/>
      <point x="294.7287356321839" y="316.1379310344828" type="curve" smooth="yes"/>
      <point x="277.9206896551724" y="316.1379310344828"/>
      <point x="267.92873563218393" y="325.8724137931035"/>
      <point x="267.92873563218393" y="344.70000000000005" type="curve" smooth="yes"/>
      <point x="267.92873563218393" y="464.3781609195402" type="line" smooth="yes"/>
      <point x="267.92873563218393" y="538.6183908045977"/>
      <point x="288.28735632183907" y="575.4114942528735"/>
      <point x="327.9862068965518" y="575.4114942528735" type="curve" smooth="yes"/>
      <point x="356.583908045977" y="575.4114942528735"/>
      <point x="375.31724137931036" y="557.9908045977012"/>
      <point x="375.31724137931036" y="530.3425287356322" type="curve" smooth="yes"/>
      <point x="375.31724137931036" y="502.44367816091955"/>
      <point x="361.91954022988506" y="474.4459770114943"/>
      <point x="308.15517241379314" y="474.4459770114943" type="curve" smooth="yes"/>
      <point x="213.26666666666665" y="474.4459770114943"/>
      <point x="180.1034482758621" y="524.1712643678161"/>
      <point x="137.72988505747128" y="621.9298850574712" type="curve"/>
      <point x="96.79540229885058" y="602.551724137931" type="line"/>
      <point x="141.8850574712644" y="492.4344827586207"/>
      <point x="196.46436781609196" y="411.583908045977"/>
      <point x="307.7080459770115" y="411.583908045977" type="curve" smooth="yes"/>
      <point x="402.5241379310345" y="411.583908045977"/>
      <point x="431.635632183908" y="470.4471264367816"/>
      <point x="432.0942528735632" y="520.6206896551724" type="curve" smooth="yes"/>
      <point x="432.55287356321844" y="583.7241379310345"/>
      <point x="394.82413793103444" y="632.551724137931"/>
      <point x="324.07701149425293" y="632.551724137931" type="curve" smooth="yes"/>
      <point x="247.2390804597701" y="632.551724137931"/>
      <point x="205.3114942528736" y="575.3448275862069"/>
      <point x="205.3114942528736" y="481.41379310344826" type="curve" smooth="yes"/>
      <point x="205.3114942528736" y="340.8379310344828" type="line" smooth="yes"/>
      <point x="205.3114942528736" y="303.0977011494253"/>
      <point x="220.49770114942527" y="276.2494252873563"/>
      <point x="240.14367816091954" y="257.87011494252874" type="curve" smooth="yes"/>
      <point x="259.8724137931034" y="238.84827586206896"/>
      <point x="286.4459770114943" y="228.5816091954023"/>
      <point x="316.5448275862069" y="228.5816091954023" type="curve" smooth="yes"/>
      <point x="374.2689655172414" y="228.5816091954023"/>
      <point x="442.83333333333337" y="278.87931034482756"/>
      <point x="485.01034482758627" y="341.2356321839081" type="curve"/>
      <point x="447.696551724138" y="353.8505747126437" type="line"/>
      <point x="464.8632183908046" y="330.1241379310345"/>
      <point x="476.3149425287356" y="301.48965517241373"/>
      <point x="476.3149425287356" y="264.39080459770116" type="curve" smooth="yes"/>
      <point x="476.3149425287356" y="180.10114942528736"/>
      <point x="423.04597701149424" y="125.54597701149426"/>
      <point x="331.351724137931" y="125.54597701149426" type="curve" smooth="yes"/>
      <point x="193.71379310344827" y="125.54597701149426"/>
      <point x="119.05632183908045" y="232.20459770114942"/>
      <point x="53.08275862068965" y="492.55172413793105" type="curve"/>
      <point x="9.76896551724138" y="481.2540229885057" type="line"/>
      <point x="72.46666666666667" y="171.33218390804598"/>
      <point x="172.13908045977013" y="27.2735632183908"/>
    </contour>
  </outline>
</glyph>
<glyph name="ca-beng" format="2">
  <advance width="455.2586206896551"/>
  <unicode hex="099A"/>
  <anchor x="306.1632183908046" y="23.655172413793103" name="bottom"/>
  <anchor x="360.9402298850575" y="0.0" name="bottom.rakaar"/>
  <anchor x="309.4172413793104" y="17.733333333333334" name="bottom.rvocalic"/>
  <anchor x="240.3597701149425" y="33.51724137931034" name="bottom.virama"/>
  <anchor x="127.69425287356323" y="573.5862068965517" name="top"/>
  <anchor x="129.7862068965517" y="570.2758620689655" name="topright"/>
  <anchor x="227.44597701149422" y="0.0" name="vedic"/>
  <outline>
    <contour>
      <point x="200.17586206896553" y="24.103448275862068" type="curve" smooth="yes"/>
      <point x="334.01609195402295" y="24.103448275862068"/>
      <point x="419.65172413793107" y="208.3"/>
      <point x="419.65172413793107" y="317.3103448275862" type="curve" smooth="yes"/>
      <point x="419.65172413793107" y="362.17471264367816"/>
      <point x="383.06206896551726" y="393.7586206896552"/>
      <point x="361.2954022988506" y="406.3103448275862" type="curve"/>
      <point x="287.49655172413793" y="414.2068965517241"/>
      <point x="184.5712643678161" y="451.82643678160923"/>
      <point x="131.20689655172416" y="560.5172413793103" type="curve"/>
      <point x="131.02298850574712" y="486.832183908046" type="line"/>
      <point x="168.11954022988508" y="394.8206896551724"/>
      <point x="243.04482758620688" y="332.2643678160919"/>
      <point x="355.58045977011494" y="319.8172413793103" type="curve"/>
      <point x="329.45517241379315" y="347.6114942528735" type="line"/>
      <point x="321.9862068965517" y="211.10574712643677"/>
      <point x="249.84137931034485" y="98.57586206896552"/>
      <point x="187.54022988505747" y="98.57586206896552" type="curve" smooth="yes"/>
      <point x="156.3735632183908" y="98.57586206896552"/>
      <point x="136.57471264367817" y="115.11724137931034"/>
      <point x="136.57471264367817" y="150.17701149425287" type="curve" smooth="yes"/>
      <point x="136.57471264367817" y="564.4827586206897" type="line"/>
      <point x="484.4471264367816" y="564.4827586206897" type="line"/>
      <point x="450.5137931034483" y="622.0" type="line"/>
      <point x="-29.188505747126438" y="622.0" type="line"/>
      <point x="6.755172413793104" y="564.4827586206897" type="line"/>
      <point x="74.01954022988505" y="564.4827586206897" type="line"/>
      <point x="74.01954022988505" y="149.57011494252873" type="line" smooth="yes"/>
      <point x="74.01954022988505" y="73.98505747126437"/>
      <point x="130.95287356321842" y="24.103448275862068"/>
    </contour>
  </outline>
</glyph>
<glyph name="cha-beng" format="2">
  <advance width="498.56666666666666"/>
  <unicode hex="099B"/>
  <anchor x="298.6137931034483" y="43.53103448275862" name="bottom"/>
  <anchor x="415.6494252873563" y="-107.49885057471265" name="bottom.rakaar"/>
  <anchor x="363.2356321839081" y="36.53563218390804" name="bottom.rvocalic"/>
  <anchor x="288.57011494252873" y="38.46666666666667" name="bottom.virama"/>
  <anchor x="108.12528735632185" y="573.5862068965517" name="top"/>
  <anchor x="110.21724137931035" y="570.2758620689655" name="topright"/>
  <anchor x="248.96666666666667" y="0.0" name="vedic"/>
  <outline>
    <contour>
      <point x="481.74712643678157" y="-99.59540229885057" type="curve"/>
      <point x="512.7816091954023" y="-64.38850574712644" type="line"/>
      <point x="433.7793103448276" y="19.39080459770115"/>
      <point x="329.6735632183908" y="109.39080459770115"/>
      <point x="225.05172413793105" y="135.9505747126437" type="curve"/>
      <point x="204.41724137931035" y="108.59310344827585" type="line"/>
      <point x="217.33103448275864" y="102.92413793103448"/>
      <point x="238.73908045977012" y="101.1977011494253"/>
      <point x="261.2091954022989" y="101.1977011494253" type="curve" smooth="yes"/>
      <point x="365.9057471264368" y="101.1977011494253"/>
      <point x="454.3574712643678" y="170.03563218390806"/>
      <point x="454.3574712643678" y="304.3402298850575" type="curve" smooth="yes"/>
      <point x="454.3574712643678" y="416.9183908045977"/>
      <point x="373.82413793103456" y="492.72298850574714"/>
      <point x="274.87931034482756" y="492.72298850574714" type="curve" smooth="yes"/>
      <point x="196.36206896551724" y="492.72298850574714"/>
      <point x="147.22413793103448" y="509.62068965517244"/>
      <point x="112.33333333333333" y="564.7586206896551" type="curve"/>
      <point x="109.05747126436782" y="519.6551724137931" type="line"/>
      <point x="137.3264367816092" y="461.1034482758621"/>
      <point x="198.4505747126437" y="421.5862068965517"/>
      <point x="257.57126436781607" y="418.11494252873564" type="curve"/>
      <point x="231.8689655172414" y="457.2413793103448" type="line"/>
      <point x="227.27241379310342" y="366.0"/>
      <point x="195.4735632183908" y="306.9988505747126"/>
      <point x="153.21379310344827" y="306.9988505747126" type="curve" smooth="yes"/>
      <point x="129.7655172413793" y="306.9988505747126"/>
      <point x="117.96666666666665" y="322.71264367816093"/>
      <point x="117.96666666666665" y="344.5264367816092" type="curve" smooth="yes"/>
      <point x="117.96666666666665" y="564.4827586206897" type="line"/>
      <point x="527.755172413793" y="564.4827586206897" type="line"/>
      <point x="492.903448275862" y="622.0" type="line"/>
      <point x="-29.188505747126438" y="622.0" type="line"/>
      <point x="5.020689655172414" y="564.4827586206897" type="line"/>
      <point x="55.714942528735634" y="564.4827586206897" type="line"/>
      <point x="55.714942528735634" y="345.04022988505744" type="line" smooth="yes"/>
      <point x="55.714942528735634" y="289.7413793103448"/>
      <point x="102.64827586206897" y="236.82758620689654"/>
      <point x="167.89655172413794" y="236.82758620689654" type="curve" smooth="yes"/>
      <point x="245.50229885057473" y="236.82758620689654"/>
      <point x="308.38045977011495" y="293.04597701149424"/>
      <point x="328.6563218390805" y="460.6551724137931" type="curve"/>
      <point x="287.91379310344826" y="434.0045977011494" type="line"/>
      <point x="332.4344827586207" y="433.7390804597701"/>
      <point x="388.519540229885" y="406.35402298850573"/>
      <point x="388.519540229885" y="321.3781609195402" type="curve" smooth="yes"/>
      <point x="388.519540229885" y="240.72413793103445"/>
      <point x="335.6413793103448" y="184.59540229885056"/>
      <point x="224.31264367816092" y="184.59540229885056" type="curve" smooth="yes"/>
      <point x="172.8942528735632" y="184.59540229885056"/>
      <point x="126.66436781609197" y="192.348275862069"/>
      <point x="82.52643678160919" y="211.6471264367816" type="curve"/>
      <point x="105.63448275862068" y="99.73103448275862" type="line"/>
      <point x="248.93793103448274" y="74.2448275862069"/>
      <point x="347.0103448275862" y="24.895402298850573"/>
    </contour>
  </outline>
</glyph>
<glyph name="ja-beng" format="2">
  <advance width="731.4310344827587"/>
  <unicode hex="099C"/>
  <anchor x="641.2229885057471" y="76.6367816091954" name="bottom"/>
  <anchor x="653.948275862069" y="65.816091954023" name="bottom.rakaar"/>
  <anchor x="652.2333333333333" y="2.1379310344827562" name="bottom.rvocalic"/>
  <anchor x="635.9471264367816" y="-8.220689655172416" name="bottom.virama"/>
  <anchor x="401.4758620689655" y="573.4850574712644" name="top"/>
  <anchor x="403.39310344827584" y="570.2758620689655" name="topright"/>
  <anchor x="365.43563218390807" y="0.0" name="vedic"/>
  <outline>
    <contour>
      <point x="318.383908045977" y="38.64597701149425" type="curve" smooth="yes"/>
      <point x="443.5965517241379" y="38.64597701149425"/>
      <point x="498.87126436781614" y="125.4057471264368"/>
      <point x="498.87126436781614" y="240.6103448275862" type="curve" smooth="yes"/>
      <point x="498.87126436781614" y="314.31149425287356"/>
      <point x="474.3724137931034" y="377.44827586206895"/>
      <point x="423.8586206896552" y="427.6183908045977" type="curve"/>
      <point x="384.2471264367816" y="364.332183908046"/>
      <point x="341.26321839080464" y="326.3436781609196"/>
      <point x="299.51264367816094" y="326.3436781609196" type="curve" smooth="yes"/>
      <point x="265.73333333333335" y="326.3436781609196"/>
      <point x="242.85287356321842" y="346.78160919540227"/>
      <point x="242.85287356321842" y="384.6758620689655" type="curve" smooth="yes"/>
      <point x="242.85287356321842" y="450.2942528735632"/>
      <point x="319.01149425287355" y="513.5747126436781"/>
      <point x="423.5252873563219" y="564.4827586206897" type="curve"/>
      <point x="760.619540229885" y="564.4827586206897" type="line"/>
      <point x="726.5850574712643" y="622.0" type="line"/>
      <point x="-29.188505747126438" y="622.0" type="line"/>
      <point x="5.020689655172414" y="564.4827586206897" type="line"/>
      <point x="306.6425287356322" y="564.4827586206897" type="line"/>
      <point x="289.3011494252874" y="582.448275862069" type="line"/>
      <point x="225.132183908046" y="539.1885057471264"/>
      <point x="174.39885057471267" y="473.7356321839081"/>
      <point x="174.39885057471267" y="400.93908045977014" type="curve" smooth="yes"/>
      <point x="174.39885057471267" y="309.09655172413795"/>
      <point x="235.13563218390803" y="240.05287356321838"/>
      <point x="311.1367816091954" y="240.05287356321838" type="curve" smooth="yes"/>
      <point x="372.4793103448276" y="240.05287356321838"/>
      <point x="426.11149425287357" y="283.0597701149425"/>
      <point x="463.60804597701156" y="339.167816091954" type="curve"/>
      <point x="423.5528735632184" y="342.9402298850575" type="line"/>
      <point x="437.8218390804598" y="321.21379310344827"/>
      <point x="448.8149425287356" y="294.01149425287355"/>
      <point x="448.8149425287356" y="257.3149425287356" type="curve" smooth="yes"/>
      <point x="448.8149425287356" y="190.10459770114946"/>
      <point x="406.0436781609195" y="136.42528735632183"/>
      <point x="317.2758620689656" y="136.42528735632183" type="curve" smooth="yes"/>
      <point x="189.1367816091954" y="136.42528735632183"/>
      <point x="111.8632183908046" y="244.6632183908046"/>
      <point x="60.99080459770115" y="487.7954022988506" type="curve"/>
      <point x="17.09080459770115" y="477.2413793103448" type="line"/>
      <point x="68.97931034482758" y="173.05862068965516"/>
      <point x="166.01609195402298" y="38.64597701149425"/>
    </contour>
    <contour>
      <point x="610.216091954023" y="-25.942528735632184" type="curve"/>
      <point x="652.2333333333333" y="-9.186206896551727" type="line"/>
      <point x="632.5137931034483" y="53.840229885057475"/>
      <point x="624.8000000000001" y="112.93793103448276"/>
      <point x="624.8000000000001" y="173.4816091954023" type="curve" smooth="yes"/>
      <point x="624.8000000000001" y="251.16091954022988"/>
      <point x="648.567816091954" y="326.7793103448276"/>
      <point x="696.2793103448275" y="391.58620689655174" type="curve"/>
      <point x="647.5862068965517" y="465.37931034482756" type="line"/>
      <point x="536.396551724138" y="465.6183908045977"/>
      <point x="468.2574712643678" y="497.7264367816092"/>
      <point x="426.37586206896555" y="598.4045977011494" type="curve"/>
      <point x="389.13793103448273" y="558.4137931034483" type="line"/>
      <point x="434.97586206896557" y="441.5494252873563"/>
      <point x="526.3034482758621" y="392.1770114942529"/>
      <point x="614.3896551724138" y="376.8551724137931" type="curve"/>
      <point x="600.0988505747126" y="410.7896551724138" type="line"/>
      <point x="575.4528735632184" y="352.00459770114946"/>
      <point x="562.7275862068966" y="279.7206896551724"/>
      <point x="562.7275862068966" y="209.37816091954025" type="curve" smooth="yes"/>
      <point x="562.7275862068966" y="123.63908045977011"/>
      <point x="580.7793103448276" y="49.07701149425287"/>
    </contour>
  </outline>
</glyph>
<glyph name="jha-beng" format="2">
  <advance width="626.480459770115"/>
  <unicode hex="099D"/>
  <anchor x="400.22183908045974" y="31.103448275862068" name="bottom"/>
  <anchor x="403.48275862068965" y="74.51494252873563" name="bottom.rakaar"/>
  <anchor x="405.3793103448276" y="10.082758620689656" name="bottom.rvocalic"/>
  <anchor x="389.40344827586205" y="8.813793103448276" name="bottom.virama"/>
  <anchor x="383.73103448275856" y="573.5862068965517" name="top"/>
  <anchor x="444.5080459770115" y="573.5862068965517" name="topleft"/>
  <anchor x="385.91379310344826" y="570.2758620689655" name="topright"/>
  <anchor x="313.18965517241384" y="0.0" name="vedic"/>
  <outline>
    <contour>
      <point x="399.0103448275862" y="-16.03448275862069" type="line"/>
      <point x="405.3793103448276" y="-14.758620689655173" type="line"/>
      <point x="405.3793103448276" y="622.0" type="line"/>
      <point x="-29.188505747126438" y="622.0" type="line"/>
      <point x="5.020689655172414" y="564.4827586206897" type="line"/>
      <point x="342.6494252873563" y="564.4827586206897" type="line"/>
      <point x="342.6494252873563" y="493.4574712643679" type="line"/>
      <point x="349.7528735632184" y="521.1816091954022" type="line"/>
      <point x="228.29770114942528" y="476.7103448275862"/>
      <point x="125.45977011494253" y="422.6804597701149"/>
      <point x="17.747126436781606" y="346.8298850574713" type="curve"/>
      <point x="67.17356321839081" y="226.24597701149423" type="line"/>
      <point x="191.34022988505748" y="204.44597701149428"/>
      <point x="286.27701149425286" y="135.8735632183908"/>
      <point x="349.60804597701144" y="20.25632183908046" type="curve"/>
    </contour>
    <contour>
      <point x="342.6494252873563" y="77.03333333333333" type="line"/>
      <point x="353.57816091954027" y="86.87701149425288" type="line"/>
      <point x="294.4229885057471" y="218.60229885057473"/>
      <point x="190.82528735632184" y="282.47241379310344"/>
      <point x="103.11609195402299" y="307.31264367816095" type="curve"/>
      <point x="112.01494252873565" y="285.7494252873563" type="line"/>
      <point x="183.02528735632185" y="342.3379310344827"/>
      <point x="274.0931034482759" y="386.84022988505745"/>
      <point x="354.764367816092" y="418.2747126436782" type="curve"/>
      <point x="342.6494252873563" y="441.54022988505744" type="line"/>
    </contour>
    <contour>
      <point x="547.4597701149424" y="77.55057471264367" type="line"/>
      <point x="552.7367816091955" y="78.82643678160919" type="line"/>
      <point x="552.7367816091955" y="564.4827586206897" type="line"/>
      <point x="655.6689655172414" y="564.4827586206897" type="line"/>
      <point x="621.0011494252874" y="622.0" type="line"/>
      <point x="549.8068965517242" y="622.0" type="line"/>
      <point x="544.4379310344827" y="668.3103448275862" type="line"/>
      <point x="495.03678160919543" y="702.1379310344828" type="line"/>
      <point x="490.2091954022989" y="700.5862068965517" type="line"/>
      <point x="490.2091954022989" y="170.71954022988504" type="line"/>
      <point x="501.1379310344828" y="179.7632183908046" type="line"/>
      <point x="469.80114942528735" y="252.88620689655173"/>
      <point x="427.0563218390805" y="302.7137931034483"/>
      <point x="378.0241379310345" y="339.32528735632184" type="curve"/>
      <point x="371.4333333333333" y="257.4850574712643" type="line"/>
      <point x="423.7448275862069" y="225.80919540229888"/>
      <point x="463.5206896551724" y="176.9977011494253"/>
      <point x="496.9931034482759" y="113.84137931034483" type="curve"/>
    </contour>
  </outline>
</glyph>
<glyph name="nya-beng" format="2">
  <advance width="865.0413793103448"/>
  <unicode hex="099E"/>
  <anchor x="528.2379310344828" y="29.724137931034484" name="bottom"/>
  <anchor x="627.8885057471265" y="73.3103448275862" name="bottom.rakaar"/>
  <anchor x="533.3954022988506" y="6.86896551724138" name="bottom.rvocalic"/>
  <anchor x="516.7206896551725" y="6.827586206896552" name="bottom.virama"/>
  <anchor x="450.7563218390805" y="573.4850574712644" name="top"/>
  <anchor x="453.01264367816094" y="570.2758620689655" name="topright"/>
  <anchor x="432.5206896551724" y="0.0" name="vedic"/>
  <outline>
    <contour>
      <point x="680.4735632183908" y="47.28275862068965" type="curve" smooth="yes"/>
      <point x="759.3229885057472" y="47.28275862068965"/>
      <point x="803.5942528735632" y="115.1103448275862"/>
      <point x="803.5942528735632" y="201.28275862068966" type="curve" smooth="yes"/>
      <point x="803.5942528735632" y="253.36896551724135"/>
      <point x="786.416091954023" y="305.4919540229885"/>
      <point x="744.4816091954024" y="344.04367816091957" type="curve"/>
      <point x="755.9540229885057" y="301.38850574712643" type="line"/>
      <point x="783.222988505747" y="332.27701149425286"/>
      <point x="801.5022988505748" y="386.00114942528734"/>
      <point x="801.5022988505748" y="443.3195402298851" type="curve" smooth="yes"/>
      <point x="801.5022988505748" y="528.1597701149425"/>
      <point x="757.6701149425287" y="596.8045977011494"/>
      <point x="687.1172413793104" y="596.8045977011494" type="curve" smooth="yes"/>
      <point x="587.2735632183908" y="596.8045977011494"/>
      <point x="517.0310344827587" y="454.5264367816092"/>
      <point x="509.4885057471264" y="376.3195402298851" type="curve"/>
      <point x="509.4885057471264" y="273.216091954023" type="line"/>
      <point x="524.6747126436782" y="156.45747126436783"/>
      <point x="595.5402298850574" y="47.28275862068965"/>
    </contour>
    <contour>
      <point x="676.4620689655173" y="136.45747126436783" type="curve" smooth="yes"/>
      <point x="605.1252873563218" y="136.45747126436783"/>
      <point x="540.8609195402299" y="220.51379310344825"/>
      <point x="540.8609195402299" y="318.9425287356322" type="curve" smooth="yes"/>
      <point x="540.8609195402299" y="402.7701149425287"/>
      <point x="597.1252873563219" y="513.1103448275861"/>
      <point x="682.2896551724139" y="513.1103448275861" type="curve" smooth="yes"/>
      <point x="721.0701149425288" y="513.1103448275861"/>
      <point x="746.0620689655173" y="494.735632183908"/>
      <point x="746.0620689655173" y="456.216091954023" type="curve" smooth="yes"/>
      <point x="746.0620689655173" y="409.8931034482759"/>
      <point x="718.4241379310344" y="376.5264367816092"/>
      <point x="681.980459770115" y="359.80229885057474" type="curve"/>
      <point x="730.9160919540229" y="349.35402298850573" type="line"/>
      <point x="712.9137931034484" y="379.1471264367816"/>
      <point x="686.932183908046" y="389.35402298850573"/>
      <point x="661.3563218390805" y="389.35402298850573" type="curve" smooth="yes"/>
      <point x="623.0747126436781" y="389.35402298850573"/>
      <point x="596.8873563218391" y="362.332183908046"/>
      <point x="596.8873563218391" y="320.76781609195405" type="curve" smooth="yes"/>
      <point x="596.8873563218391" y="275.1126436781609"/>
      <point x="625.8919540229886" y="249.55862068965519"/>
      <point x="665.3666666666668" y="249.55862068965519" type="curve" smooth="yes"/>
      <point x="701.555172413793" y="249.55862068965519"/>
      <point x="726.6609195402299" y="266.5586206896552"/>
      <point x="747.5735632183907" y="295.0091954022989" type="curve"/>
      <point x="712.4540229885058" y="311.04367816091957" type="line"/>
      <point x="732.1712643678161" y="293.76781609195405"/>
      <point x="753.3494252873563" y="263.32183908045977"/>
      <point x="753.3494252873563" y="222.42298850574713" type="curve" smooth="yes"/>
      <point x="753.3494252873563" y="168.80229885057472"/>
      <point x="726.080459770115" y="136.45747126436783"/>
    </contour>
    <component base="e-beng"/>
  </outline>
</glyph>
<glyph name="tta-beng" format="2">
  <advance width="471.9942528735632"/>
  <unicode hex="099F"/>
  <anchor x="309.5724137931034" y="23.655172413793103" name="bottom"/>
  <anchor x="364.0" y="2.6425287356321845" name="bottom.rakaar"/>
  <anchor x="311.93103448275866" y="28.172413793103445" name="bottom.rvocalic"/>
  <anchor x="243.41954022988506" y="36.159770114942525" name="bottom.virama"/>
  <anchor x="258.93563218390807" y="665.0528735632183" name="top"/>
  <anchor x="184.8919540229885" y="641.1505747126438" name="topright"/>
  <anchor x="235.76781609195402" y="0.0" name="vedic"/>
  <anchor x="208.18275862068967" y="-79.72413793103448" name="nukta"/>
  <outline>
    <contour>
      <point x="353.53793103448277" y="608.1379310344828" type="curve"/>
      <point x="400.2827586206897" y="608.1379310344828" type="line"/>
      <point x="395.6310344827586" y="741.0206896551724"/>
      <point x="355.79655172413794" y="806.8367816091954"/>
      <point x="268.4080459770115" y="806.8367816091954" type="curve" smooth="yes"/>
      <point x="225.7942528735632" y="806.8367816091954"/>
      <point x="190.08275862068967" y="797.735632183908"/>
      <point x="146.07471264367817" y="797.735632183908" type="curve" smooth="yes"/>
      <point x="84.31149425287357" y="797.735632183908"/>
      <point x="54.3183908045977" y="817.5011494252874"/>
      <point x="54.3183908045977" y="880.9551724137931" type="curve" smooth="yes"/>
      <point x="54.3183908045977" y="893.5873563218391"/>
      <point x="55.3183908045977" y="906.8436781609195"/>
      <point x="56.85977011494253" y="916.6701149425288" type="curve"/>
      <point x="14.934482758620687" y="921.0471264367816" type="line"/>
      <point x="11.841379310344827" y="902.7609195402298"/>
      <point x="9.932183908045976" y="879.8402298850574"/>
      <point x="9.932183908045976" y="861.5413793103448" type="curve" smooth="yes"/>
      <point x="9.932183908045976" y="767.3758620689655"/>
      <point x="52.10574712643678" y="706.3195402298851"/>
      <point x="147.60114942528736" y="706.3195402298851" type="curve" smooth="yes"/>
      <point x="201.70000000000002" y="706.3195402298851"/>
      <point x="239.0218390804598" y="716.4942528735633"/>
      <point x="278.28160919540227" y="716.4942528735633" type="curve" smooth="yes"/>
      <point x="325.91954022988506" y="716.4942528735633"/>
      <point x="351.4919540229885" y="687.2620689655172"/>
    </contour>
    <component base="ddha-beng"/>
  </outline>
</glyph>
<glyph name="ttha-beng" format="2">
  <advance width="498.62988505747126"/>
  <unicode hex="09A0"/>
  <anchor x="298.17471264367816" y="-8.000000000000002" name="bottom"/>
  <anchor x="417.787356321839" y="-34.793103448275865" name="bottom.rakaar"/>
  <anchor x="344.5586206896552" y="-9.103448275862071" name="bottom.rvocalic"/>
  <anchor x="295.20000000000005" y="-3.3103448275862073" name="bottom.virama"/>
  <anchor x="397.9333333333334" y="556.7793103448276" name="top"/>
  <anchor x="394.0896551724138" y="613.7206896551724" name="topleft"/>
  <anchor x="292.23218390804595" y="570.2758620689655" name="topright"/>
  <anchor x="248.95287356321836" y="0.0" name="vedic"/>
  <outline>
    <contour>
      <point x="254.4448275862069" y="-4.379310344827587" type="curve" smooth="yes"/>
      <point x="373.1954022988506" y="-4.379310344827587"/>
      <point x="445.4632183908046" y="80.29425287356322"/>
      <point x="445.4632183908046" y="213.9735632183908" type="curve" smooth="yes"/>
      <point x="445.4632183908046" y="338.9862068965517"/>
      <point x="376.3632183908046" y="447.8413793103448"/>
      <point x="278.5103448275862" y="564.4827586206897" type="curve"/>
      <point x="527.8183908045978" y="564.4827586206897" type="line"/>
      <point x="494.33333333333337" y="622.0" type="line"/>
      <point x="224.68275862068964" y="622.0" type="line"/>
      <point x="191.4942528735632" y="659.448275862069"/>
      <point x="167.89080459770116" y="699.167816091954"/>
      <point x="167.89080459770116" y="737.971264367816" type="curve" smooth="yes"/>
      <point x="167.89080459770116" y="775.4114942528735"/>
      <point x="191.42758620689654" y="804.7931034482758"/>
      <point x="235.03793103448274" y="834.1379310344828" type="curve"/>
      <point x="168.22068965517244" y="900.1724137931035" type="line"/>
      <point x="110.95632183908046" y="859.8275862068965"/>
      <point x="89.87471264367817" y="817.0793103448275"/>
      <point x="89.87471264367817" y="773.2413793103449" type="curve" smooth="yes"/>
      <point x="89.87471264367817" y="712.3333333333333"/>
      <point x="127.67586206896553" y="665.7241379310345"/>
      <point x="164.05977011494255" y="622.0" type="curve"/>
      <point x="-29.188505747126438" y="622.0" type="line"/>
      <point x="5.020689655172414" y="564.4827586206897" type="line"/>
      <point x="191.95287356321836" y="564.4827586206897" type="line"/>
      <point x="205.20919540229883" y="532.0390804597702"/>
      <point x="212.65862068965518" y="496.00689655172414"/>
      <point x="212.65862068965518" y="456.2758620689655" type="curve" smooth="yes"/>
      <point x="212.65862068965518" y="356.30574712643676"/>
      <point x="160.0287356321839" y="276.7988505747127"/>
      <point x="27.073563218390806" y="246.35287356321837" type="curve"/>
      <point x="48.76896551724138" y="80.03103448275861"/>
      <point x="131.03563218390804" y="-4.379310344827587"/>
    </contour>
    <contour>
      <point x="239.4816091954023" y="65.32758620689657" type="curve" smooth="yes"/>
      <point x="172.6781609195402" y="65.32758620689657"/>
      <point x="125.65057471264366" y="119.21954022988506"/>
      <point x="124.91724137931033" y="196.5103448275862" type="curve"/>
      <point x="111.47471264367816" y="164.98620689655175" type="line"/>
      <point x="225.06206896551726" y="197.71034482758623"/>
      <point x="274.40919540229885" y="280.5114942528736"/>
      <point x="274.40919540229885" y="382.81379310344823" type="curve" smooth="yes"/>
      <point x="274.40919540229885" y="461.448275862069"/>
      <point x="253.2689655172414" y="520.0"/>
      <point x="226.5275862068966" y="577.2758620689655" type="curve"/>
      <point x="216.96436781609194" y="577.2758620689655" type="line"/>
      <point x="316.07356321839075" y="448.60689655172416"/>
      <point x="358.11379310344824" y="348.25287356321843"/>
      <point x="358.11379310344824" y="230.37701149425288" type="curve" smooth="yes"/>
      <point x="358.11379310344824" y="126.62183908045978"/>
      <point x="313.10229885057475" y="65.32758620689657"/>
    </contour>
  </outline>
</glyph>
<glyph name="dda-beng" format="2">
  <advance width="562.6379310344828"/>
  <unicode hex="09A1"/>
  <anchor x="394.07011494252873" y="24.344827586206897" name="bottom"/>
  <anchor x="477.8091954022988" y="-6.827586206896552" name="bottom.rakaar"/>
  <anchor x="398.1540229885058" y="34.86206896551724" name="bottom.rvocalic"/>
  <anchor x="355.5252873563218" y="9.86206896551724" name="bottom.virama"/>
  <anchor x="302.85057471264366" y="-74.6896551724138" name="nukta"/>
  <anchor x="266.5333333333333" y="573.5862068965517" name="top"/>
  <anchor x="268.71609195402294" y="570.2758620689655" name="topright"/>
  <anchor x="281.1862068965517" y="0.0" name="vedic"/>
  <outline>
    <contour>
      <point x="331.80689655172415" y="37.58620689655172" type="curve" smooth="yes"/>
      <point x="462.8103448275862" y="37.58620689655172"/>
      <point x="530.6655172413793" y="131.30689655172415"/>
      <point x="530.6655172413793" y="257.1816091954023" type="curve" smooth="yes"/>
      <point x="530.6655172413793" y="356.5"/>
      <point x="494.4862068965518" y="425.86436781609194"/>
      <point x="440.67356321839077" y="475.2436781609195" type="curve"/>
      <point x="403.28390804597706" y="408.5402298850575"/>
      <point x="351.06091954022986" y="354.9022988505747"/>
      <point x="304.50114942528734" y="354.9022988505747" type="curve" smooth="yes"/>
      <point x="286.78390804597706" y="354.9022988505747"/>
      <point x="275.4137931034483" y="364.1758620689655"/>
      <point x="275.4137931034483" y="383.45402298850576" type="curve" smooth="yes"/>
      <point x="275.4137931034483" y="564.4827586206897" type="line"/>
      <point x="591.8264367816092" y="564.4827586206897" type="line"/>
      <point x="556.9747126436782" y="622.0" type="line"/>
      <point x="-29.188505747126438" y="622.0" type="line"/>
      <point x="5.296551724137931" y="564.4827586206897" type="line"/>
      <point x="212.68390804597703" y="564.4827586206897" type="line"/>
      <point x="212.68390804597703" y="380.9241379310345" type="line" smooth="yes"/>
      <point x="212.68390804597703" y="344.51149425287355"/>
      <point x="222.935632183908" y="317.7367816091954"/>
      <point x="245.04022988505747" y="296.6229885057471" type="curve" smooth="yes"/>
      <point x="264.60459770114943" y="277.59080459770115"/>
      <point x="290.7942528735632" y="265.6701149425287"/>
      <point x="321.8494252873563" y="265.6701149425287" type="curve" smooth="yes"/>
      <point x="378.8735632183908" y="265.6701149425287"/>
      <point x="442.21379310344827" y="312.7540229885057"/>
      <point x="482.61379310344824" y="381.4091954022988" type="curve"/>
      <point x="439.9344827586207" y="369.8770114942529" type="line"/>
      <point x="463.0091954022988" y="351.4264367816092"/>
      <point x="476.2574712643678" y="324.5080459770115"/>
      <point x="476.2574712643678" y="277.43908045977014" type="curve" smooth="yes"/>
      <point x="476.2574712643678" y="193.967816091954"/>
      <point x="422.24252873563216" y="137.1448275862069"/>
      <point x="332.1919540229885" y="137.1448275862069" type="curve" smooth="yes"/>
      <point x="187.9505747126437" y="137.1448275862069"/>
      <point x="116.21839080459772" y="248.62068965517244"/>
      <point x="63.94942528735633" y="486.9873563218391" type="curve"/>
      <point x="18.8" y="477.2413793103448" type="line"/>
      <point x="70.44597701149425" y="177.55057471264368"/>
      <point x="170.55517241379312" y="37.58620689655172"/>
    </contour>
  </outline>
</glyph>
<glyph name="ddha-beng" format="2">
  <advance width="471.9942528735632"/>
  <unicode hex="09A2"/>
  <anchor x="309.92183908045973" y="23.655172413793103" name="bottom"/>
  <anchor x="364.0" y="2.6425287356321845" name="bottom.rakaar"/>
  <anchor x="311.0137931034483" y="27.080459770114945" name="bottom.rvocalic"/>
  <anchor x="243.41954022988506" y="36.159770114942525" name="bottom.virama"/>
  <anchor x="208.18275862068967" y="-79.72413793103448" name="nukta"/>
  <anchor x="130.75402298850574" y="573.5862068965517" name="top"/>
  <anchor x="132.84597701149426" y="570.2758620689655" name="topright"/>
  <anchor x="235.76781609195402" y="0.0" name="vedic"/>
  <outline>
    <contour>
      <point x="200.8080459770115" y="26.745977011494254" type="curve" smooth="yes"/>
      <point x="327.8390804597701" y="26.745977011494254"/>
      <point x="433.13103448275865" y="200.17241379310346"/>
      <point x="433.13103448275865" y="328.13793103448273" type="curve" smooth="yes"/>
      <point x="433.13103448275865" y="420.98850574712645"/>
      <point x="385.08505747126435" y="457.82758620689657"/>
      <point x="330.2402298850575" y="457.82758620689657" type="curve" smooth="yes"/>
      <point x="271.95632183908043" y="457.82758620689657"/>
      <point x="239.5632183908046" y="416.01724137931035"/>
      <point x="239.5632183908046" y="368.9551724137931" type="curve" smooth="yes"/>
      <point x="239.5632183908046" y="318.81954022988504"/>
      <point x="270.00689655172414" y="283.3574712643678"/>
      <point x="321.5735632183908" y="283.3574712643678" type="curve" smooth="yes"/>
      <point x="348.0252873563219" y="283.3574712643678"/>
      <point x="362.3034482758621" y="296.0919540229885"/>
      <point x="375.0505747126437" y="313.0126436781609" type="curve"/>
      <point x="343.1264367816092" y="342.13793103448273" type="line"/>
      <point x="338.18965517241384" y="224.6747126436782"/>
      <point x="259.6390804597701" y="100.75977011494254"/>
      <point x="187.45632183908046" y="100.75977011494254" type="curve" smooth="yes"/>
      <point x="155.65057471264365" y="100.75977011494254"/>
      <point x="136.57471264367817" y="119.48390804597702"/>
      <point x="136.57471264367817" y="154.80919540229883" type="curve" smooth="yes"/>
      <point x="136.57471264367817" y="564.4827586206897" type="line"/>
      <point x="501.1827586206897" y="564.4827586206897" type="line"/>
      <point x="467.35057471264366" y="622.0" type="line"/>
      <point x="-29.188505747126438" y="622.0" type="line"/>
      <point x="6.755172413793104" y="564.4827586206897" type="line"/>
      <point x="74.01954022988505" y="564.4827586206897" type="line"/>
      <point x="74.01954022988505" y="152.75402298850574" type="line" smooth="yes"/>
      <point x="74.01954022988505" y="75.92183908045978"/>
      <point x="131.31954022988506" y="26.745977011494254"/>
    </contour>
  </outline>
</glyph>
<glyph name="nna-beng" format="2">
  <advance width="534.5862068965519"/>
  <unicode hex="09A3"/>
  <anchor x="448.5080459770115" y="55.27816091954023" name="bottom"/>
  <anchor x="460.56666666666666" y="-6.310344827586207" name="bottom.rakaar"/>
  <anchor x="460.56666666666666" y="-2.2758620689655173" name="bottom.rvocalic"/>
  <anchor x="436.91494252873565" y="6.551724137931035" name="bottom.virama"/>
  <anchor x="450.2896551724138" y="563.5862068965517" name="top"/>
  <anchor x="428.0149425287357" y="555.3103448275862" name="topright"/>
  <anchor x="266.79310344827593" y="0.0" name="vedic"/>
  <outline>
    <contour>
      <point x="455.92183908045973" y="-27.758620689655174" type="line"/>
      <point x="460.56666666666666" y="-26.482758620689655" type="line"/>
      <point x="460.56666666666666" y="564.4827586206897" type="line"/>
      <point x="563.7747126436782" y="564.4827586206897" type="line"/>
      <point x="528.8310344827586" y="622.0" type="line"/>
      <point x="457.6367816091954" y="622.0" type="line"/>
      <point x="452.4425287356322" y="668.3103448275862" type="line"/>
      <point x="403.1425287356322" y="702.1379310344828" type="line"/>
      <point x="398.3149425287356" y="700.5862068965517" type="line"/>
      <point x="398.3149425287356" y="554.8793103448276" type="line" smooth="yes"/>
      <point x="398.3149425287356" y="500.29540229885055"/>
      <point x="401.2241379310345" y="443.7528735632184"/>
      <point x="404.7471264367816" y="399.92643678160925" type="curve"/>
      <point x="410.28965517241375" y="408.4229885057472" type="line"/>
      <point x="333.22873563218394" y="572.9080459770115"/>
      <point x="268.14942528735634" y="627.551724137931"/>
      <point x="186.0816091954023" y="627.551724137931" type="curve" smooth="yes"/>
      <point x="98.42988505747127" y="627.551724137931"/>
      <point x="34.02068965517241" y="557.4482758620691"/>
      <point x="34.02068965517241" y="449.84827586206893" type="curve" smooth="yes"/>
      <point x="34.02068965517241" y="325.61264367816096"/>
      <point x="112.26436781609195" y="262.40919540229885"/>
      <point x="192.0942528735632" y="262.40919540229885" type="curve" smooth="yes"/>
      <point x="251.93103448275866" y="262.40919540229885"/>
      <point x="286.0287356321839" y="298.5149425287356"/>
      <point x="286.0287356321839" y="350.9264367816092" type="curve" smooth="yes"/>
      <point x="286.0287356321839" y="399.7586206896552"/>
      <point x="255.47356321839084" y="435.6919540229885"/>
      <point x="206.36206896551727" y="435.6919540229885" type="curve" smooth="yes"/>
      <point x="164.44712643678164" y="435.6919540229885"/>
      <point x="134.16666666666666" y="404.5045977011494"/>
      <point x="134.16666666666666" y="360.2977011494253" type="curve" smooth="yes"/>
      <point x="134.16666666666666" y="345.2758620689655"/>
      <point x="138.26781609195402" y="327.5494252873563"/>
      <point x="144.65517241379308" y="317.64022988505747" type="curve"/>
      <point x="186.04827586206898" y="347.9310344827586" type="line"/>
      <point x="175.96436781609194" y="345.5540229885057"/>
      <point x="165.3103448275862" y="344.351724137931"/>
      <point x="155.39080459770116" y="344.351724137931" type="curve" smooth="yes"/>
      <point x="120.95862068965518" y="344.351724137931"/>
      <point x="95.71034482758621" y="376.07241379310346"/>
      <point x="95.71034482758621" y="426.4655172413793" type="curve" smooth="yes"/>
      <point x="95.71034482758621" y="490.9885057471264"/>
      <point x="140.22988505747128" y="529.1264367816093"/>
      <point x="202.09885057471263" y="529.1264367816093" type="curve" smooth="yes"/>
      <point x="278.29195402298853" y="529.1264367816093"/>
      <point x="334.4747126436781" y="485.1022988505747"/>
      <point x="406.84022988505745" y="326.5655172413793" type="curve"/>
      <point x="398.01149425287355" y="382.77356321839085" type="line"/>
      <point x="398.01149425287355" y="2.4482758620689653" type="line"/>
    </contour>
  </outline>
</glyph>
<glyph name="ta-beng" format="2">
  <advance width="571.3609195402299"/>
  <unicode hex="09A4"/>
  <anchor x="406.148275862069" y="32.172413793103445" name="bottom"/>
  <anchor x="484.72758620689655" y="0.7241379310344827" name="bottom.rakaar"/>
  <anchor x="416.33218390804603" y="43.137931034482754" name="bottom.rvocalic"/>
  <anchor x="359.61149425287357" y="17.689655172413794" name="bottom.virama"/>
  <anchor x="342.55632183908045" y="573.5862068965517" name="top"/>
  <anchor x="344.7390804597701" y="570.2758620689655" name="topright"/>
  <anchor x="285.68045977011496" y="0.0" name="vedic"/>
  <outline>
    <contour>
      <point x="341.496551724138" y="45.41379310344827" type="curve" smooth="yes"/>
      <point x="452.9494252873563" y="45.41379310344827"/>
      <point x="535.5448275862069" y="114.67816091954023"/>
      <point x="535.5448275862069" y="262.9206896551724" type="curve" smooth="yes"/>
      <point x="535.5448275862069" y="398.56666666666666"/>
      <point x="460.2655172413793" y="507.17241379310343"/>
      <point x="323.1229885057471" y="507.17241379310343" type="curve" smooth="yes"/>
      <point x="243.5390804597701" y="507.17241379310343"/>
      <point x="197.06666666666666" y="458.8632183908046"/>
      <point x="197.06666666666666" y="388.2068965517241" type="curve" smooth="yes"/>
      <point x="197.06666666666666" y="328.6114942528735"/>
      <point x="232.7149425287356" y="279.5770114942529"/>
      <point x="299.22298850574714" y="279.5770114942529" type="curve" smooth="yes"/>
      <point x="357.4459770114942" y="279.5770114942529"/>
      <point x="390.716091954023" y="321.3333333333333"/>
      <point x="390.716091954023" y="375.55172413793105" type="curve" smooth="yes"/>
      <point x="390.716091954023" y="412.84022988505745"/>
      <point x="374.5091954022989" y="443.3103448275862"/>
      <point x="360.05747126436785" y="458.58620689655174" type="curve"/>
      <point x="329.95977011494256" y="407.3103448275862" type="line"/>
      <point x="340.9609195402299" y="411.8620689655172"/>
      <point x="357.61724137931037" y="415.51724137931035"/>
      <point x="375.080459770115" y="415.51724137931035" type="curve" smooth="yes"/>
      <point x="426.0390804597701" y="415.51724137931035"/>
      <point x="477.28965517241375" y="376.9793103448276"/>
      <point x="477.28965517241375" y="285.49540229885054" type="curve" smooth="yes"/>
      <point x="477.28965517241375" y="189.37931034482762"/>
      <point x="420.90229885057477" y="145.8816091954023"/>
      <point x="340.0459770114943" y="145.8816091954023" type="curve" smooth="yes"/>
      <point x="212.57241379310346" y="145.8816091954023"/>
      <point x="124.28045977011493" y="236.94482758620688"/>
      <point x="55.309195402298855" y="500.15977011494255" type="curve"/>
      <point x="11.068965517241377" y="488.13793103448273" type="line"/>
      <point x="79.49080459770114" y="175.20689655172416"/>
      <point x="178.97931034482758" y="45.41379310344827"/>
    </contour>
    <contour>
      <point x="4.12183908045977" y="564.4827586206897" type="line"/>
      <point x="600.5494252873564" y="564.4827586206897" type="line"/>
      <point x="566.0643678160919" y="622.0" type="line"/>
      <point x="-29.188505747126438" y="622.0" type="line"/>
    </contour>
  </outline>
</glyph>
<glyph name="tha-beng" format="2">
  <advance width="521.5436781609196"/>
  <unicode hex="09A5"/>
  <anchor x="442.2758620689656" y="31.103448275862068" name="bottom"/>
  <anchor x="447.69885057471265" y="74.6896551724138" name="bottom.rakaar"/>
  <anchor x="447.69885057471265" y="11.52183908045977" name="bottom.rvocalic"/>
  <anchor x="429.4942528735632" y="8.206896551724139" name="bottom.virama"/>
  <anchor x="436.94367816091955" y="563.5862068965517" name="top"/>
  <anchor x="414.94482758620694" y="555.3103448275862" name="topright"/>
  <anchor x="260.55172413793105" y="0.0" name="vedic"/>
  <outline>
    <contour>
      <point x="441.696551724138" y="-16.03448275862069" type="line"/>
      <point x="447.69885057471265" y="-14.758620689655173" type="line"/>
      <point x="447.69885057471265" y="564.4827586206897" type="line"/>
      <point x="550.732183908046" y="564.4827586206897" type="line"/>
      <point x="516.0643678160919" y="622.0" type="line"/>
      <point x="444.87011494252874" y="622.0" type="line"/>
      <point x="439.50114942528734" y="668.3103448275862" type="line"/>
      <point x="389.79655172413794" y="702.1379310344828" type="line"/>
      <point x="385.07011494252873" y="700.5862068965517" type="line"/>
      <point x="385.07011494252873" y="77.15862068965518" type="line"/>
      <point x="395.0" y="89.26206896551724" type="line"/>
      <point x="346.76091954022985" y="198.0413793103448"/>
      <point x="254.49080459770116" y="265.49770114942527"/>
      <point x="154.40919540229885" y="299.5137931034483" type="curve"/>
      <point x="167.50459770114944" y="270.1505747126437" type="line"/>
      <point x="266.72758620689655" y="288.5977011494253"/>
      <point x="323.1172413793103" y="341.59655172413795"/>
      <point x="323.1172413793103" y="445.01839080459774" type="curve" smooth="yes"/>
      <point x="323.1172413793103" y="558.0103448275862"/>
      <point x="249.85517241379313" y="625.2022988505747"/>
      <point x="155.91379310344826" y="625.2022988505747" type="curve" smooth="yes"/>
      <point x="75.25402298850575" y="625.2022988505747"/>
      <point x="22.211494252873564" y="574.9540229885058"/>
      <point x="22.211494252873564" y="510.4724137931035" type="curve" smooth="yes"/>
      <point x="22.211494252873564" y="451.0873563218391"/>
      <point x="58.447126436781616" y="420.46206896551723"/>
      <point x="102.22413793103448" y="420.46206896551723" type="curve" smooth="yes"/>
      <point x="146.61724137931034" y="420.46206896551723"/>
      <point x="171.73218390804598" y="447.6574712643678"/>
      <point x="171.73218390804598" y="487.7540229885057" type="curve" smooth="yes"/>
      <point x="171.73218390804598" y="517.2344827586207"/>
      <point x="159.38275862068966" y="538.4"/>
      <point x="135.39885057471264" y="549.9344827586208" type="curve"/>
      <point x="134.5735632183908" y="521.6551724137931" type="line"/>
      <point x="145.916091954023" y="541.9310344827586"/>
      <point x="164.94482758620688" y="553.6"/>
      <point x="189.24137931034483" y="553.6" type="curve" smooth="yes"/>
      <point x="231.29770114942528" y="553.6"/>
      <point x="260.5528735632184" y="520.0896551724138"/>
      <point x="260.5528735632184" y="466.4022988505747" type="curve" smooth="yes"/>
      <point x="260.5528735632184" y="371.2942528735632"/>
      <point x="153.91954022988506" y="342.8528735632184"/>
      <point x="58.52873563218391" y="344.5988505747127" type="curve"/>
      <point x="99.37356321839081" y="225.15402298850574" type="line"/>
      <point x="229.32298850574713" y="208.75172413793103"/>
      <point x="327.1505747126437" y="138.74137931034483"/>
      <point x="391.39655172413796" y="22.24367816091954" type="curve"/>
    </contour>
  </outline>
</glyph>
<glyph name="da-beng" format="2">
  <advance width="482.21954022988507"/>
  <unicode hex="09A6"/>
  <anchor x="401.21494252873566" y="82.22758620689656" name="bottom"/>
  <anchor x="414.0057471264368" y="66.6896551724138" name="bottom.rakaar"/>
  <anchor x="412.36436781609194" y="3.011494252873562" name="bottom.rvocalic"/>
  <anchor x="396.0045977011494" y="-7.172413793103449" name="bottom.virama"/>
  <anchor x="117.58275862068966" y="573.5862068965517" name="top"/>
  <anchor x="119.94022988505749" y="570.2758620689655" name="topright"/>
  <anchor x="240.79310344827587" y="0.0" name="vedic"/>
  <outline>
    <contour>
      <point x="370.34712643678165" y="-25.068965517241384" type="curve"/>
      <point x="412.36436781609194" y="-8.137931034482762" type="line"/>
      <point x="391.71954022988507" y="55.52183908045976"/>
      <point x="381.0873563218391" y="111.91149425287355"/>
      <point x="381.0873563218391" y="172.7390804597701" type="curve" smooth="yes"/>
      <point x="381.0873563218391" y="255.28275862068963"/>
      <point x="402.4034482758621" y="338.2068965517241"/>
      <point x="444.8379310344828" y="412.48275862068965" type="curve"/>
      <point x="353.4758620689655" y="494.5528735632184" type="line"/>
      <point x="257.5873563218391" y="435.38275862068963"/>
      <point x="165.35632183908046" y="352.10919540229884"/>
      <point x="105.36896551724139" y="280.94482758620694" type="curve"/>
      <point x="126.5367816091954" y="258.51724137931035" type="line"/>
      <point x="126.5367816091954" y="564.4827586206897" type="line"/>
      <point x="511.40804597701157" y="564.4827586206897" type="line"/>
      <point x="477.37356321839076" y="622.0" type="line"/>
      <point x="-29.188505747126438" y="622.0" type="line"/>
      <point x="5.12183908045977" y="564.4827586206897" type="line"/>
      <point x="63.80689655172414" y="564.4827586206897" type="line"/>
      <point x="63.80689655172414" y="203.79080459770114" type="line"/>
      <point x="123.26206896551724" y="162.96206896551723" type="line"/>
      <point x="207.15172413793104" y="257.8804597701149"/>
      <point x="287.7057471264368" y="337.71954022988507"/>
      <point x="377.8" y="399.18045977011496" type="curve"/>
      <point x="356.35632183908046" y="412.0344827586207" type="line"/>
      <point x="330.5011494252874" y="348.5540229885057"/>
      <point x="317.67471264367816" y="280.85632183908046"/>
      <point x="317.67471264367816" y="211.6712643678161" type="curve" smooth="yes"/>
      <point x="317.67471264367816" y="128.88045977011492"/>
      <point x="338.5080459770115" y="49.81954022988506"/>
    </contour>
  </outline>
</glyph>
<glyph name="dha-beng" format="2">
  <advance width="483.9816091954023"/>
  <unicode hex="09A7"/>
  <anchor x="404.70344827586206" y="31.103448275862068" name="bottom"/>
  <anchor x="408.06551724137927" y="74.6896551724138" name="bottom.rakaar"/>
  <anchor x="409.8609195402299" y="10.257471264367815" name="bottom.rvocalic"/>
  <anchor x="393.1862068965517" y="8.206896551724139" name="bottom.virama"/>
  <anchor x="400.87931034482756" y="573.5862068965517" name="top"/>
  <anchor x="403.06206896551726" y="570.2758620689655" name="topright"/>
  <anchor x="241.90344827586205" y="0.0" name="vedic"/>
  <outline>
    <contour>
      <point x="403.4919540229885" y="-16.03448275862069" type="line"/>
      <point x="409.8609195402299" y="-14.758620689655173" type="line"/>
      <point x="409.8609195402299" y="564.4827586206897" type="line"/>
      <point x="513.0689655172414" y="564.4827586206897" type="line"/>
      <point x="478.583908045977" y="622.0" type="line"/>
      <point x="347.13103448275865" y="622.0" type="line"/>
      <point x="347.13103448275865" y="482.5413793103449" type="line"/>
      <point x="354.4091954022989" y="509.61264367816096" type="line"/>
      <point x="233.05517241379312" y="463.89080459770116"/>
      <point x="129.5919540229885" y="410.81724137931036"/>
      <point x="22.477011494252874" y="335.7206896551724" type="curve"/>
      <point x="72.52873563218391" y="215.31149425287356" type="line"/>
      <point x="189.7206896551724" y="191.6770114942529"/>
      <point x="290.2344827586207" y="131.2655172413793"/>
      <point x="354.0896551724138" y="20.0816091954023" type="curve"/>
    </contour>
    <contour>
      <point x="347.13103448275865" y="77.38275862068966" type="line"/>
      <point x="358.0597701149425" y="86.3528735632184" type="line"/>
      <point x="303.1850574712644" y="205.7390804597701"/>
      <point x="197.1632183908046" y="267.97011494252877"/>
      <point x="106.54942528735633" y="297.07701149425293" type="curve"/>
      <point x="115.7977011494253" y="274.84252873563213" type="line"/>
      <point x="186.63333333333335" y="330.82413793103444"/>
      <point x="278.0505747126437" y="375.77701149425286"/>
      <point x="359.3471264367816" y="407.2114942528736" type="curve"/>
      <point x="347.13103448275865" y="429.9252873563218" type="line"/>
    </contour>
    <contour>
      <point x="185.9045977011494" y="403.42528735632186" type="curve"/>
      <point x="207.82528735632184" y="436.25287356321843" type="line"/>
      <point x="157.1528735632184" y="441.5195402298851"/>
      <point x="126.31494252873563" y="472.2908045977012"/>
      <point x="126.31494252873563" y="505.74942528735636" type="curve" smooth="yes"/>
      <point x="126.31494252873563" y="539.6482758620689"/>
      <point x="146.92988505747124" y="557.7034482758621"/>
      <point x="174.7505747126437" y="557.7034482758621" type="curve" smooth="yes"/>
      <point x="182.01724137931035" y="557.7034482758621"/>
      <point x="190.01839080459771" y="556.7034482758621"/>
      <point x="198.38620689655173" y="553.7034482758621" type="curve"/>
      <point x="164.8206896551724" y="590.0" type="line"/>
      <point x="157.27816091954026" y="578.448275862069"/>
      <point x="154.64482758620693" y="563.9068965517241"/>
      <point x="154.64482758620693" y="550.7931034482758" type="curve" smooth="yes"/>
      <point x="154.64482758620693" y="513.9655172413793"/>
      <point x="180.75057471264367" y="494.40344827586205"/>
      <point x="210.1034482758621" y="494.40344827586205" type="curve" smooth="yes"/>
      <point x="242.94367816091952" y="494.40344827586205"/>
      <point x="268.6816091954023" y="518.2413793103449"/>
      <point x="268.6816091954023" y="555.6206896551724" type="curve" smooth="yes"/>
      <point x="268.6816091954023" y="598.551724137931"/>
      <point x="239.20919540229883" y="633.4827586206897"/>
      <point x="177.8206896551724" y="633.4827586206897" type="curve" smooth="yes"/>
      <point x="107.06551724137931" y="633.4827586206897"/>
      <point x="59.17931034482759" y="588.3793103448276"/>
      <point x="59.17931034482759" y="522.7241379310345" type="curve" smooth="yes"/>
      <point x="59.17931034482759" y="442.21839080459773"/>
      <point x="136.38735632183906" y="403.42528735632186"/>
    </contour>
  </outline>
</glyph>
